<?xml version="1.0" encoding="utf-8"?>
<!-- Generator: Adobe Illustrator 17.0.0, SVG Export Plug-In . SVG Version: 6.00 Build 0)  -->
<!DOCTYPE svg PUBLIC "-//W3C//DTD SVG 1.1//EN" "http://www.w3.org/Graphics/SVG/1.1/DTD/svg11.dtd">
<svg version="1.1" id="Слой_1" xmlns="http://www.w3.org/2000/svg" xmlns:xlink="http://www.w3.org/1999/xlink" x="0px" y="0px"
	 width="603.853px" height="181.024px" viewBox="0 0 603.853 181.024" enable-background="new 0 0 603.853 181.024"
	 xml:space="preserve">
<path fill="#FFFFFF" d="M262.785,143.031c4.964,0,9.177-1.775,12.639-5.326c3.461-3.55,5.192-8.094,5.192-13.633v-5.281
	c0-5.518-1.731-10.058-5.192-13.618c-3.461-3.56-7.674-5.34-12.639-5.34h-11.956v43.197H262.785z M262.785,101.436
	c4.49,0,8.317,1.642,11.482,4.925c3.165,3.283,4.747,7.398,4.747,12.342v5.37c0,5.004-1.583,9.148-4.747,12.431
	c-3.165,3.283-6.992,4.925-11.482,4.925h-10.354v-39.993H262.785z M307.095,142.571c1.81-0.722,3.348-1.785,4.613-3.189l-0.86-1.246
	c-1.147,1.305-2.527,2.284-4.139,2.937c-1.612,0.653-3.615,0.979-6.008,0.979c-3.363,0-6.181-1.34-8.456-4.02
	c-2.275-2.68-3.412-5.958-3.412-9.835v-1.899v-0.386h24.061v-2.462c0-3.995-1.142-7.18-3.427-9.553
	c-2.285-2.373-5.237-3.56-8.856-3.56c-3.778,0-6.953,1.509-9.524,4.524c-2.571,3.016-3.857,6.829-3.857,11.437v1.899
	c0,4.391,1.33,8.065,3.99,11.022c2.66,2.957,5.819,4.435,9.479,4.435C303.154,143.654,305.285,143.293,307.095,142.571z
	 M308.326,115.187c1.978,2.166,2.967,4.88,2.967,8.144v0.979h-22.133l-0.089-0.178c0.277-3.481,1.473-6.383,3.59-8.707
	c2.116-2.324,4.767-3.486,7.951-3.486C303.777,111.939,306.348,113.022,308.326,115.187z M337.431,139.975
	c-1.741,1.385-4.094,2.077-7.061,2.077c-2.749,0-5.133-0.564-7.15-1.691c-2.017-1.127-3.105-2.957-3.263-5.489h-1.305l-0.059,0.178
	c-0.139,2.393,0.855,4.426,2.982,6.097c2.126,1.672,5.059,2.507,8.796,2.507c3.402,0,6.131-0.781,8.189-2.344
	c2.057-1.562,3.085-3.6,3.085-6.112c0-2.571-0.925-4.573-2.774-6.008c-1.849-1.434-4.564-2.566-8.144-3.397
	c-3.877-0.89-6.468-1.929-7.773-3.115c-1.305-1.187-1.958-2.621-1.958-4.302c0-1.701,0.772-3.199,2.314-4.495
	c1.543-1.295,3.817-1.943,6.824-1.943c3.026,0,5.424,0.737,7.195,2.21c1.77,1.474,2.655,3.259,2.655,5.355h1.365l0.06-0.178
	c0.099-2.67-0.871-4.836-2.907-6.498c-2.038-1.661-4.826-2.492-8.367-2.492c-3.283,0-5.894,0.777-7.832,2.329
	c-1.939,1.553-2.908,3.476-2.908,5.771c0,2.512,0.855,4.406,2.566,5.681c1.711,1.276,4.475,2.32,8.293,3.13
	c3.619,0.792,6.156,1.884,7.61,3.278c1.453,1.394,2.18,2.942,2.18,4.643C340.042,136.989,339.171,138.591,337.431,139.975z
	 M352.591,110.93h-1.602v32.101h1.602V110.93z M352.591,96.749h-1.602v4.094h1.602V96.749z M361.611,127.574
	c0,4.945,1.063,8.861,3.189,11.749c2.126,2.888,5.078,4.332,8.856,4.332c2.472,0,4.638-0.5,6.498-1.498
	c1.859-0.999,3.333-2.349,4.421-4.05v5.103c0,3.619-0.895,6.394-2.685,8.322c-1.79,1.928-4.416,2.893-7.877,2.893
	c-1.721,0-3.254-0.154-4.599-0.46c-1.345-0.307-2.739-0.776-4.183-1.409l-0.475,1.602c1.266,0.573,2.744,1.024,4.435,1.35
	c1.691,0.326,3.318,0.489,4.88,0.489c3.798,0,6.769-1.112,8.915-3.338c2.146-2.225,3.219-5.375,3.219-9.449V110.93h-1.365
	l-0.237,5.756c-1.088-1.977-2.551-3.53-4.391-4.658c-1.839-1.127-4.005-1.691-6.497-1.691c-3.798,0-6.765,1.498-8.901,4.495
	c-2.136,2.997-3.204,7.037-3.204,12.119V127.574z M363.242,126.951c0-4.45,0.89-8.064,2.67-10.844
	c1.78-2.779,4.371-4.168,7.773-4.168c3.046,0,5.424,0.767,7.135,2.299c1.71,1.533,2.962,3.437,3.753,5.711v15.19
	c-0.83,2.097-2.166,3.773-4.005,5.029c-1.839,1.256-4.154,1.884-6.942,1.884c-3.402,0-5.983-1.305-7.744-3.916
	c-1.761-2.611-2.64-6.131-2.64-10.562V126.951z M396.382,110.93v32.101h1.602v-20.056c0.435-3.223,1.533-5.869,3.293-7.936
	c1.76-2.067,4.371-3.1,7.833-3.1c2.729,0,4.89,0.91,6.483,2.729c1.592,1.82,2.388,4.955,2.388,9.405v18.958h1.602v-18.899
	c0-4.786-0.875-8.282-2.626-10.488c-1.75-2.205-4.376-3.308-7.877-3.308c-2.729,0-5.024,0.628-6.883,1.884
	c-1.859,1.256-3.274,3.031-4.243,5.326l-0.208-6.616H396.382z M467.274,139.441c-2.443,1.741-5.563,2.611-9.36,2.611
	c-3.778,0-7.111-0.885-9.998-2.655c-2.888-1.77-4.332-4.613-4.332-8.53h-1.335l-0.06,0.178c-0.099,4.351,1.414,7.541,4.539,9.568
	c3.125,2.028,6.854,3.041,11.185,3.041c4.193,0,7.684-0.984,10.473-2.952c2.789-1.968,4.183-4.662,4.183-8.085
	c0-3.362-1.221-5.958-3.664-7.788c-2.443-1.829-6.057-3.377-10.844-4.643c-4.945-1.266-8.362-2.71-10.25-4.332
	c-1.889-1.622-2.833-3.659-2.833-6.112c0-2.452,1.142-4.554,3.427-6.305s5.385-2.626,9.301-2.626c3.778,0,6.854,1.058,9.227,3.174
	c2.373,2.117,3.56,4.787,3.56,8.01h1.365l0.059-0.178c0.079-3.698-1.216-6.724-3.887-9.078c-2.67-2.354-6.112-3.53-10.324-3.53
	c-4.173,0-7.605,0.96-10.295,2.878c-2.69,1.919-4.035,4.49-4.035,7.714c0,3.244,1.142,5.711,3.427,7.403
	c2.284,1.691,5.889,3.199,10.814,4.524c4.905,1.345,8.352,2.829,10.339,4.45c1.988,1.622,2.982,3.788,2.982,6.498
	C470.939,135.446,469.717,137.701,467.274,139.441z M482.153,102.267v8.663h-5.934v1.632h5.934v22.192
	c0,3.126,0.558,5.39,1.676,6.794c1.117,1.404,2.754,2.106,4.91,2.106c0.672,0,1.276-0.03,1.81-0.089
	c0.534-0.06,1.048-0.168,1.543-0.327l-0.297-1.454c-0.732,0.099-1.305,0.168-1.721,0.208c-0.415,0.04-0.89,0.059-1.424,0.059
	c-1.464,0-2.64-0.558-3.53-1.676c-0.89-1.117-1.335-2.991-1.335-5.622v-22.192h7.892v-1.632h-7.892v-8.663H482.153z
	 M521.048,143.031h1.335V110.93h-1.632v22.133c-0.495,2.71-1.637,4.886-3.427,6.527c-1.791,1.642-4.357,2.462-7.699,2.462
	c-2.73,0-4.895-1.038-6.498-3.115c-1.602-2.077-2.403-5.291-2.403-9.642V110.93h-1.602v18.306c0,4.925,0.935,8.559,2.804,10.903
	c1.869,2.344,4.455,3.516,7.759,3.516c2.67,0,4.94-0.554,6.809-1.661c1.869-1.108,3.308-2.68,4.317-4.717L521.048,143.031z
	 M531.017,127.574c0,4.945,1.063,8.861,3.189,11.749c2.126,2.888,5.078,4.332,8.856,4.332c2.492,0,4.673-0.505,6.542-1.513
	c1.869-1.009,3.338-2.373,4.406-4.094l0.059,4.984h1.543V96.749h-1.602v19.907c-1.088-1.958-2.547-3.501-4.376-4.628
	c-1.83-1.127-4.001-1.691-6.512-1.691c-3.798,0-6.764,1.498-8.9,4.495c-2.136,2.997-3.204,7.037-3.204,12.119V127.574z
	 M532.678,126.951c0-4.45,0.885-8.064,2.655-10.844c1.77-2.779,4.356-4.168,7.758-4.168c3.066,0,5.459,0.777,7.18,2.329
	c1.721,1.553,2.967,3.476,3.738,5.771v15.042c-0.83,2.116-2.171,3.807-4.02,5.073c-1.85,1.266-4.168,1.899-6.958,1.899
	c-3.402,0-5.978-1.305-7.729-3.916c-1.75-2.611-2.625-6.131-2.625-10.562V126.951z M567.746,110.93h-1.602v32.101h1.602V110.93z
	 M567.746,96.749h-1.602v4.094h1.602V96.749z M575.756,127.604c0,4.727,1.306,8.584,3.916,11.571
	c2.611,2.987,6.003,4.48,10.176,4.48c4.134,0,7.501-1.493,10.102-4.48c2.601-2.986,3.901-6.843,3.901-11.571v-1.246
	c0-4.707-1.301-8.554-3.901-11.541c-2.601-2.987-5.988-4.48-10.161-4.48c-4.154,0-7.531,1.494-10.132,4.48
	c-2.601,2.987-3.901,6.834-3.901,11.541V127.604z M577.359,126.357c0-3.936,1.128-7.323,3.382-10.161
	c2.255-2.838,5.271-4.257,9.049-4.257c3.758,0,6.774,1.42,9.049,4.257c2.274,2.838,3.412,6.226,3.412,10.161v1.246
	c0,4.015-1.127,7.427-3.382,10.235c-2.255,2.809-5.261,4.213-9.019,4.213c-3.817,0-6.853-1.399-9.108-4.198
	c-2.255-2.799-3.382-6.215-3.382-10.25V126.357z M284.406,74.9h1.751l-16.169-43.197h-1.958L251.89,74.9h1.75l4.806-12.906h21.124
	L284.406,74.9z M268.118,36.064l0.801-2.433h0.178l0.831,2.433l9.049,24.328H259.04L268.118,36.064z M294.256,28.617h-1.602V74.9
	h1.602V28.617z M306.777,42.799h-1.602V74.9h1.602V42.799z M306.777,28.617h-1.602v4.094h1.602V28.617z M319.593,69.901
	c-1.939-2.68-2.907-6.156-2.907-10.429v-1.246c0-4.232,0.969-7.694,2.907-10.384c1.938-2.69,4.786-4.035,8.544-4.035
	c2.868,0,5.311,0.836,7.328,2.507c2.017,1.672,3.026,4.079,3.026,7.224h1.365l0.059-0.178c0.079-3.54-1.034-6.284-3.338-8.233
	c-2.304-1.948-5.118-2.922-8.441-2.922c-4.074,0-7.269,1.474-9.583,4.421c-2.314,2.947-3.471,6.814-3.471,11.6v1.246
	c0,4.806,1.162,8.683,3.486,11.63c2.324,2.947,5.533,4.421,9.628,4.421c3.125,0,5.879-0.934,8.262-2.804
	c2.383-1.869,3.535-4.376,3.456-7.521l-0.059-0.178h-1.365c0,2.967-1.038,5.192-3.115,6.675c-2.077,1.484-4.47,2.225-7.18,2.225
	C324.4,73.921,321.531,72.581,319.593,69.901z M365.475,74.44c1.81-0.722,3.348-1.785,4.613-3.189l-0.86-1.246
	c-1.147,1.306-2.527,2.285-4.139,2.937c-1.612,0.653-3.615,0.979-6.008,0.979c-3.363,0-6.181-1.34-8.456-4.02
	s-3.412-5.959-3.412-9.835v-1.899v-0.386h24.061v-2.462c0-3.995-1.142-7.18-3.427-9.553c-2.285-2.373-5.237-3.56-8.856-3.56
	c-3.778,0-6.953,1.509-9.524,4.524c-2.571,3.017-3.857,6.829-3.857,11.437v1.899c0,4.391,1.33,8.065,3.99,11.022
	c2.66,2.957,5.819,4.435,9.479,4.435C361.534,75.523,363.665,75.162,365.475,74.44z M366.707,47.056
	c1.978,2.166,2.967,4.88,2.967,8.144v0.979h-22.133l-0.089-0.178c0.277-3.481,1.473-6.384,3.59-8.708
	c2.116-2.324,4.766-3.486,7.951-3.486C362.157,43.807,364.729,44.89,366.707,47.056z M408.213,74.9c4.015,0,7.244-1.038,9.686-3.115
	c2.443-2.077,3.664-5.003,3.664-8.782c0-2.611-0.92-4.915-2.759-6.913c-1.839-1.997-4.104-3.175-6.794-3.531
	c2.413-0.435,4.282-1.532,5.607-3.293c1.325-1.76,1.988-3.926,1.988-6.498c0-3.698-1.236-6.468-3.708-8.307
	c-2.473-1.839-5.944-2.759-10.413-2.759H394.12V74.9H408.213z M408.509,53.568c3.619,0,6.433,0.92,8.441,2.759
	c2.007,1.839,3.011,4.084,3.011,6.735c0,3.224-1.049,5.736-3.145,7.536c-2.097,1.8-4.965,2.7-8.604,2.7h-12.49V53.568H408.509z
	 M395.722,33.305h9.761c4.113,0,7.224,0.786,9.33,2.358c2.106,1.573,3.16,3.901,3.16,6.987c0,3.145-0.999,5.484-2.996,7.017
	c-1.998,1.533-4.965,2.299-8.9,2.299h-10.354V33.305z M431.917,28.617h-1.602V74.9h1.602V28.617z M462.594,69.47
	c0,0.811,0.045,1.568,0.134,2.27c0.089,0.702,0.262,1.755,0.519,3.16h1.78c-0.297-1.048-0.51-2.106-0.638-3.174
	c-0.129-1.068-0.193-2.166-0.193-3.293v-16.08c0-3.283-1.038-5.795-3.115-7.536c-2.077-1.74-4.836-2.611-8.277-2.611
	c-3.382,0-6.102,0.866-8.159,2.596c-2.057,1.731-3.026,3.842-2.907,6.334l0.059,0.148l1.335,0.059c0-2.215,0.885-4.025,2.655-5.429
	c1.77-1.404,4.109-2.107,7.017-2.107c3.105,0,5.513,0.747,7.224,2.24c1.711,1.494,2.566,3.575,2.566,6.245v4.688h-9.167
	c-3.817,0-6.997,0.91-9.538,2.729c-2.542,1.82-3.812,4.074-3.812,6.764c0,2.77,0.85,4.97,2.551,6.601
	c1.701,1.632,4.045,2.447,7.031,2.447c3.125,0,5.785-0.608,7.981-1.824c2.196-1.217,3.847-2.794,4.955-4.732V69.47z M443.859,71.888
	c-1.454-1.374-2.18-3.14-2.18-5.296c0-2.255,1.142-4.149,3.427-5.682c2.284-1.533,5.088-2.299,8.411-2.299h9.078v7.21
	c-1.028,2.611-2.645,4.618-4.851,6.023c-2.206,1.405-4.9,2.106-8.085,2.106C447.246,73.95,445.313,73.263,443.859,71.888z
	 M495.615,74.9h1.869l0.06-0.148l-15.843-17.326l14.715-14.449l-0.059-0.178h-1.869l-14.597,14.093h-3.768V28.617h-1.602V74.9h1.602
	V58.493h4.391L495.615,74.9z M520.018,74.44c1.81-0.722,3.347-1.785,4.613-3.189l-0.861-1.246c-1.147,1.306-2.527,2.285-4.139,2.937
	c-1.612,0.653-3.615,0.979-6.008,0.979c-3.363,0-6.181-1.34-8.456-4.02s-3.412-5.959-3.412-9.835v-1.899v-0.386h24.061v-2.462
	c0-3.995-1.142-7.18-3.427-9.553c-2.284-2.373-5.237-3.56-8.856-3.56c-3.778,0-6.953,1.509-9.524,4.524
	c-2.571,3.017-3.857,6.829-3.857,11.437v1.899c0,4.391,1.33,8.065,3.99,11.022c2.66,2.957,5.819,4.435,9.479,4.435
	C516.076,75.523,518.208,75.162,520.018,74.44z M521.249,47.056c1.978,2.166,2.967,4.88,2.967,8.144v0.979h-22.133l-0.089-0.178
	c0.277-3.481,1.473-6.384,3.59-8.708c2.116-2.324,4.766-3.486,7.951-3.486C516.699,43.807,519.271,44.89,521.249,47.056z"/>
<path fill="#FFFFFF" d="M177.455,23.635c0.904,0,1.695,0.339,2.374,1.017c0.678,0.678,1.017,1.469,1.017,2.374
	c0,1.808-0.753,2.939-2.26,3.391L12.659,96.199l19.215,7.46c1.208-0.6,4.221-1.883,9.042-3.843
	c4.825-1.957,10.738-4.369,17.745-7.234c7.008-2.861,14.771-5.952,23.284-9.268C90.462,80,99.091,76.61,107.829,73.141
	c8.742-3.465,17.258-6.817,25.545-10.059c8.29-3.239,15.676-6.104,22.154-8.59c6.481-2.486,11.72-4.482,15.711-5.991
	c3.995-1.505,6.068-2.26,6.216-2.26c1.661,0,2.713,0.756,3.165,2.26c0,0.304,0.039,0.53,0.113,0.678
	c0.078,0.152,0.113,0.378,0.113,0.678c0,1.508-0.753,2.564-2.26,3.165l-136.99,54.254l136.991,52.672
	c1.508,0.604,2.26,1.734,2.26,3.391c0,0.304-0.035,0.491-0.113,0.565c-0.074,0.078-0.113,0.265-0.113,0.565
	c-0.452,1.508-1.583,2.261-3.391,2.261c-0.148,0-2.635-0.904-7.46-2.713c-4.822-1.809-11.077-4.182-18.763-7.121
	c-7.686-2.939-16.502-6.33-26.449-10.173c-9.946-3.843-20.155-7.76-30.631-11.755c-10.472-3.991-20.832-7.986-31.082-11.981
	c-10.247-3.992-19.628-7.608-28.144-10.851c-8.513-3.239-15.672-5.991-21.476-8.251c-5.8-2.26-9.53-3.691-11.19-4.295
	C0.678,98.99,0,97.859,0,96.199c0-1.657,0.678-2.713,2.034-3.165c1.66-0.6,5.39-2.07,11.19-4.408
	c5.803-2.335,12.963-5.16,21.476-8.477c8.516-3.313,17.897-7.043,28.144-11.19c10.25-4.143,20.61-8.286,31.082-12.433
	c10.476-4.143,20.685-8.212,30.631-12.207c9.947-3.991,18.802-7.495,26.562-10.511c7.764-3.013,14.055-5.461,18.876-7.347
	C174.82,24.578,177.307,23.635,177.455,23.635z M195.551,130.486c0,6.951-1.323,13.488-3.96,19.605
	c-2.641,6.12-6.223,11.445-10.748,15.978c-4.526,4.533-9.843,8.122-15.953,10.766c-6.11,2.645-12.636,3.963-19.573,3.963H95.082
	c-1.209,0-2.076-0.449-2.602-1.354c-0.531-0.905-0.792-1.885-0.792-2.938V7.015H76.752v170.619c0,1.057-0.417,1.888-1.244,2.489
	c-0.831,0.601-1.697,0.901-2.602,0.901c-0.905,0-1.736-0.339-2.489-1.018c-0.757-0.679-1.131-1.471-1.131-2.376V3.394
	c0-2.263,1.206-3.394,3.62-3.394h68.111c6.032,0,11.728,1.131,17.084,3.387c5.353,2.259,9.992,5.385,13.917,9.373
	c3.921,3.992,7.05,8.623,9.391,13.891c2.337,5.272,3.507,10.918,3.507,16.939c0,8.284-2.15,15.928-6.449,22.929
	s-10.296,12.308-17.989,15.921c5.126,1.662,9.879,4.08,14.256,7.251c4.374,3.175,8.068,6.877,11.088,11.106
	c3.016,4.232,5.392,8.878,7.128,13.937C194.681,119.798,195.551,125.049,195.551,130.486z M177.901,43.672
	c0-5.099-0.983-9.857-2.942-14.28c-1.962-4.423-4.603-8.284-7.92-11.583c-3.32-3.295-7.206-5.918-11.654-7.87
	c-4.452-1.948-9.242-2.924-14.368-2.924H98.25v73.088h42.767c4.978,0,9.73-0.972,14.256-2.924c4.526-1.948,8.447-4.571,11.767-7.87
	c3.317-3.295,5.957-7.156,7.92-11.58C176.918,53.307,177.901,48.622,177.901,43.672z M188.536,130.564
	c0-5.883-1.131-11.463-3.394-16.745c-2.263-5.279-5.356-9.879-9.277-13.803c-3.925-3.921-8.525-7.015-13.803-9.277
	c-5.282-2.263-10.862-3.394-16.745-3.394c-0.605,0-0.983-0.074-1.131-0.226H98.25v86.892h47.066c6.032,0,11.654-1.131,16.858-3.394
	c5.205-2.263,9.765-5.353,13.69-9.277c3.921-3.921,7.015-8.521,9.277-13.803C187.405,142.256,188.536,136.599,188.536,130.564z"/>
</svg>
