<?xml version="1.0" encoding="UTF-8" standalone="no"?>
<svg width="335px" height="200px" viewBox="0 0 335 200" version="1.1" xmlns="http://www.w3.org/2000/svg" xmlns:xlink="http://www.w3.org/1999/xlink" xmlns:sketch="http://www.bohemiancoding.com/sketch/ns">
    <!-- Generator: Sketch 3.1 (8751) - http://www.bohemiancoding.com/sketch -->
    <title>content</title>
    <desc>Created with Sketch.</desc>
    <defs></defs>
    <g id="Page-1" stroke="none" stroke-width="1" fill="none" fill-rule="evenodd" sketch:type="MSPage">
        <g id="blake-project" sketch:type="MSArtboardGroup" transform="translate(-421.000000, -127.000000)" fill="#FFFFFF">
            <g id="content" sketch:type="MSLayerGroup" transform="translate(422.000000, 122.000000)">
                <g id="logo-notext" transform="translate(187.567568, 5.000000)" sketch:type="MSShapeGroup">
                    <g id="Page-1">
                        <g id="vacuum6">
                            <path d="M130.432443,5.02818702 C119.158124,-1.5680597 103.616232,-1.84599917 89.879643,4.30444363 C77.1692259,9.99807504 68.0069753,22.5438776 62.5910673,31.9718047 C60.1532297,31.3691438 57.5443636,32.5441949 56.4123169,34.9355752 C55.3291351,37.222384 55.9616699,39.8751925 57.7642576,41.4602732 C57.270175,42.574783 56.9688386,43.3232932 56.8548195,43.614992 L30.5489799,102.18592 C27.896678,100.947576 24.7367195,102.051079 23.4282143,104.72315 C22.0952765,107.444755 23.1893171,110.747006 25.8741959,112.10093 L26.0533688,112.191741 L20.1352336,125.375979 L5.42948189,125.375979 C2.43240788,125.375979 0,127.84166 0,130.879731 C0,133.917802 2.43240788,136.383483 5.42948189,136.383483 L32.5768913,136.383483 C35.5739654,136.383483 38.0063731,133.917802 38.0063731,130.879731 C38.0063731,127.84166 35.5739654,125.375979 32.5768913,125.375979 L32.0665201,125.375979 L35.8318657,116.991013 C36.3286634,117.136863 36.8308905,117.23593 37.3331175,117.23593 C39.328452,117.23593 41.2504887,116.115917 42.200648,114.181348 C43.4439993,111.644118 42.5589938,108.62531 40.2623229,107.12829 L67.5210368,46.4356648 C68.2567314,46.7796495 69.0250032,46.9502658 69.7878453,46.9502658 C71.8103274,46.9502658 73.7513672,45.7999815 74.6852382,43.8268864 C75.9285895,41.2043486 74.9187057,38.0947288 72.4591504,36.6802644 C77.1040724,28.7466062 84.5397476,18.7325294 94.272094,14.3735579 C104.734706,9.68711306 116.799014,9.75866184 125.005676,14.5606854 C131.040545,18.0913423 134.507269,23.7079212 135.316262,31.2590688 C136.831088,45.4009596 135.547015,54.883924 131.510196,59.4492863 C131.138276,59.8703233 130.72835,60.2308191 130.31028,60.5720518 L130.31028,72.8922005 C133.654841,71.7474201 136.866379,69.8788965 139.591979,66.799547 C145.86846,59.7134666 147.999532,47.6987759 146.112787,30.0730102 C144.945448,19.1508146 139.3748,10.2567514 130.432443,5.02818702 L130.432443,5.02818702 L130.432443,5.02818702 Z" id="Shape"></path>
                            <path d="M114.969279,97.8572195 C118.512016,97.8572195 121.862006,98.6745266 124.878083,100.099998 L124.878083,74.1745748 L124.878083,63.007462 L124.878083,56.5790797 C124.878083,53.5382569 125.163131,53.8272037 122.163342,53.8272037 L111.529702,53.8272037 C108.529913,53.8272037 78.2741256,56.3506739 70.2819282,96.398725 L65.1537827,129.503793 C65.1537827,132.544616 67.5834758,136.383483 70.5832644,136.383483 L96.3488709,136.383483 C93.2486367,132.335474 91.3836096,127.272022 91.3836096,121.765518 C91.3836096,108.58128 101.96567,97.8572195 114.969279,97.8572195 L114.969279,97.8572195 L114.969279,97.8572195 Z" id="Shape"></path>
                            <path d="M127.592824,108.567521 C126.759399,107.750214 125.852675,107.012711 124.878083,106.36602 C122.024891,104.472729 118.62332,103.360971 114.969279,103.360971 C104.957314,103.360971 96.8130914,111.616599 96.8130914,121.765518 C96.8130914,127.726081 99.6364221,133.020691 103.985437,136.383483 C105.500263,137.555782 107.196976,138.488668 109.029426,139.135359 C110.894453,139.793057 112.887073,140.167313 114.969279,140.167313 C117.051485,140.167313 119.044105,139.793057 120.909132,139.135359 C122.831169,138.458398 124.609324,137.46497 126.178444,136.212867 C127.655263,135.035064 128.955624,133.639863 130.011658,132.060286 C131.977131,129.118531 133.128181,125.574114 133.128181,121.762766 C133.128181,118.157809 132.085721,114.803272 130.312995,111.963336 C129.533864,110.724992 128.627141,109.582963 127.592824,108.567521 L127.592824,108.567521 L127.592824,108.567521 Z M114.969279,112.532974 C119.996979,112.532974 124.07452,116.666292 124.07452,121.762766 C124.07452,126.85924 119.996979,130.992558 114.969279,130.992558 C109.941579,130.992558 105.864038,126.85924 105.864038,121.762766 C105.864038,116.666292 109.938864,112.532974 114.969279,112.532974 L114.969279,112.532974 L114.969279,112.532974 Z" id="Shape"></path>
                        </g>
                    </g>
                </g>
                <path d="M0.68142015,203.269171 L9.20642015,203.269171 L9.20642015,202.294886 L1.80184872,202.294886 L1.80184872,187.217814 L0.68142015,187.217814 L0.68142015,203.269171 Z M30.444563,196.814528 L31.467563,193.8186 C32.1252059,191.918743 32.6854201,190.2381 33.2456344,188.265171 L33.343063,188.265171 C33.9032773,190.2381 34.4634916,191.918743 35.1211344,193.8186 L36.1441344,196.814528 L30.444563,196.814528 Z M38.3362773,203.269171 L39.5054201,203.269171 L33.854563,187.217814 L32.7341344,187.217814 L27.0832773,203.269171 L28.2037059,203.269171 L30.103563,197.764457 L36.4607773,197.764457 L38.3362773,203.269171 Z M59.0629201,203.269171 L60.1346344,203.269171 L60.1346344,193.3071 C60.1346344,191.748243 60.0372059,190.286814 59.9884916,188.752314 L60.0859201,188.752314 L61.8883487,191.9431 L68.6596344,203.269171 L69.8287773,203.269171 L69.8287773,187.217814 L68.757063,187.217814 L68.757063,197.0581 C68.757063,198.616957 68.8544916,200.175814 68.9032059,201.734671 L68.8057773,201.734671 L67.0033487,198.543886 L60.232063,187.217814 L59.0629201,187.217814 L59.0629201,203.269171 Z M91.554063,203.269171 L95.305063,203.269171 C100.225206,203.269171 102.563492,200.054028 102.563492,195.1826 C102.563492,190.335528 100.225206,187.217814 95.2807059,187.217814 L91.554063,187.217814 L91.554063,203.269171 Z M92.6744916,202.319243 L92.6744916,188.167743 L95.1589201,188.167743 C99.5188487,188.167743 101.394349,191.017528 101.394349,195.1826 C101.394349,199.372028 99.5188487,202.319243 95.1589201,202.319243 L92.6744916,202.319243 Z M123.265777,203.269171 L124.386206,203.269171 L124.386206,187.217814 L123.265777,187.217814 L123.265777,203.269171 Z M146.111492,203.269171 L147.183206,203.269171 L147.183206,193.3071 C147.183206,191.748243 147.085777,190.286814 147.037063,188.752314 L147.134492,188.752314 L148.93692,191.9431 L155.708206,203.269171 L156.877349,203.269171 L156.877349,187.217814 L155.805634,187.217814 L155.805634,197.0581 C155.805634,198.616957 155.903063,200.175814 155.951777,201.734671 L155.854349,201.734671 L154.05192,198.543886 L147.280634,187.217814 L146.111492,187.217814 L146.111492,203.269171 Z M184.472706,203.561457 C186.56742,203.561457 188.223706,202.806386 189.222349,201.734671 L189.222349,195.377457 L184.302206,195.377457 L184.302206,196.327386 L188.150634,196.327386 L188.150634,201.3206 C187.371206,202.100028 186.007206,202.538457 184.545777,202.538457 C180.892206,202.538457 178.748777,199.664314 178.748777,195.206957 C178.748777,190.7496 181.013992,187.948528 184.69192,187.948528 C186.445634,187.948528 187.566063,188.7036 188.394206,189.604814 L189.051849,188.849743 C188.199349,187.948528 186.835349,186.925528 184.667563,186.925528 C180.42942,186.925528 177.579634,190.116314 177.579634,195.206957 C177.579634,200.321957 180.331992,203.561457 184.472706,203.561457 L184.472706,203.561457 Z M232.210134,203.269171 L233.330563,203.269171 L233.330563,196.3761 L236.350849,196.3761 C239.931349,196.3761 242.074777,194.8416 242.074777,191.699528 C242.074777,188.386957 239.882634,187.217814 236.25342,187.217814 L232.210134,187.217814 L232.210134,203.269171 Z M233.330563,195.426171 L233.330563,188.167743 L235.985492,188.167743 C239.298063,188.167743 240.929992,188.995886 240.929992,191.699528 C240.929992,194.3301 239.346777,195.426171 236.08292,195.426171 L233.330563,195.426171 Z M262.557849,196.814528 L263.580849,193.8186 C264.238492,191.918743 264.798706,190.2381 265.35892,188.265171 L265.456349,188.265171 C266.016563,190.2381 266.576777,191.918743 267.23442,193.8186 L268.25742,196.814528 L262.557849,196.814528 Z M270.449563,203.269171 L271.618706,203.269171 L265.967849,187.217814 L264.84742,187.217814 L259.196563,203.269171 L260.316992,203.269171 L262.216849,197.764457 L268.574063,197.764457 L270.449563,203.269171 Z M296.802706,203.561457 C298.89742,203.561457 300.553706,202.806386 301.552349,201.734671 L301.552349,195.377457 L296.632206,195.377457 L296.632206,196.327386 L300.480634,196.327386 L300.480634,201.3206 C299.701206,202.100028 298.337206,202.538457 296.875777,202.538457 C293.222206,202.538457 291.078777,199.664314 291.078777,195.206957 C291.078777,190.7496 293.343992,187.948528 297.02192,187.948528 C298.775634,187.948528 299.896063,188.7036 300.724206,189.604814 L301.381849,188.849743 C300.529349,187.948528 299.165349,186.925528 296.997563,186.925528 C292.75942,186.925528 289.909634,190.116314 289.909634,195.206957 C289.909634,200.321957 292.661992,203.561457 296.802706,203.561457 L296.802706,203.561457 Z M322.668706,203.269171 L331.705206,203.269171 L331.705206,202.294886 L323.789134,202.294886 L323.789134,195.231314 L330.21942,195.231314 L330.21942,194.257028 L323.789134,194.257028 L323.789134,188.1921 L331.461634,188.1921 L331.461634,187.217814 L322.668706,187.217814 L322.668706,203.269171 Z" id="Landing-page" sketch:type="MSShapeGroup"></path>
                <path d="M1.14945055,137.353591 L29.0205714,137.353591 L29.0205714,135.071745 L3.75727473,135.071745 L3.75727473,83.5672175 L1.14945055,83.5672175 L1.14945055,137.353591 Z M39.3109451,137.353591 L41.7557802,137.353591 L41.7557802,98.3992175 L39.3109451,98.3992175 L39.3109451,137.353591 Z M40.6148571,88.4568879 C42.0817582,88.4568879 43.3856703,87.3159648 43.3856703,85.6860747 C43.3856703,83.8931956 42.0817582,82.9152615 40.6148571,82.9152615 C39.147956,82.9152615 37.844044,83.8931956 37.844044,85.6860747 C37.844044,87.3159648 39.147956,88.4568879 40.6148571,88.4568879 L40.6148571,88.4568879 Z M70.9528791,156.423305 C81.8731429,156.423305 88.8816703,149.903745 88.8816703,143.384185 C88.8816703,137.353591 84.9699341,134.582778 76.3315165,134.582778 L67.6930989,134.582778 C61.6625055,134.582778 60.0326154,132.137943 60.0326154,129.204141 C60.0326154,126.433327 61.6625055,124.640448 63.4553846,123.173547 C65.2482637,124.31447 67.8560879,124.966426 70.1379341,124.966426 C77.6354286,124.966426 83.503033,118.935833 83.503033,111.11236 C83.503033,106.711657 81.5471648,102.96291 78.7763516,100.681064 L88.2297143,100.681064 L88.2297143,98.3992175 L75.1905934,98.3992175 C74.0496703,97.9102505 72.2567912,97.4212835 70.1379341,97.4212835 C62.6404396,97.4212835 56.7728352,103.288888 56.7728352,111.11236 C56.7728352,115.839042 59.2176703,119.750778 61.6625055,121.869635 L61.6625055,122.195613 C60.0326154,123.336536 57.4247912,125.781371 57.4247912,129.36713 C57.4247912,132.300932 58.8916923,134.419789 60.8475604,135.560712 L60.8475604,135.88669 C57.2618022,138.494514 54.979956,142.080272 54.979956,145.503042 C54.979956,152.022602 61.0105495,156.423305 70.9528791,156.423305 L70.9528791,156.423305 Z M70.1379341,122.68458 C64.4333187,122.68458 59.3806593,117.957899 59.3806593,111.11236 C59.3806593,104.103833 64.2703297,99.7031296 70.1379341,99.7031296 C76.0055385,99.7031296 80.8952088,104.185327 80.8952088,111.11236 C80.8952088,117.957899 75.8425495,122.68458 70.1379341,122.68458 L70.1379341,122.68458 Z M71.1158681,154.141459 C62.4774505,154.141459 57.5877802,150.555701 57.5877802,145.340053 C57.5877802,142.406251 59.2176703,139.14647 63.1294066,136.538646 C65.2482637,137.027613 67.3671209,137.190602 67.8560879,137.190602 L76.8204835,137.190602 C83.0140659,137.190602 86.2738462,138.983481 86.2738462,143.547174 C86.2738462,148.762822 80.4062418,154.141459 71.1158681,154.141459 L71.1158681,154.141459 Z M98.5200879,137.353591 L100.964923,137.353591 L100.964923,107.526602 C106.017582,102.310954 109.603341,99.7031296 114.493011,99.7031296 C121.17556,99.7031296 123.946374,103.940844 123.946374,112.579261 L123.946374,137.353591 L126.391209,137.353591 L126.391209,112.253283 C126.391209,102.147965 122.642462,97.4212835 114.656,97.4212835 C109.277363,97.4212835 105.202637,100.518075 100.964923,104.755789 L100.964923,78.5145582 L98.5200879,78.5145582 L98.5200879,137.353591 Z M152.002549,138.331525 C153.306462,138.331525 155.751297,137.679569 158.033143,136.864624 L157.218198,134.745767 C155.751297,135.397723 153.63244,136.049679 152.165538,136.049679 C146.460923,136.049679 145.32,132.463921 145.32,127.411261 L145.32,100.681064 L156.89222,100.681064 L156.89222,98.3992175 L145.32,98.3992175 L145.32,86.9899868 L143.201143,86.9899868 L142.875165,98.3992175 L136.681582,98.7251956 L136.681582,100.681064 L142.875165,100.681064 L142.875165,127.085283 C142.875165,133.767833 144.831033,138.331525 152.002549,138.331525 L152.002549,138.331525 Z" id="Light" sketch:type="MSShapeGroup"></path>
                <path d="M22.7941964,61.4165361 C29.976425,61.4165361 34.8202535,58.4100218 38.9959678,53.5661932 L37.3256821,51.8959075 C33.1499678,56.5727075 28.807225,58.9111075 22.961225,58.9111075 C10.6011107,58.9111075 2.9177964,48.5553361 2.9177964,32.6876218 C2.9177964,16.8199075 10.6011107,6.79819321 23.2952821,6.79819321 C28.4731678,6.79819321 32.6488821,9.13659321 35.6553964,12.6441932 L37.3256821,10.8068789 C34.4861964,7.4663075 29.6423678,4.29276464 23.2952821,4.29276464 C9.26488211,4.29276464 0.078310681,15.3166504 0.078310681,32.6876218 C0.078310681,50.0585932 9.26488211,61.4165361 22.7941964,61.4165361 L22.7941964,61.4165361 Z M57.4459289,61.4165361 C58.4481004,61.4165361 58.9491861,61.2495075 59.6173004,61.0824789 L59.1162146,58.9111075 C58.2810718,59.0781361 57.9470146,59.0781361 57.6129575,59.0781361 C56.6107861,59.0781361 55.9426718,58.2429932 55.9426718,56.5727075 L55.9426718,0.117050355 L53.4372432,0.117050355 L53.4372432,56.0716218 C53.4372432,59.9132789 54.9405004,61.4165361 57.4459289,61.4165361 L57.4459289,61.4165361 Z M90.4273758,61.4165361 C96.4404043,61.4165361 99.7809758,59.4121932 102.78749,57.5748789 L101.61829,55.4035075 C98.6117758,57.5748789 95.1041758,59.0781361 90.5944043,59.0781361 C81.0737758,59.0781361 74.8937186,51.2277932 74.8937186,40.5379646 L104.290747,40.5379646 C104.457776,39.5357932 104.457776,38.7006504 104.457776,37.8655075 C104.457776,26.0064789 98.6117758,19.4923646 89.4252043,19.4923646 C80.57269,19.4923646 72.2212615,27.5097361 72.2212615,40.5379646 C72.2212615,53.5661932 80.4056615,61.4165361 90.4273758,61.4165361 L90.4273758,61.4165361 Z M74.8937186,38.1995646 C75.7288615,28.0108218 82.2429758,21.8307646 89.4252043,21.8307646 C96.94149,21.8307646 101.952347,27.1756789 101.952347,38.1995646 L74.8937186,38.1995646 Z M125.914251,61.4165361 C131.259165,61.4165361 136.270023,58.4100218 140.445737,55.0694504 L140.612765,55.0694504 L140.946823,60.4143646 L143.118194,60.4143646 L143.118194,34.5249361 C143.118194,26.5075646 140.278708,19.4923646 130.925108,19.4923646 C124.410994,19.4923646 118.899051,22.8329361 116.393623,24.6702504 L117.729851,26.6745932 C120.23528,24.6702504 125.079108,21.8307646 130.75808,21.8307646 C139.109508,21.8307646 140.779794,29.0129932 140.612765,35.5271075 C122.57368,37.5314504 114.38928,41.7071646 114.38928,50.6431932 C114.38928,58.2429932 119.734194,61.4165361 125.914251,61.4165361 L125.914251,61.4165361 Z M126.08128,59.0781361 C121.237451,59.0781361 117.061737,56.7397361 117.061737,50.5596789 C117.061737,43.7115075 123.074765,39.7028218 140.612765,37.6984789 L140.612765,52.2299646 C135.267851,56.7397361 130.925108,59.0781361 126.08128,59.0781361 L126.08128,59.0781361 Z M161.067069,60.4143646 L163.572498,60.4143646 L163.572498,29.8481361 C168.750384,24.5032218 172.425012,21.8307646 177.435869,21.8307646 C184.284041,21.8307646 187.123527,26.1735075 187.123527,35.0260218 L187.123527,60.4143646 L189.628955,60.4143646 L189.628955,34.6919646 C189.628955,24.3361932 185.787298,19.4923646 177.602898,19.4923646 C172.090955,19.4923646 167.915241,22.6659075 163.739527,26.8416218 L163.572498,26.8416218 L163.238441,20.4945361 L161.067069,20.4945361 L161.067069,60.4143646 Z" id="Clean" sketch:type="MSShapeGroup"></path>
            </g>
        </g>
    </g>
</svg>