<?xml version="1.0" encoding="utf-8"?>
<!-- Generator: Adobe Illustrator 17.0.0, SVG Export Plug-In . SVG Version: 6.00 Build 0)  -->
<!DOCTYPE svg PUBLIC "-//W3C//DTD SVG 1.1//EN" "http://www.w3.org/Graphics/SVG/1.1/DTD/svg11.dtd">
<svg version="1.1" id="Слой_1" xmlns="http://www.w3.org/2000/svg" xmlns:xlink="http://www.w3.org/1999/xlink" x="0px" y="0px"
	 width="269.473px" height="323.853px" viewBox="0 0 269.473 323.853" enable-background="new 0 0 269.473 323.853"
	 xml:space="preserve">
<g>
	<path fill="#FFFFFF" d="M9.161,322.553H1.213v-7.15h7.503v-1.072H1.213v-6.306h7.948v-1.072H0.05v16.671h9.111V322.553z"/>
	<path fill="#FFFFFF" d="M30.935,317.787v-0.935h-5.416v0.935H30.935z"/>
	<path fill="#FFFFFF" d="M59.187,308.676l0.467-1.049c-1.285-0.608-2.74-0.912-4.367-0.912c-1.596,0-2.997,0.351-4.202,1.055
		c-1.205,0.703-2.128,1.701-2.771,2.993c-0.642,1.293-0.963,2.786-0.963,4.481c0,2.714,0.673,4.827,2.018,6.34
		c1.346,1.513,3.189,2.269,5.53,2.269c1.65,0,3.026-0.194,4.128-0.581v-1.026c-1.171,0.357-2.456,0.536-3.854,0.536
		c-2.106,0-3.725-0.657-4.857-1.973c-1.133-1.315-1.699-3.162-1.699-5.542c0-2.326,0.6-4.158,1.802-5.496
		c1.201-1.338,2.847-2.007,4.937-2.007C56.693,307.764,57.97,308.068,59.187,308.676L59.187,308.676z"/>
	<path fill="#FFFFFF" d="M88.681,308.989c-1.315-1.532-3.136-2.298-5.462-2.298c-2.311,0-4.133,0.762-5.468,2.286
		c-1.334,1.524-2.001,3.613-2.001,6.266c0,2.661,0.662,4.761,1.984,6.3c1.323,1.539,3.143,2.309,5.462,2.309
		c2.326,0,4.151-0.77,5.474-2.309c1.323-1.539,1.984-3.632,1.984-6.277C90.653,312.614,89.996,310.521,88.681,308.989z
		 M78.629,309.759c1.075-1.292,2.605-1.938,4.59-1.938c1.992,0,3.518,0.64,4.578,1.921c1.06,1.281,1.59,3.123,1.59,5.525
		c0,2.41-0.53,4.261-1.59,5.553c-1.061,1.293-2.595,1.938-4.601,1.938c-1.992,0-3.52-0.652-4.584-1.955
		c-1.065-1.303-1.597-3.149-1.597-5.536C77.015,312.887,77.553,311.052,78.629,309.759z"/>
	<path fill="#FFFFFF" d="M116.453,323.625l6.238-15.371h0.091c-0.091,0.943-0.137,1.855-0.137,2.737v12.634h1.174v-16.671h-1.756
		l-5.906,14.664h-0.069l-5.907-14.664h-1.802v16.671h1.117v-12.497c0-0.988-0.03-1.954-0.091-2.897h0.091l6.215,15.394H116.453z"/>
	<path fill="#FFFFFF" d="M150.497,323.625l6.237-15.371h0.091c-0.091,0.943-0.137,1.855-0.137,2.737v12.634h1.175v-16.671h-1.756
		l-5.907,14.664h-0.068l-5.906-14.664h-1.802v16.671h1.117v-12.497c0-0.988-0.03-1.954-0.091-2.897h0.091l6.215,15.394H150.497z"/>
	<path fill="#FFFFFF" d="M185.579,322.553h-7.947v-7.15h7.503v-1.072h-7.503v-6.306h7.947v-1.072h-9.111v16.671h9.111V322.553z"/>
	<path fill="#FFFFFF" d="M208.551,316.362l4.299,7.264h1.391l-4.527-7.594c1.201-0.334,2.096-0.885,2.685-1.653
		c0.589-0.768,0.884-1.71,0.884-2.828c0-1.535-0.494-2.686-1.483-3.45c-0.988-0.764-2.516-1.146-4.584-1.146h-3.968v16.671h1.163
		v-7.264H208.551z M204.411,308.003h2.76c1.718,0,2.957,0.289,3.717,0.867c0.76,0.578,1.14,1.501,1.14,2.771
		c0,1.224-0.388,2.149-1.163,2.777c-0.775,0.627-1.866,0.941-3.273,0.941h-3.181V308.003z"/>
	<path fill="#FFFFFF" d="M241.967,308.676l0.467-1.049c-1.285-0.608-2.74-0.912-4.367-0.912c-1.597,0-2.997,0.351-4.202,1.055
		c-1.205,0.703-2.129,1.701-2.771,2.993c-0.642,1.293-0.963,2.786-0.963,4.481c0,2.714,0.673,4.827,2.018,6.34
		c1.346,1.513,3.189,2.269,5.53,2.269c1.65,0,3.026-0.194,4.128-0.581v-1.026c-1.171,0.357-2.456,0.536-3.854,0.536
		c-2.106,0-3.725-0.657-4.858-1.973c-1.133-1.315-1.699-3.162-1.699-5.542c0-2.326,0.6-4.158,1.802-5.496
		c1.201-1.338,2.847-2.007,4.937-2.007C239.474,307.764,240.751,308.068,241.967,308.676L241.967,308.676z"/>
	<path fill="#FFFFFF" d="M268.531,322.553h-7.948v-7.15h7.503v-1.072h-7.503v-6.306h7.948v-1.072h-9.111v16.671h9.111V322.553z"/>
	<path fill="#FFFFFF" d="M21.802,278.171v-5.93c-1.318,0.649-2.63,1.196-3.938,1.642c-1.307,0.446-2.711,0.669-4.211,0.669
		c-2.007,0-3.578-0.608-4.713-1.825s-1.703-2.949-1.703-5.2c0-4.581,1.014-8.428,3.041-11.54c2.027-3.111,4.561-4.668,7.602-4.668
		c2.007,0,4.247,0.538,6.72,1.612l2.129-5.595c-2.697-1.236-5.707-1.855-9.031-1.855c-3.426,0-6.487,0.968-9.183,2.904
		c-2.697,1.936-4.789,4.622-6.279,8.058C0.745,259.88,0,263.696,0,267.893c0,3.994,1.094,7.065,3.284,9.214
		c2.189,2.149,5.27,3.223,9.244,3.223C15.873,280.329,18.964,279.61,21.802,278.171L21.802,278.171z"/>
	<path fill="#FFFFFF" d="M50.537,266.57c-0.811,2.484-1.946,4.414-3.406,5.793c-1.46,1.379-3.101,2.068-4.926,2.068
		c-1.966,0-3.451-0.597-4.455-1.794c-1.003-1.196-1.505-2.919-1.505-5.169c0-2.818,0.41-5.468,1.231-7.952
		c0.821-2.483,1.976-4.45,3.466-5.899c1.49-1.449,3.178-2.174,5.063-2.174c1.845,0,3.264,0.613,4.257,1.839
		c0.993,1.227,1.49,2.925,1.49,5.093C51.754,261.355,51.348,264.087,50.537,266.57z M55.615,249.07
		c-2.23-2.351-5.321-3.527-9.274-3.527c-3.426,0-6.446,0.938-9.061,2.812c-2.615,1.875-4.648,4.495-6.097,7.86
		c-1.45,3.366-2.174,7.065-2.174,11.099c0,3.994,1.145,7.151,3.436,9.472c2.291,2.321,5.382,3.482,9.274,3.482
		c3.365,0,6.34-0.897,8.925-2.691c2.584-1.794,4.617-4.368,6.097-7.724c1.479-3.355,2.22-7.079,2.22-11.174
		C58.96,254.625,57.845,251.422,55.615,249.07z"/>
	<path fill="#FFFFFF" d="M66.775,291.975c1.845-1.804,3.173-4.622,3.984-8.453l6.781-32.019h6.964l1.125-5.412h-6.964l0.547-2.615
		c0.446-1.987,1.089-3.416,1.931-4.288c0.841-0.871,1.961-1.307,3.36-1.307c1.257,0,2.635,0.284,4.135,0.852l1.855-5.352
		c-1.946-0.871-4.085-1.307-6.416-1.307c-3.365,0-5.965,0.847-7.8,2.539c-1.835,1.693-3.198,4.546-4.09,8.56l-0.638,2.797
		l-5.899,2.311l-0.639,3.223h5.443l-6.598,31.077c-0.872,4.155-2.665,6.233-5.382,6.233c-1.014,0-2.169-0.203-3.466-0.608v5.778
		c1.196,0.466,2.706,0.699,4.531,0.699C62.518,294.682,64.93,293.779,66.775,291.975z"/>
	<path fill="#FFFFFF" d="M88.121,291.975c1.845-1.804,3.173-4.622,3.983-8.453l6.781-32.019h6.964l1.125-5.412h-6.963l0.547-2.615
		c0.446-1.987,1.089-3.416,1.931-4.288c0.841-0.871,1.961-1.307,3.36-1.307c1.257,0,2.635,0.284,4.135,0.852l1.855-5.352
		c-1.946-0.871-4.085-1.307-6.416-1.307c-3.365,0-5.965,0.847-7.8,2.539c-1.835,1.693-3.198,4.546-4.09,8.56l-0.638,2.797
		l-5.899,2.311l-0.638,3.223h5.443l-6.598,31.077c-0.872,4.155-2.665,6.233-5.382,6.233c-1.014,0-2.169-0.203-3.466-0.608v5.778
		c1.196,0.466,2.706,0.699,4.531,0.699C83.864,294.682,86.277,293.779,88.121,291.975z"/>
	<path fill="#FFFFFF" d="M127.621,251.822c0.649,0.578,0.973,1.384,0.973,2.417c0,1.987-1.075,3.523-3.223,4.607
		c-2.149,1.085-5.129,1.627-8.94,1.627h-0.882c0.75-2.858,1.981-5.159,3.694-6.902c1.713-1.743,3.542-2.615,5.488-2.615
		C126.009,250.956,126.972,251.245,127.621,251.822z M125.569,279.767c1.632-0.375,3.421-1.008,5.367-1.901v-5.686
		c-1.967,0.933-3.67,1.592-5.108,1.976c-1.44,0.385-2.889,0.578-4.348,0.578c-2.271,0-3.979-0.639-5.124-1.916
		c-1.145-1.277-1.718-3.041-1.718-5.291v-0.882l0.061-0.943h1.308c6.243,0,11.053-1.038,14.428-3.116
		c3.375-2.078,5.063-4.961,5.063-8.651c0-2.696-0.908-4.779-2.722-6.249c-1.814-1.469-4.353-2.205-7.617-2.205
		c-3.325,0-6.33,0.943-9.016,2.828c-2.686,1.885-4.815,4.556-6.386,8.012c-1.571,3.456-2.357,7.191-2.357,11.205
		c0,4.034,1.12,7.176,3.36,9.426c2.24,2.25,5.356,3.375,9.35,3.375C122.117,280.329,123.937,280.142,125.569,279.767z"/>
	<path fill="#FFFFFF" d="M160.309,251.822c0.648,0.578,0.973,1.384,0.973,2.417c0,1.987-1.075,3.523-3.224,4.607
		c-2.149,1.085-5.129,1.627-8.94,1.627h-0.882c0.75-2.858,1.981-5.159,3.694-6.902c1.713-1.743,3.543-2.615,5.489-2.615
		C158.698,250.956,159.66,251.245,160.309,251.822z M158.257,279.767c1.632-0.375,3.421-1.008,5.367-1.901v-5.686
		c-1.966,0.933-3.669,1.592-5.108,1.976c-1.439,0.385-2.889,0.578-4.348,0.578c-2.27,0-3.979-0.639-5.124-1.916
		c-1.145-1.277-1.718-3.041-1.718-5.291v-0.882l0.061-0.943h1.308c6.243,0,11.053-1.038,14.428-3.116s5.063-4.961,5.063-8.651
		c0-2.696-0.908-4.779-2.721-6.249c-1.815-1.469-4.353-2.205-7.617-2.205c-3.325,0-6.33,0.943-9.016,2.828
		c-2.686,1.885-4.815,4.556-6.386,8.012c-1.571,3.456-2.357,7.191-2.357,11.205c0,4.034,1.12,7.176,3.36,9.426
		c2.24,2.25,5.357,3.375,9.351,3.375C154.805,280.329,156.625,280.142,158.257,279.767z"/>
	<path fill="#FFFFFF" d="M198.866,273.427h-18.914v-0.243l9.457-8.028c4.054-3.466,6.933-6.188,8.636-8.164
		c1.703-1.977,2.95-3.907,3.74-5.793s1.186-3.923,1.186-6.112c0-3.203-1.085-5.747-3.253-7.633
		c-2.169-1.885-5.089-2.828-8.757-2.828c-2.372,0-4.683,0.421-6.933,1.262c-2.25,0.841-4.592,2.245-7.024,4.211l3.497,4.865
		c2.047-1.601,3.77-2.706,5.169-3.314c1.399-0.608,2.807-0.912,4.227-0.912c1.825,0,3.239,0.502,4.242,1.505s1.505,2.367,1.505,4.09
		c0,1.419-0.284,2.752-0.852,3.998c-0.567,1.247-1.485,2.6-2.752,4.06c-1.267,1.46-3.685,3.801-7.252,7.024l-14.322,12.832
		l-1.094,5.474h28.249L198.866,273.427z"/>
	<path fill="#FFFFFF" d="M227.328,246.09c-1.622-0.406-3.244-0.608-4.865-0.608c-4.075,0-7.354,1.216-9.837,3.649
		c-2.484,2.433-3.725,5.636-3.725,9.609c0,3.466,1.368,6.02,4.105,7.663c-2.027,0.953-3.512,1.941-4.455,2.965
		c-0.943,1.024-1.414,2.235-1.414,3.634c0,1.663,0.77,2.95,2.311,3.862c-3.122,1.054-5.387,2.342-6.796,3.862
		c-1.409,1.52-2.113,3.324-2.113,5.412c0,2.656,1.13,4.744,3.39,6.264s5.448,2.28,9.563,2.28c5.635,0,9.984-1.084,13.045-3.253
		c3.061-2.17,4.592-5.24,4.592-9.214c0-2.473-0.771-4.373-2.311-5.701c-1.541-1.328-4.095-2.215-7.663-2.661l-3.862-0.487
		c-1.216-0.162-2.144-0.385-2.783-0.669c-0.638-0.284-0.958-0.81-0.958-1.581c0-1.297,1.125-2.352,3.375-3.162
		c0.811,0.162,1.743,0.243,2.798,0.243c4.054,0,7.287-1.151,9.7-3.452c2.412-2.3,3.619-5.407,3.619-9.32
		c0-1.601-0.284-2.99-0.852-4.166l5.838-1.003l0.943-4.166H227.328z M218.236,279.6c2.291,0.243,3.892,0.658,4.804,1.247
		c0.912,0.588,1.368,1.398,1.368,2.433c0,2.047-0.933,3.618-2.797,4.713c-1.866,1.094-4.45,1.642-7.754,1.642
		c-2.311,0-4.029-0.391-5.154-1.171c-1.125-0.781-1.688-1.83-1.688-3.147c0-1.581,0.608-2.909,1.824-3.983
		c1.216-1.075,2.96-1.794,5.23-2.159L218.236,279.6z M226.324,254.574c0,1.642-0.269,3.152-0.806,4.53
		c-0.538,1.379-1.288,2.463-2.25,3.254c-0.963,0.79-2.103,1.186-3.421,1.186c-1.338,0-2.367-0.39-3.086-1.171
		c-0.72-0.78-1.08-1.89-1.08-3.33c0-1.601,0.274-3.076,0.821-4.424c0.547-1.348,1.318-2.412,2.311-3.193
		c0.993-0.78,2.148-1.171,3.466-1.171C224.976,250.256,226.324,251.696,226.324,254.574L226.324,254.574z"/>
	<path fill="#FFFFFF" d="M261.05,266.57c-0.811,2.484-1.946,4.414-3.406,5.793c-1.46,1.379-3.102,2.068-4.926,2.068
		c-1.966,0-3.451-0.597-4.455-1.794c-1.003-1.196-1.505-2.919-1.505-5.169c0-2.818,0.411-5.468,1.231-7.952
		c0.821-2.483,1.976-4.45,3.466-5.899c1.49-1.449,3.178-2.174,5.063-2.174c1.845,0,3.264,0.613,4.257,1.839
		c0.993,1.227,1.49,2.925,1.49,5.093C262.266,261.355,261.86,264.087,261.05,266.57z M266.128,249.07
		c-2.23-2.351-5.321-3.527-9.275-3.527c-3.426,0-6.446,0.938-9.061,2.812c-2.615,1.875-4.648,4.495-6.097,7.86
		c-1.449,3.366-2.174,7.065-2.174,11.099c0,3.994,1.145,7.151,3.436,9.472c2.291,2.321,5.382,3.482,9.274,3.482
		c3.365,0,6.34-0.897,8.925-2.691c2.585-1.794,4.617-4.368,6.097-7.724c1.479-3.355,2.22-7.079,2.22-11.174
		C269.473,254.625,268.358,251.422,266.128,249.07z"/>
</g>
<g>
	<path fill="#FFFFFF" d="M203.788,90.429c-6.578-0.774-13.043-2.238-19.766-2.094c-15.077,0.323-27.507,9.451-31.792,23.817
		c-3.141,10.532,1.208,18.815,12.06,20.742c14.419,2.561,29.012,4.136,43.518,6.826c-12.308,0-24.615,0-37.937,0
		c11.62,10.522,23.968,14.839,38.673,11.72c-3.738,2.198-8.154,1.284-11.637,4.506c3.835,3.27,8.855,3.414,14.106,6.71
		c-13.092-2.121-23.506-7.511-35.121-11.675c0.9,7.46,4.676,11.958,12.348,15.512c-7.136-0.969-11.53-3.729-13.398-8.533
		c-4.119-10.594-14.006-13.093-22.542-17.961c-2.899,15.329,2.641,25.536,16.387,30.866c9.027,3.5,18.4,6.132,26.833,11.308
		c-4.721-1.4-9.426-2.859-14.169-4.184c-4.965-1.387-9.966-2.646-15.47-3.386c10.02,9.257,12.002,23.551,22.649,33.535
		c-7.061-2.229-10.792-6.224-12.848-12.128c-0.504-1.449-1.045-3.545-3.095-3.406c-1.997,0.136-2.133,2.294-2.658,3.737
		c-1.728,4.742-2.12,9.598-0.35,14.547c-3.363-4.683-3.996-10.102-2.388-14.949c3.612-10.889-3.967-15.136-11.404-21.449
		c-0.572,6.928,1.087,12.783-0.808,18.509c1.013-19.359-15.59-32.923-15.753-53.86c-5.259,7.652-5.997,14.344-7.405,20.784
		c-0.352,1.611-0.082,3.381-0.56,4.936c-3.327,10.824,0.176,19.38,8.423,26.524c1.162,1.007,2.561,2.073,2.65,4.656
		c-3.489-2.997-6.378-6.005-9.781-8.224c-2.424-1.581-3.995-7.118-8.488-2.676c-3.398,3.36-7.908,5.645-4.115,12.115
		c6.195,10.567,5.652,22.573,5.369,35.079c-3.21-7.053-1.719-14.151-3.393-20.765c-1.41-5.57-2.474-13.715-7.048-14.574
		c-5.104-0.958-7.871,6.949-10.907,11.582c-2.184,3.334-3.47,7.259-6.957,9.815c2.25-4.574,4.698-9.06,5.997-14.038
		c-3.125-1.122-4.849,2.188-9.636,1.248c11.46-4.236,17.758-12.073,24.568-19.513c5.661-6.184,6.068-13.056,5.064-20.537
		c-0.461-3.441-2.198-3.783-4.865-1.806c-3.656,2.709-6.126,6.506-10.124,10.987c1.975-6.584,4.781-10.917,8.787-14.463
		c6.715-5.945,8.091-9.538,7.225-19.717c-7.736,0.335-10.316,6.223-12.695,12.296c-2.09-1.709,0.805-3.916-0.959-5.255
		c-13.882,3.366-11.186,15.544-13.193,25.694c-1.662-2.386-0.379-4.328-0.69-6.176c-0.34-2.02-0.434-4.08-0.697-6.748
		c-7.062,3.83-11,8.09-10.048,16.39c0.91,7.935,0.348,16.081-4.501,23.205c1.609-7.714,2.499-15.429,1.671-23.316
		c-0.519-4.944-2.112-6.935-7.029-4.106c-3.25,1.87-6.673,3.439-10.69,4.441c15.126-8.79,27.732-20.156,37.229-35.313
		c-8.372,0.922-16.318,3.199-23.577,6.708c-7.139,3.451-10.569,12.067-20.332,15.829c4.658-4.862,9.153-7.571,11.226-12.453
		c-4.25-1.711-7.986,2.005-12.476,0.224c10.302-3.653,20.606-6.086,31.569-12.138c-10.193,0-18.537,0-26.882,0
		c0.01-0.151,0.02-0.301,0.031-0.452c13.141-1.708,26.303-3.275,39.419-5.163c12.756-1.837,20.981-9.97,25.636-21.196
		c6.05-14.59-7.015-28.598-24.454-26.857c-7.373,0.736-14.23,3.47-21.218,5.717c-6.983,2.246-13.984,4.504-21.104,6.235
		c-8.678,2.109-14.248-0.664-18.345-8.889c6.327-0.459,12.219-0.184,17.9,2.17c0.923,0.382,2.629,0.854,1.802,2.283
		c-0.431,0.745-2.019,0.82-4.622,1.743c7.329,0.763,12.099-1.577,17.154-4.578c-4.415-2.52-8.884-2.989-13.241-3.925
		C48.308,84.216,41.05,75.33,40.935,62.832c-0.04-4.362,0.244-7.241,5.695-3.745c5.974,3.831,12.526,6.797,17.726,11.764
		c3.486,3.33,6.073,7.255,6.828,12.421c-3.617,1.607-6.507-2.056-11.403-1.303c8.398,4.778,16.089,7.214,24.101,4.027
		c15.684-6.238,31.305-11.058,48.595-4.738c-11.292-3.896-15.21-15.135-23.542-21.711c-5.597-4.417-10.847-8.224-18.594-9.121
		C76.267,48.799,69.724,39.09,70.843,23.281c9.537,6.469,22.163,8.298,26.236,22.235c-2.409-0.967-4.13-1.658-5.85-2.349
		c11.772,9.293,24.894,16.15,37.529,26.059c-0.15-15.228,3.659-28.529,7.377-42.478c-3.056,1.424-2.587,4.341-4.87,6.225
		c-7.4-13.806,1.377-23.124,8.274-32.971c7.68,13.076,6.837,26.288-2.647,37.44c-4.795,5.638-3.979,12.405-4.341,18.886
		c-0.577,10.334,1.432,19.764,10.202,26.74c3.1,2.466,5.079,3.069,7.026-0.939c3.312-6.817,9.905-11.548,12.116-19.113
		c0.81-2.771,1.571-4.687-1.23-7.407c-4.387-4.262-2.844-10.811,3.307-18.59c3.871,3.496,4.418,7.94,4.597,12.806
		c0.179,4.864-6.172,7.594-3.774,13.263c4.838-3.182,9.567-6.24,14.212-9.418c0.508-0.348,1.744-0.116,1.381-1.763
		c-1.911-8.661-0.096-12.862,7.417-16.816c4.572-2.406,9.387-4.35,14.145-6.526c1.799,16.533-3.921,24.457-19.523,27.084
		c-1.9,0.32-3.709,0.539-5.244,1.844c-11.638,9.898-20.15,21.814-23.703,37.286c3.258-7.235,10.319-7.826,16.38-10.082
		c9.277-3.452,18.541-6.911,26.948-12.308c-2.143-2.668-5.429,2.76-6.628-1.203c-0.894-2.953,1.466-5.324,3.46-7.395
		c3.931-4.085,9.169-5.783,14.323-7.528c5.068-1.716,10.225-3.168,15.466-4.774c-2.005,16.965-12.08,26.641-28.217,27.05
		c-4.065,0.103-7.155,1.513-10.18,4.701c6.074,3.499,13.7,2.163,18.629,7.339L203.788,90.429z"/>
	<path fill="#FFFFFF" d="M165.025,12.876c-0.593,7.312-1.131,13.684-5.123,19.368c-2.36,3.36-6.169,4.394-8.868,3.391
		c-2.451-0.911-2.066-5.097-1.518-8.088C151.061,19.122,158.028,16.597,165.025,12.876z"/>
	<path fill="#FFFFFF" d="M183.303,95.176c12.005-2.512,20.647,1.067,26.154,11.442c-10.209,3.868-16.251,1.167-19.979-8.509
		C188.681,96.039,186.085,95.909,183.303,95.176z"/>
	<path fill="#FFFFFF" d="M93.685,75.093c-18.53,2.7-25.22-0.642-27.268-14.518c5.298,2.118,10.356,3.715,14.948,6.182
		c1.857,0.998,6.78,2.146,2.745,6.52c-1.076,1.167,0.81,1.073,1.426,1.14C88.244,74.713,90.967,74.879,93.685,75.093z"/>
	<path fill="#FFFFFF" d="M120.385,54.9c-8.121-5.989-11.317-13.891-5.683-24.668C121.026,38.046,125.666,45.591,120.385,54.9z"/>
	<path fill="#FFFFFF" d="M102.491,32.259c-1.696,1.002,0.109,3.174-1.309,4.313c-5.766-3.728-6.662-7.293-4.476-18.799
		c6.239,2.962,10.058,8.235,9.601,14.306c-0.544,7.217,0.514,13.703,3.248,20.231C103.956,46.664,105.534,38.687,102.491,32.259z"/>
	<path fill="#FFFFFF" d="M203.661,90.579c7.667-6.696,16.146-5.203,24.879-2.643c-6.43,9.384-11.436,9.847-24.739,2.477
		C203.788,90.429,203.661,90.579,203.661,90.579z"/>
	<path fill="#FFFFFF" d="M142.811,46.483c4.638,5.594,9.244,10.223,6.696,17.495c-0.287,0.82-1.692,2.634-1.787,2.129
		c-0.858-4.554-3.934,3.134-5.646-1.404C139.775,58.611,140.284,53.273,142.811,46.483z"/>
	<path fill="#FFFFFF" d="M72.968,110.769c0.812-4.975,2.212-8.86,5.373-11.98c2.441-2.409,5.764-2.208,7.835-0.748
		c2.543,1.793,0.618,4.841-0.717,6.871C82.752,109.025,78.17,109.789,72.968,110.769z"/>
	<path fill="#FFFFFF" d="M182.285,17.594c1.547,9.277-2.165,15.418-8.958,19.426C171.711,29.169,172.22,21.587,182.285,17.594z"/>
	<path fill="#FFFFFF" d="M113.639,6.654c5.106,5.411,9.916,9.963,5.832,17.785C112.56,20.504,111.385,14.756,113.639,6.654z"/>
	<path fill="#FFFFFF" d="M87.723,58.643c5.908,1.269,11.304,1.639,13.482,7.401c0.833,2.205,0.762,4.664-3.009,3.754
		C92.673,68.464,89.139,65.21,87.723,58.643z"/>
	<path fill="#FFFFFF" d="M186.521,62.107c-0.678,6.014-3.277,9.421-8.087,11.159c-1.684,0.608-3.592,1.946-4.872-0.464
		c-1.018-1.916-0.124-3.633,1.229-5.098C177.671,64.588,181.802,64.174,186.521,62.107z"/>
	<path fill="#FFFFFF" d="M73.37,54.709c-7.469,1.981-11.588-1.266-14.135-8.292C66.705,45.142,70.916,48.235,73.37,54.709z"/>
</g>
</svg>
