<?xml version="1.0" encoding="UTF-8" standalone="no"?>
<svg width="910px" height="198px" viewBox="0 0 910 198" version="1.1" xmlns="http://www.w3.org/2000/svg" xmlns:xlink="http://www.w3.org/1999/xlink" xmlns:sketch="http://www.bohemiancoding.com/sketch/ns">
    <!-- Generator: Sketch 3.1 (8751) - http://www.bohemiancoding.com/sketch -->
    <title>logo</title>
    <desc>Created with Sketch.</desc>
    <defs></defs>
    <g id="Page-1" stroke="none" stroke-width="1" fill="none" fill-rule="evenodd" sketch:type="MSPage">
        <g id="Desktop-HD" sketch:type="MSArtboardGroup" transform="translate(-63.000000, -138.000000)">
            <g id="logo" sketch:type="MSLayerGroup" transform="translate(63.000000, 139.000000)">
                <g id="heartbeat-line" transform="translate(-0.180505, 0.227273)" sketch:type="MSShapeGroup">
                    <path d="M219.335494,86.9455656 L221.559564,86.9455656 C222.113806,86.9455656 222.708983,86.5188401 222.884425,86.005626 L236.063781,47.4523521 C236.241239,46.9332378 236.450418,46.9487012 236.533924,47.5064485 L247.359219,119.810357 C247.441413,120.359348 247.620261,120.365465 247.754862,119.838975 L256.669662,84.9689096 C256.805976,84.4357235 257.372868,84.0034908 257.923205,84.0034908 L305.190144,84.0034908 C305.746143,84.0034908 306.269586,83.5688587 306.360578,83.0249827 L320.17487,0.455105794 C320.265283,-0.0853092978 320.357597,-0.0727444115 320.380478,0.469446278 L328.635407,196.075951 C328.658547,196.624286 328.740701,196.619157 328.818135,196.069936 L344.270604,86.4692656 C344.348381,85.9176087 344.86251,85.4704025 345.409426,85.4704025 L347.861817,85.4704025" id="peaks" stroke="#9EF7FF" stroke-width="2"></path>
                    <path d="M0.0331976224,85.9727242 L219.368692,87.9727242 L219.368692,85.9727242 L0.0331976224,85.9727242 Z" id="left-line" fill="#9EF7FF"></path>
                    <path d="M347.580499,84.3727334 L853.739332,86.3727334 L853.739332,84.3727334 L347.580499,84.3727334 Z" id="right-line" fill="#9EF7FF" transform="translate(600.659915, 85.372733) scale(-1, 1) translate(-600.659915, -85.372733) "></path>
                </g>
                <path d="M369.212796,58 L381.54613,58 C398.54613,58 406.212796,46.6666667 406.212796,30.3333333 C406.212796,14 398.54613,3 381.54613,3 L369.212796,3 L369.212796,58 Z M371.879463,55.6666667 L371.879463,5.33333333 L381.212796,5.33333333 C396.879463,5.33333333 403.379463,15.8333333 403.379463,30.3333333 C403.379463,44.8333333 396.879463,55.6666667 381.212796,55.6666667 L371.879463,55.6666667 Z M429.712796,58 L432.379463,58 L450.54613,3 L447.879463,3 L437.212796,36 C435.04613,42.8333333 433.54613,47.8333333 431.212796,54.5833333 L430.879463,54.5833333 C428.54613,47.8333333 427.04613,42.8333333 424.879463,36 L414.212796,3 L411.379463,3 L429.712796,58 Z M459.379463,58 L462.04613,58 L462.04613,3 L459.379463,3 L459.379463,58 Z M492.712796,59 C503.04613,59 509.879463,52.8333333 509.879463,44.5 C509.879463,36 504.29613,32.75 498.212796,30 L489.712796,26.1666667 C485.79613,24.4166667 480.04613,21.8333333 480.04613,15 C480.04613,8.66666667 485.212796,4.5 492.879463,4.5 C498.54613,4.5 503.04613,6.83333333 506.212796,10.3333333 L507.879463,8.5 C504.712796,5.08333333 499.54613,2 492.879463,2 C484.04613,2 477.379463,7.33333333 477.379463,15.1666667 C477.379463,23.3333333 483.879463,26.5833333 488.54613,28.6666667 L497.04613,32.5 C502.54613,35 507.212796,37.3333333 507.212796,44.6666667 C507.212796,51.6666667 501.54613,56.5 492.712796,56.5 C486.04613,56.5 480.212796,53.5 476.212796,48.8333333 L474.379463,50.6666667 C478.54613,55.5 484.54613,59 492.712796,59 L492.712796,59 Z M535.712796,59 C546.04613,59 552.879463,52.8333333 552.879463,44.5 C552.879463,36 547.29613,32.75 541.212796,30 L532.712796,26.1666667 C528.79613,24.4166667 523.04613,21.8333333 523.04613,15 C523.04613,8.66666667 528.212796,4.5 535.879463,4.5 C541.54613,4.5 546.04613,6.83333333 549.212796,10.3333333 L550.879463,8.5 C547.712796,5.08333333 542.54613,2 535.879463,2 C527.04613,2 520.379463,7.33333333 520.379463,15.1666667 C520.379463,23.3333333 526.879463,26.5833333 531.54613,28.6666667 L540.04613,32.5 C545.54613,35 550.212796,37.3333333 550.212796,44.6666667 C550.212796,51.6666667 544.54613,56.5 535.712796,56.5 C529.04613,56.5 523.212796,53.5 519.212796,48.8333333 L517.379463,50.6666667 C521.54613,55.5 527.54613,59 535.712796,59 L535.712796,59 Z" id="DVISS" fill="#FFFFFF" sketch:type="MSShapeGroup"></path>
                <path d="M386.213,122.796 C386.213,124.21734 386.000669,125.495661 385.576,126.631 C385.151331,127.766339 384.553337,128.732663 383.782,129.53 C383.010663,130.327337 382.085505,130.938331 381.0065,131.363 C379.927495,131.787669 378.738006,132 377.438,132 L370.717,132 L370.717,113.605 L377.438,113.605 C378.738006,113.605 379.927495,113.817331 381.0065,114.242 C382.085505,114.666669 383.010663,115.277663 383.782,116.075 C384.553337,116.872337 385.151331,117.838661 385.576,118.974 C386.000669,120.109339 386.213,121.383326 386.213,122.796 L386.213,122.796 Z M384.835,122.796 C384.835,121.513327 384.657335,120.369338 384.302,119.364 C383.946665,118.358662 383.444003,117.509337 382.794,116.816 C382.143997,116.122663 381.364005,115.594002 380.454,115.23 C379.543995,114.865998 378.538672,114.684 377.438,114.684 L372.056,114.684 L372.056,130.921 L377.438,130.921 C378.538672,130.921 379.543995,130.739002 380.454,130.375 C381.364005,130.010998 382.143997,129.482337 382.794,128.789 C383.444003,128.095663 383.946665,127.246338 384.302,126.241 C384.657335,125.235662 384.835,124.08734 384.835,122.796 L384.835,122.796 Z M391.816,132 L390.477,132 L390.477,113.605 L391.816,113.605 L391.816,132 Z M407.169,125.318 L403.425,116.023 C403.294999,115.719665 403.169334,115.355669 403.048,114.931 C402.996,115.139001 402.939667,115.336166 402.879,115.5225 C402.818333,115.708834 402.753334,115.879999 402.684,116.036 L398.94,125.318 L407.169,125.318 Z M411.238,132 L410.211,132 C410.089666,132 409.99,131.9675 409.912,131.9025 C409.834,131.8375 409.773334,131.753001 409.73,131.649 L407.572,126.306 L398.537,126.306 L396.379,131.649 C396.344333,131.744334 396.283667,131.826666 396.197,131.896 C396.110333,131.965334 396.006334,132 395.885,132 L394.871,132 L402.398,113.605 L403.711,113.605 L411.238,132 Z M428.58,123.654 L428.58,130.193 C427.661329,130.843003 426.682005,131.341332 425.642,131.688 C424.601995,132.034668 423.432006,132.208 422.132,132.208 C420.675993,132.208 419.367339,131.984836 418.206,131.5385 C417.044661,131.092164 416.054504,130.459504 415.2355,129.6405 C414.416496,128.821496 413.788169,127.831339 413.3505,126.67 C412.912831,125.508661 412.694,124.21734 412.694,122.796 C412.694,121.37466 412.908498,120.085506 413.3375,118.9285 C413.766502,117.771494 414.381829,116.783504 415.1835,115.9645 C415.985171,115.145496 416.953661,114.512836 418.089,114.0665 C419.224339,113.620164 420.50266,113.397 421.924,113.397 C422.626004,113.397 423.27383,113.444666 423.8675,113.54 C424.46117,113.635334 425.013664,113.776166 425.525,113.9625 C426.036336,114.148834 426.512998,114.378499 426.955,114.6515 C427.397002,114.924501 427.821665,115.238665 428.229,115.594 L427.865,116.166 C427.743666,116.374001 427.561668,116.421667 427.319,116.309 C427.188999,116.257 427.002668,116.135668 426.76,115.945 C426.517332,115.754332 426.183669,115.555001 425.759,115.347 C425.334331,115.138999 424.807836,114.952667 424.1795,114.788 C423.551164,114.623333 422.786338,114.541 421.885,114.541 C420.688994,114.541 419.607838,114.731665 418.6415,115.113 C417.675162,115.494335 416.851837,116.04033 416.1715,116.751 C415.491163,117.46167 414.966835,118.328328 414.5985,119.351 C414.230165,120.373672 414.046,121.521994 414.046,122.796 C414.046,124.08734 414.230165,125.248662 414.5985,126.28 C414.966835,127.311338 415.49983,128.186663 416.1975,128.906 C416.89517,129.625337 417.742328,130.175665 418.739,130.557 C419.735672,130.938335 420.857994,131.129 422.106,131.129 C422.652003,131.129 423.156831,131.094334 423.6205,131.025 C424.084169,130.955666 424.526165,130.858167 424.9465,130.7325 C425.366835,130.606833 425.774165,130.450834 426.1685,130.2645 C426.562835,130.078166 426.963665,129.868001 427.371,129.634 L427.371,124.681 L423.848,124.681 C423.752666,124.681 423.6725,124.650667 423.6075,124.59 C423.5425,124.529333 423.51,124.46 423.51,124.382 L423.51,123.654 L428.58,123.654 Z M447.196,113.605 L447.196,132 L446.572,132 C446.459333,132 446.366167,131.9805 446.2925,131.9415 C446.218833,131.9025 446.147334,131.835334 446.078,131.74 L434.131,115.776 C434.157,116.036001 434.17,116.282999 434.17,116.517 L434.17,132 L433,132 L433,113.605 L433.663,113.605 C433.784334,113.605 433.8775,113.620167 433.9425,113.6505 C434.0075,113.680833 434.079,113.747999 434.157,113.852 L446.078,129.777 C446.052,129.516999 446.039,129.270001 446.039,129.036 L446.039,113.605 L447.196,113.605 Z M468.971,122.796 C468.971,124.21734 468.758669,125.506494 468.334,126.6635 C467.909331,127.820506 467.311337,128.808496 466.54,129.6275 C465.768663,130.446504 464.843505,131.079164 463.7645,131.5255 C462.685495,131.971836 461.496007,132.195 460.196,132.195 C458.895994,132.195 457.708672,131.971836 456.634,131.5255 C455.559328,131.079164 454.636337,130.446504 453.865,129.6275 C453.093663,128.808496 452.495669,127.820506 452.071,126.6635 C451.646331,125.506494 451.434,124.21734 451.434,122.796 C451.434,121.383326 451.646331,120.098506 452.071,118.9415 C452.495669,117.784494 453.093663,116.796504 453.865,115.9775 C454.636337,115.158496 455.559328,114.523669 456.634,114.073 C457.708672,113.622331 458.895994,113.397 460.196,113.397 C461.496007,113.397 462.685495,113.620164 463.7645,114.0665 C464.843505,114.512836 465.768663,115.147663 466.54,115.971 C467.311337,116.794337 467.909331,117.784494 468.334,118.9415 C468.758669,120.098506 468.971,121.383326 468.971,122.796 L468.971,122.796 Z M467.593,122.796 C467.593,121.513327 467.415335,120.360672 467.06,119.338 C466.704665,118.315328 466.202003,117.44867 465.552,116.738 C464.901997,116.02733 464.122005,115.483502 463.212,115.1065 C462.301995,114.729498 461.296672,114.541 460.196,114.541 C459.103995,114.541 458.103005,114.729498 457.193,115.1065 C456.282995,115.483502 455.500837,116.02733 454.8465,116.738 C454.192163,117.44867 453.685168,118.315328 453.3255,119.338 C452.965832,120.360672 452.786,121.513327 452.786,122.796 C452.786,124.08734 452.965832,125.242162 453.3255,126.2605 C453.685168,127.278838 454.192163,128.14333 454.8465,128.854 C455.500837,129.56467 456.282995,130.106331 457.193,130.479 C458.103005,130.851669 459.103995,131.038 460.196,131.038 C461.296672,131.038 462.301995,130.851669 463.212,130.479 C464.122005,130.106331 464.901997,129.56467 465.552,128.854 C466.202003,128.14333 466.704665,127.278838 467.06,126.2605 C467.415335,125.242162 467.593,124.08734 467.593,122.796 L467.593,122.796 Z M482.14,115.841 C482.062,115.988334 481.949334,116.062 481.802,116.062 C481.689333,116.062 481.544168,115.981834 481.3665,115.8215 C481.188832,115.661166 480.948335,115.483501 480.645,115.2885 C480.341665,115.093499 479.962502,114.913667 479.5075,114.749 C479.052498,114.584333 478.491337,114.502 477.824,114.502 C477.156663,114.502 476.569503,114.597332 476.0625,114.788 C475.555497,114.978668 475.130835,115.238665 474.7885,115.568 C474.446165,115.897335 474.186168,116.278664 474.0085,116.712 C473.830832,117.145335 473.742,117.600331 473.742,118.077 C473.742,118.701003 473.874165,119.216665 474.1385,119.624 C474.402835,120.031335 474.751665,120.377999 475.185,120.664 C475.618336,120.950001 476.110164,121.190499 476.6605,121.3855 C477.210836,121.580501 477.77633,121.773332 478.357,121.964 C478.93767,122.154668 479.503164,122.364832 480.0535,122.5945 C480.603836,122.824168 481.095664,123.112332 481.529,123.459 C481.962335,123.805668 482.311165,124.232497 482.5755,124.7395 C482.839835,125.246503 482.972,125.876996 482.972,126.631 C482.972,127.402337 482.839835,128.128163 482.5755,128.8085 C482.311165,129.488837 481.927669,130.080331 481.425,130.583 C480.922331,131.085669 480.307004,131.482165 479.579,131.7725 C478.850996,132.062835 478.019005,132.208 477.083,132.208 C475.869661,132.208 474.825338,131.993502 473.95,131.5645 C473.074662,131.135498 472.30767,130.548337 471.649,129.803 L472.013,129.231 C472.117001,129.100999 472.238333,129.036 472.377,129.036 C472.455,129.036 472.554666,129.087999 472.676,129.192 C472.797334,129.296001 472.944666,129.423833 473.118,129.5755 C473.291334,129.727167 473.499332,129.891832 473.742,130.0695 C473.984668,130.247168 474.266332,130.411833 474.587,130.5635 C474.907668,130.715167 475.275998,130.842999 475.692,130.947 C476.108002,131.051001 476.580331,131.103 477.109,131.103 C477.837004,131.103 478.486997,130.992501 479.059,130.7715 C479.631003,130.550499 480.114165,130.249335 480.5085,129.868 C480.902835,129.486665 481.203999,129.033836 481.412,128.5095 C481.620001,127.985164 481.724,127.424003 481.724,126.826 C481.724,126.175997 481.591835,125.640835 481.3275,125.2205 C481.063165,124.800165 480.714336,124.449168 480.281,124.1675 C479.847665,123.885832 479.355836,123.649668 478.8055,123.459 C478.255164,123.268332 477.68967,123.082001 477.109,122.9 C476.52833,122.717999 475.962836,122.514334 475.4125,122.289 C474.862164,122.063666 474.370336,121.775502 473.937,121.4245 C473.503665,121.073498 473.154835,120.635836 472.8905,120.1115 C472.626165,119.587164 472.494,118.930671 472.494,118.142 C472.494,117.526664 472.610999,116.933003 472.845,116.361 C473.079001,115.788997 473.421331,115.284169 473.872,114.8465 C474.322669,114.408831 474.879497,114.057835 475.5425,113.7935 C476.205503,113.529165 476.961662,113.397 477.811,113.397 C478.764338,113.397 479.620163,113.548665 480.3785,113.852 C481.136837,114.155335 481.827997,114.618997 482.452,115.243 L482.14,115.841 Z M499.079,114.736 L492.618,114.736 L492.618,132 L491.279,132 L491.279,114.736 L484.779,114.736 L484.779,113.605 L499.079,113.605 L499.079,114.736 Z M503.512,132 L502.173,132 L502.173,113.605 L503.512,113.605 L503.512,132 Z M522.219,128.906 C522.305667,128.906 522.379333,128.936333 522.44,128.997 L522.96,129.556 C522.578665,129.963335 522.164836,130.329498 521.7185,130.6545 C521.272164,130.979502 520.782503,131.256832 520.2495,131.4865 C519.716497,131.716168 519.131503,131.893833 518.4945,132.0195 C517.857497,132.145167 517.15767,132.208 516.395,132.208 C515.120994,132.208 513.953172,131.984836 512.8915,131.5385 C511.829828,131.092164 510.91767,130.459504 510.155,129.6405 C509.39233,128.821496 508.800835,127.831339 508.3805,126.67 C507.960165,125.508661 507.75,124.21734 507.75,122.796 C507.75,121.40066 507.966664,120.126672 508.4,118.974 C508.833335,117.821328 509.439996,116.831171 510.22,116.0035 C511.000004,115.175829 511.935995,114.534502 513.028,114.0795 C514.120005,113.624498 515.32466,113.397 516.642,113.397 C517.898673,113.397 519.012328,113.591998 519.983,113.982 C520.953672,114.372002 521.837663,114.92233 522.635,115.633 L522.232,116.218 C522.162666,116.322001 522.054334,116.374 521.907,116.374 C521.802999,116.374 521.634001,116.278668 521.4,116.088 C521.165999,115.897332 520.841002,115.687168 520.425,115.4575 C520.008998,115.227832 519.49117,115.017668 518.8715,114.827 C518.25183,114.636332 517.508671,114.541 516.642,114.541 C515.532661,114.541 514.516505,114.731665 513.5935,115.113 C512.670495,115.494335 511.877503,116.04033 511.2145,116.751 C510.551497,117.46167 510.033669,118.328328 509.661,119.351 C509.288331,120.373672 509.102,121.521994 509.102,122.796 C509.102,124.096006 509.290498,125.257328 509.6675,126.28 C510.044502,127.302672 510.56233,128.167163 511.221,128.8735 C511.87967,129.579837 512.657496,130.121498 513.5545,130.4985 C514.451504,130.875502 515.419995,131.064 516.46,131.064 C517.11867,131.064 517.705831,131.020667 518.2215,130.934 C518.737169,130.847333 519.211664,130.717334 519.645,130.544 C520.078335,130.370666 520.481331,130.158335 520.854,129.907 C521.226669,129.655665 521.594998,129.361002 521.959,129.023 C522.002334,128.988333 522.045666,128.960167 522.089,128.9385 C522.132334,128.916833 522.175666,128.906 522.219,128.906 L522.219,128.906 Z M542.512,115.841 C542.434,115.988334 542.321334,116.062 542.174,116.062 C542.061333,116.062 541.916168,115.981834 541.7385,115.8215 C541.560832,115.661166 541.320335,115.483501 541.017,115.2885 C540.713665,115.093499 540.334502,114.913667 539.8795,114.749 C539.424498,114.584333 538.863337,114.502 538.196,114.502 C537.528663,114.502 536.941503,114.597332 536.4345,114.788 C535.927497,114.978668 535.502835,115.238665 535.1605,115.568 C534.818165,115.897335 534.558168,116.278664 534.3805,116.712 C534.202832,117.145335 534.114,117.600331 534.114,118.077 C534.114,118.701003 534.246165,119.216665 534.5105,119.624 C534.774835,120.031335 535.123665,120.377999 535.557,120.664 C535.990336,120.950001 536.482164,121.190499 537.0325,121.3855 C537.582836,121.580501 538.14833,121.773332 538.729,121.964 C539.30967,122.154668 539.875164,122.364832 540.4255,122.5945 C540.975836,122.824168 541.467664,123.112332 541.901,123.459 C542.334335,123.805668 542.683165,124.232497 542.9475,124.7395 C543.211835,125.246503 543.344,125.876996 543.344,126.631 C543.344,127.402337 543.211835,128.128163 542.9475,128.8085 C542.683165,129.488837 542.299669,130.080331 541.797,130.583 C541.294331,131.085669 540.679004,131.482165 539.951,131.7725 C539.222996,132.062835 538.391005,132.208 537.455,132.208 C536.241661,132.208 535.197338,131.993502 534.322,131.5645 C533.446662,131.135498 532.67967,130.548337 532.021,129.803 L532.385,129.231 C532.489001,129.100999 532.610333,129.036 532.749,129.036 C532.827,129.036 532.926666,129.087999 533.048,129.192 C533.169334,129.296001 533.316666,129.423833 533.49,129.5755 C533.663334,129.727167 533.871332,129.891832 534.114,130.0695 C534.356668,130.247168 534.638332,130.411833 534.959,130.5635 C535.279668,130.715167 535.647998,130.842999 536.064,130.947 C536.480002,131.051001 536.952331,131.103 537.481,131.103 C538.209004,131.103 538.858997,130.992501 539.431,130.7715 C540.003003,130.550499 540.486165,130.249335 540.8805,129.868 C541.274835,129.486665 541.575999,129.033836 541.784,128.5095 C541.992001,127.985164 542.096,127.424003 542.096,126.826 C542.096,126.175997 541.963835,125.640835 541.6995,125.2205 C541.435165,124.800165 541.086335,124.449168 540.653,124.1675 C540.219664,123.885832 539.727836,123.649668 539.1775,123.459 C538.627164,123.268332 538.06167,123.082001 537.481,122.9 C536.90033,122.717999 536.334836,122.514334 535.7845,122.289 C535.234164,122.063666 534.742335,121.775502 534.309,121.4245 C533.875664,121.073498 533.526835,120.635836 533.2625,120.1115 C532.998165,119.587164 532.866,118.930671 532.866,118.142 C532.866,117.526664 532.982999,116.933003 533.217,116.361 C533.451001,115.788997 533.793331,115.284169 534.244,114.8465 C534.694669,114.408831 535.251497,114.057835 535.9145,113.7935 C536.577503,113.529165 537.333662,113.397 538.183,113.397 C539.136338,113.397 539.992163,113.548665 540.7505,113.852 C541.508837,114.155335 542.199997,114.618997 542.824,115.243 L542.512,115.841 Z M552.86,124.421 L552.86,132 L551.534,132 L551.534,124.421 L544.722,113.605 L545.892,113.605 C546.013334,113.605 546.113,113.633166 546.191,113.6895 C546.269,113.745834 546.334,113.825999 546.386,113.93 L551.651,122.38 C551.763667,122.579334 551.867666,122.772166 551.963,122.9585 C552.058334,123.144834 552.140666,123.328999 552.21,123.511 C552.279334,123.328999 552.357333,123.144834 552.444,122.9585 C552.530667,122.772166 552.630333,122.579334 552.743,122.38 L558.008,113.93 C558.051334,113.834666 558.114166,113.756667 558.1965,113.696 C558.278834,113.635333 558.380666,113.605 558.502,113.605 L559.672,113.605 L552.86,124.421 Z M571.125,115.841 C571.047,115.988334 570.934334,116.062 570.787,116.062 C570.674333,116.062 570.529168,115.981834 570.3515,115.8215 C570.173832,115.661166 569.933335,115.483501 569.63,115.2885 C569.326665,115.093499 568.947502,114.913667 568.4925,114.749 C568.037498,114.584333 567.476337,114.502 566.809,114.502 C566.141663,114.502 565.554503,114.597332 565.0475,114.788 C564.540497,114.978668 564.115835,115.238665 563.7735,115.568 C563.431165,115.897335 563.171168,116.278664 562.9935,116.712 C562.815832,117.145335 562.727,117.600331 562.727,118.077 C562.727,118.701003 562.859165,119.216665 563.1235,119.624 C563.387835,120.031335 563.736664,120.377999 564.17,120.664 C564.603335,120.950001 565.095164,121.190499 565.6455,121.3855 C566.195836,121.580501 566.76133,121.773332 567.342,121.964 C567.92267,122.154668 568.488164,122.364832 569.0385,122.5945 C569.588836,122.824168 570.080665,123.112332 570.514,123.459 C570.947336,123.805668 571.296165,124.232497 571.5605,124.7395 C571.824835,125.246503 571.957,125.876996 571.957,126.631 C571.957,127.402337 571.824835,128.128163 571.5605,128.8085 C571.296165,129.488837 570.912669,130.080331 570.41,130.583 C569.907331,131.085669 569.292004,131.482165 568.564,131.7725 C567.835996,132.062835 567.004005,132.208 566.068,132.208 C564.854661,132.208 563.810338,131.993502 562.935,131.5645 C562.059662,131.135498 561.29267,130.548337 560.634,129.803 L560.998,129.231 C561.102001,129.100999 561.223333,129.036 561.362,129.036 C561.44,129.036 561.539666,129.087999 561.661,129.192 C561.782334,129.296001 561.929666,129.423833 562.103,129.5755 C562.276334,129.727167 562.484332,129.891832 562.727,130.0695 C562.969668,130.247168 563.251332,130.411833 563.572,130.5635 C563.892668,130.715167 564.260998,130.842999 564.677,130.947 C565.093002,131.051001 565.565331,131.103 566.094,131.103 C566.822004,131.103 567.471997,130.992501 568.044,130.7715 C568.616003,130.550499 569.099165,130.249335 569.4935,129.868 C569.887835,129.486665 570.188999,129.033836 570.397,128.5095 C570.605001,127.985164 570.709,127.424003 570.709,126.826 C570.709,126.175997 570.576835,125.640835 570.3125,125.2205 C570.048165,124.800165 569.699335,124.449168 569.266,124.1675 C568.832664,123.885832 568.340836,123.649668 567.7905,123.459 C567.240164,123.268332 566.67467,123.082001 566.094,122.9 C565.51333,122.717999 564.947836,122.514334 564.3975,122.289 C563.847164,122.063666 563.355335,121.775502 562.922,121.4245 C562.488664,121.073498 562.139835,120.635836 561.8755,120.1115 C561.611165,119.587164 561.479,118.930671 561.479,118.142 C561.479,117.526664 561.595999,116.933003 561.83,116.361 C562.064001,115.788997 562.406331,115.284169 562.857,114.8465 C563.307669,114.408831 563.864497,114.057835 564.5275,113.7935 C565.190503,113.529165 565.946662,113.397 566.796,113.397 C567.749338,113.397 568.605163,113.548665 569.3635,113.852 C570.121837,114.155335 570.812997,114.618997 571.437,115.243 L571.125,115.841 Z M588.064,114.736 L581.603,114.736 L581.603,132 L580.264,132 L580.264,114.736 L573.764,114.736 L573.764,113.605 L588.064,113.605 L588.064,114.736 Z M602.208,130.895 L602.182,132 L591.158,132 L591.158,113.605 L602.182,113.605 L602.182,114.71 L592.497,114.71 L592.497,122.146 L600.557,122.146 L600.557,123.225 L592.497,123.225 L592.497,130.895 L602.208,130.895 Z M624.412,113.605 L624.412,132 L623.255,132 L623.255,116.322 C623.255,116.096666 623.268,115.858335 623.294,115.607 L616.053,128.464 C615.931666,128.689334 615.758334,128.802 615.533,128.802 L615.325,128.802 C615.099666,128.802 614.926334,128.689334 614.805,128.464 L607.369,115.581 C607.395,115.841001 607.408,116.087999 607.408,116.322 L607.408,132 L606.238,132 L606.238,113.605 L607.161,113.605 C607.282334,113.605 607.377666,113.618 607.447,113.644 C607.516334,113.67 607.585666,113.739333 607.655,113.852 L615.078,126.644 C615.208001,126.886668 615.320666,127.146665 615.416,127.424 C615.468,127.285333 615.524333,127.148834 615.585,127.0145 C615.645667,126.880166 615.710666,126.752334 615.78,126.631 L622.995,113.852 C623.064334,113.739333 623.135833,113.67 623.2095,113.644 C623.283167,113.618 623.380666,113.605 623.502,113.605 L624.412,113.605 Z M653.246,122.796 C653.246,124.21734 653.033669,125.506494 652.609,126.6635 C652.184331,127.820506 651.586337,128.808496 650.815,129.6275 C650.043663,130.446504 649.118505,131.079164 648.0395,131.5255 C646.960495,131.971836 645.771006,132.195 644.471,132.195 C643.170994,132.195 641.983672,131.971836 640.909,131.5255 C639.834328,131.079164 638.911337,130.446504 638.14,129.6275 C637.368663,128.808496 636.770669,127.820506 636.346,126.6635 C635.921331,125.506494 635.709,124.21734 635.709,122.796 C635.709,121.383326 635.921331,120.098506 636.346,118.9415 C636.770669,117.784494 637.368663,116.796504 638.14,115.9775 C638.911337,115.158496 639.834328,114.523669 640.909,114.073 C641.983672,113.622331 643.170994,113.397 644.471,113.397 C645.771006,113.397 646.960495,113.620164 648.0395,114.0665 C649.118505,114.512836 650.043663,115.147663 650.815,115.971 C651.586337,116.794337 652.184331,117.784494 652.609,118.9415 C653.033669,120.098506 653.246,121.383326 653.246,122.796 L653.246,122.796 Z M651.868,122.796 C651.868,121.513327 651.690335,120.360672 651.335,119.338 C650.979665,118.315328 650.477003,117.44867 649.827,116.738 C649.176997,116.02733 648.397005,115.483502 647.487,115.1065 C646.576995,114.729498 645.571672,114.541 644.471,114.541 C643.378995,114.541 642.378005,114.729498 641.468,115.1065 C640.557995,115.483502 639.775837,116.02733 639.1215,116.738 C638.467163,117.44867 637.960168,118.315328 637.6005,119.338 C637.240832,120.360672 637.061,121.513327 637.061,122.796 C637.061,124.08734 637.240832,125.242162 637.6005,126.2605 C637.960168,127.278838 638.467163,128.14333 639.1215,128.854 C639.775837,129.56467 640.557995,130.106331 641.468,130.479 C642.378005,130.851669 643.378995,131.038 644.471,131.038 C645.571672,131.038 646.576995,130.851669 647.487,130.479 C648.397005,130.106331 649.176997,129.56467 649.827,128.854 C650.477003,128.14333 650.979665,127.278838 651.335,126.2605 C651.690335,125.242162 651.868,124.08734 651.868,122.796 L651.868,122.796 Z M658.823,114.71 L658.823,122.445 L667.208,122.445 L667.208,123.55 L658.823,123.55 L658.823,132 L657.484,132 L657.484,113.605 L668.508,113.605 L668.508,114.71 L658.823,114.71 Z M689.841,114.736 L683.38,114.736 L683.38,132 L682.041,132 L682.041,114.736 L675.541,114.736 L675.541,113.605 L689.841,113.605 L689.841,114.736 Z M707.131,113.605 L707.131,132 L705.792,132 L705.792,123.186 L694.274,123.186 L694.274,132 L692.935,132 L692.935,113.605 L694.274,113.605 L694.274,122.185 L705.792,122.185 L705.792,113.605 L707.131,113.605 Z M723.615,130.895 L723.589,132 L712.565,132 L712.565,113.605 L723.589,113.605 L723.589,114.71 L713.904,114.71 L713.904,122.146 L721.964,122.146 L721.964,123.225 L713.904,123.225 L713.904,130.895 L723.615,130.895 Z M383.99,167.906 C384.076667,167.906 384.150333,167.936333 384.211,167.997 L384.731,168.556 C384.349665,168.963335 383.935836,169.329498 383.4895,169.6545 C383.043164,169.979502 382.553503,170.256832 382.0205,170.4865 C381.487497,170.716168 380.902503,170.893833 380.2655,171.0195 C379.628497,171.145167 378.92867,171.208 378.166,171.208 C376.891994,171.208 375.724172,170.984836 374.6625,170.5385 C373.600828,170.092164 372.68867,169.459504 371.926,168.6405 C371.16333,167.821496 370.571835,166.831339 370.1515,165.67 C369.731165,164.508661 369.521,163.21734 369.521,161.796 C369.521,160.40066 369.737664,159.126672 370.171,157.974 C370.604335,156.821328 371.210996,155.831171 371.991,155.0035 C372.771004,154.175829 373.706995,153.534502 374.799,153.0795 C375.891005,152.624498 377.09566,152.397 378.413,152.397 C379.669673,152.397 380.783328,152.591998 381.754,152.982 C382.724672,153.372002 383.608663,153.92233 384.406,154.633 L384.003,155.218 C383.933666,155.322001 383.825334,155.374 383.678,155.374 C383.573999,155.374 383.405001,155.278668 383.171,155.088 C382.936999,154.897332 382.612002,154.687168 382.196,154.4575 C381.779998,154.227832 381.26217,154.017668 380.6425,153.827 C380.02283,153.636332 379.279671,153.541 378.413,153.541 C377.303661,153.541 376.287505,153.731665 375.3645,154.113 C374.441495,154.494335 373.648503,155.04033 372.9855,155.751 C372.322497,156.46167 371.804669,157.328328 371.432,158.351 C371.059331,159.373672 370.873,160.521994 370.873,161.796 C370.873,163.096006 371.061498,164.257328 371.4385,165.28 C371.815502,166.302672 372.33333,167.167163 372.992,167.8735 C373.65067,168.579837 374.428496,169.121498 375.3255,169.4985 C376.222504,169.875502 377.190995,170.064 378.231,170.064 C378.88967,170.064 379.476831,170.020667 379.9925,169.934 C380.508169,169.847333 380.982664,169.717334 381.416,169.544 C381.849335,169.370666 382.252331,169.158335 382.625,168.907 C382.997669,168.655665 383.365998,168.361002 383.73,168.023 C383.773334,167.988333 383.816666,167.960167 383.86,167.9385 C383.903334,167.916833 383.946666,167.906 383.99,167.906 L383.99,167.906 Z M398.212,164.318 L394.468,155.023 C394.337999,154.719665 394.212334,154.355669 394.091,153.931 C394.039,154.139001 393.982667,154.336166 393.922,154.5225 C393.861333,154.708834 393.796334,154.879999 393.727,155.036 L389.983,164.318 L398.212,164.318 Z M402.281,171 L401.254,171 C401.132666,171 401.033,170.9675 400.955,170.9025 C400.877,170.8375 400.816334,170.753001 400.773,170.649 L398.615,165.306 L389.58,165.306 L387.422,170.649 C387.387333,170.744334 387.326667,170.826666 387.24,170.896 C387.153333,170.965334 387.049334,171 386.928,171 L385.914,171 L393.441,152.605 L394.754,152.605 L402.281,171 Z M409.86,161.692 C410.674671,161.692 411.40483,161.594501 412.0505,161.3995 C412.69617,161.204499 413.242164,160.925002 413.6885,160.561 C414.134836,160.196998 414.474999,159.759336 414.709,159.248 C414.943001,158.736664 415.06,158.160337 415.06,157.519 C415.06,156.210327 414.633171,155.23967 413.7795,154.607 C412.925829,153.97433 411.680008,153.658 410.042,153.658 L406.675,153.658 L406.675,161.692 L409.86,161.692 Z M418.024,171 L416.88,171 C416.732666,171 416.609167,170.976167 416.5095,170.9285 C416.409833,170.880833 416.316667,170.792001 416.23,170.662 L410.328,163.2 C410.258666,163.104666 410.187167,163.022334 410.1135,162.953 C410.039833,162.883666 409.9575,162.8295 409.8665,162.7905 C409.7755,162.7515 409.667167,162.723333 409.5415,162.706 C409.415833,162.688667 409.262001,162.68 409.08,162.68 L406.675,162.68 L406.675,171 L405.336,171 L405.336,152.605 L410.042,152.605 C412.156677,152.605 413.740495,153.014496 414.7935,153.8335 C415.846505,154.652504 416.373,155.854992 416.373,157.441 C416.373,158.143004 416.251668,158.78433 416.009,159.365 C415.766332,159.94567 415.417502,160.454831 414.9625,160.8925 C414.507498,161.330169 413.95717,161.687665 413.3115,161.965 C412.66583,162.242335 411.940004,162.428666 411.134,162.524 C411.342001,162.654001 411.528333,162.827332 411.693,163.044 L418.024,171 Z M436.614,161.796 C436.614,163.21734 436.401669,164.495661 435.977,165.631 C435.552331,166.766339 434.954337,167.732663 434.183,168.53 C433.411663,169.327337 432.486505,169.938331 431.4075,170.363 C430.328495,170.787669 429.139006,171 427.839,171 L421.118,171 L421.118,152.605 L427.839,152.605 C429.139006,152.605 430.328495,152.817331 431.4075,153.242 C432.486505,153.666669 433.411663,154.277663 434.183,155.075 C434.954337,155.872337 435.552331,156.838661 435.977,157.974 C436.401669,159.109339 436.614,160.383326 436.614,161.796 L436.614,161.796 Z M435.236,161.796 C435.236,160.513327 435.058335,159.369338 434.703,158.364 C434.347665,157.358662 433.845003,156.509337 433.195,155.816 C432.544997,155.122663 431.765005,154.594002 430.855,154.23 C429.944995,153.865998 428.939672,153.684 427.839,153.684 L422.457,153.684 L422.457,169.921 L427.839,169.921 C428.939672,169.921 429.944995,169.739002 430.855,169.375 C431.765005,169.010998 432.544997,168.482337 433.195,167.789 C433.845003,167.095663 434.347665,166.246338 434.703,165.241 C435.058335,164.235662 435.236,163.08734 435.236,161.796 L435.236,161.796 Z M442.217,171 L440.878,171 L440.878,152.605 L442.217,152.605 L442.217,171 Z M463.992,161.796 C463.992,163.21734 463.779669,164.506494 463.355,165.6635 C462.930331,166.820506 462.332337,167.808496 461.561,168.6275 C460.789663,169.446504 459.864505,170.079164 458.7855,170.5255 C457.706495,170.971836 456.517006,171.195 455.217,171.195 C453.916993,171.195 452.729672,170.971836 451.655,170.5255 C450.580328,170.079164 449.657337,169.446504 448.886,168.6275 C448.114663,167.808496 447.516669,166.820506 447.092,165.6635 C446.667331,164.506494 446.455,163.21734 446.455,161.796 C446.455,160.383326 446.667331,159.098506 447.092,157.9415 C447.516669,156.784494 448.114663,155.796504 448.886,154.9775 C449.657337,154.158496 450.580328,153.523669 451.655,153.073 C452.729672,152.622331 453.916993,152.397 455.217,152.397 C456.517006,152.397 457.706495,152.620164 458.7855,153.0665 C459.864505,153.512836 460.789663,154.147663 461.561,154.971 C462.332337,155.794337 462.930331,156.784494 463.355,157.9415 C463.779669,159.098506 463.992,160.383326 463.992,161.796 L463.992,161.796 Z M462.614,161.796 C462.614,160.513327 462.436335,159.360672 462.081,158.338 C461.725665,157.315328 461.223003,156.44867 460.573,155.738 C459.922997,155.02733 459.143005,154.483502 458.233,154.1065 C457.322995,153.729498 456.317672,153.541 455.217,153.541 C454.124995,153.541 453.124005,153.729498 452.214,154.1065 C451.303995,154.483502 450.521837,155.02733 449.8675,155.738 C449.213163,156.44867 448.706168,157.315328 448.3465,158.338 C447.986832,159.360672 447.807,160.513327 447.807,161.796 C447.807,163.08734 447.986832,164.242162 448.3465,165.2605 C448.706168,166.278838 449.213163,167.14333 449.8675,167.854 C450.521837,168.56467 451.303995,169.106331 452.214,169.479 C453.124005,169.851669 454.124995,170.038 455.217,170.038 C456.317672,170.038 457.322995,169.851669 458.233,169.479 C459.143005,169.106331 459.922997,168.56467 460.573,167.854 C461.223003,167.14333 461.725665,166.278838 462.081,165.2605 C462.436335,164.242162 462.614,163.08734 462.614,161.796 L462.614,161.796 Z M481.802,152.605 L474.21,171 L473.027,171 L465.435,152.605 L466.488,152.605 C466.609334,152.605 466.709,152.6375 466.787,152.7025 C466.865,152.7675 466.925666,152.851999 466.969,152.956 L473.235,168.218 C473.304334,168.408668 473.373666,168.612332 473.443,168.829 C473.512334,169.045668 473.577333,169.266666 473.638,169.492 C473.69,169.266666 473.746333,169.045668 473.807,168.829 C473.867667,168.612332 473.937,168.408668 474.015,168.218 L480.268,152.956 C480.302667,152.860666 480.363333,152.778334 480.45,152.709 C480.536667,152.639666 480.640666,152.605 480.762,152.605 L481.802,152.605 Z M493.476,164.318 L489.732,155.023 C489.601999,154.719665 489.476334,154.355669 489.355,153.931 C489.303,154.139001 489.246667,154.336166 489.186,154.5225 C489.125333,154.708834 489.060334,154.879999 488.991,155.036 L485.247,164.318 L493.476,164.318 Z M497.545,171 L496.518,171 C496.396666,171 496.297,170.9675 496.219,170.9025 C496.141,170.8375 496.080334,170.753001 496.037,170.649 L493.879,165.306 L484.844,165.306 L482.686,170.649 C482.651333,170.744334 482.590667,170.826666 482.504,170.896 C482.417333,170.965334 482.313334,171 482.192,171 L481.178,171 L488.705,152.605 L490.018,152.605 L497.545,171 Z M509.531,154.841 C509.453,154.988334 509.340334,155.062 509.193,155.062 C509.080333,155.062 508.935168,154.981834 508.7575,154.8215 C508.579832,154.661166 508.339335,154.483501 508.036,154.2885 C507.732665,154.093499 507.353502,153.913667 506.8985,153.749 C506.443498,153.584333 505.882337,153.502 505.215,153.502 C504.547663,153.502 503.960503,153.597332 503.4535,153.788 C502.946497,153.978668 502.521835,154.238665 502.1795,154.568 C501.837165,154.897335 501.577168,155.278664 501.3995,155.712 C501.221832,156.145335 501.133,156.600331 501.133,157.077 C501.133,157.701003 501.265165,158.216665 501.5295,158.624 C501.793835,159.031335 502.142665,159.377999 502.576,159.664 C503.009335,159.950001 503.501164,160.190499 504.0515,160.3855 C504.601836,160.580501 505.16733,160.773332 505.748,160.964 C506.32867,161.154668 506.894164,161.364832 507.4445,161.5945 C507.994836,161.824168 508.486664,162.112332 508.92,162.459 C509.353335,162.805668 509.702165,163.232497 509.9665,163.7395 C510.230835,164.246503 510.363,164.876996 510.363,165.631 C510.363,166.402337 510.230835,167.128163 509.9665,167.8085 C509.702165,168.488837 509.318669,169.080331 508.816,169.583 C508.313331,170.085669 507.698004,170.482165 506.97,170.7725 C506.241996,171.062835 505.410005,171.208 504.474,171.208 C503.260661,171.208 502.216338,170.993502 501.341,170.5645 C500.465662,170.135498 499.69867,169.548337 499.04,168.803 L499.404,168.231 C499.508001,168.100999 499.629333,168.036 499.768,168.036 C499.846,168.036 499.945666,168.087999 500.067,168.192 C500.188334,168.296001 500.335666,168.423833 500.509,168.5755 C500.682334,168.727167 500.890332,168.891832 501.133,169.0695 C501.375668,169.247168 501.657332,169.411833 501.978,169.5635 C502.298668,169.715167 502.666998,169.842999 503.083,169.947 C503.499002,170.051001 503.971331,170.103 504.5,170.103 C505.228004,170.103 505.877997,169.992501 506.45,169.7715 C507.022003,169.550499 507.505165,169.249335 507.8995,168.868 C508.293835,168.486665 508.594999,168.033836 508.803,167.5095 C509.011001,166.985164 509.115,166.424003 509.115,165.826 C509.115,165.175997 508.982835,164.640835 508.7185,164.2205 C508.454165,163.800165 508.105335,163.449168 507.672,163.1675 C507.238664,162.885832 506.746836,162.649668 506.1965,162.459 C505.646164,162.268332 505.08067,162.082001 504.5,161.9 C503.91933,161.717999 503.353836,161.514334 502.8035,161.289 C502.253164,161.063666 501.761335,160.775502 501.328,160.4245 C500.894664,160.073498 500.545835,159.635836 500.2815,159.1115 C500.017165,158.587164 499.885,157.930671 499.885,157.142 C499.885,156.526664 500.001999,155.933003 500.236,155.361 C500.470001,154.788997 500.812331,154.284169 501.263,153.8465 C501.713669,153.408831 502.270497,153.057835 502.9335,152.7935 C503.596503,152.529165 504.352662,152.397 505.202,152.397 C506.155338,152.397 507.011163,152.548665 507.7695,152.852 C508.527837,153.155335 509.218997,153.618997 509.843,154.243 L509.531,154.841 Z M527.783,167.906 C527.869667,167.906 527.943333,167.936333 528.004,167.997 L528.524,168.556 C528.142665,168.963335 527.728836,169.329498 527.2825,169.6545 C526.836164,169.979502 526.346503,170.256832 525.8135,170.4865 C525.280497,170.716168 524.695503,170.893833 524.0585,171.0195 C523.421497,171.145167 522.72167,171.208 521.959,171.208 C520.684994,171.208 519.517172,170.984836 518.4555,170.5385 C517.393828,170.092164 516.48167,169.459504 515.719,168.6405 C514.95633,167.821496 514.364835,166.831339 513.9445,165.67 C513.524165,164.508661 513.314,163.21734 513.314,161.796 C513.314,160.40066 513.530664,159.126672 513.964,157.974 C514.397335,156.821328 515.003996,155.831171 515.784,155.0035 C516.564004,154.175829 517.499995,153.534502 518.592,153.0795 C519.684005,152.624498 520.88866,152.397 522.206,152.397 C523.462673,152.397 524.576328,152.591998 525.547,152.982 C526.517672,153.372002 527.401663,153.92233 528.199,154.633 L527.796,155.218 C527.726666,155.322001 527.618334,155.374 527.471,155.374 C527.366999,155.374 527.198001,155.278668 526.964,155.088 C526.729999,154.897332 526.405002,154.687168 525.989,154.4575 C525.572998,154.227832 525.05517,154.017668 524.4355,153.827 C523.81583,153.636332 523.072671,153.541 522.206,153.541 C521.096661,153.541 520.080505,153.731665 519.1575,154.113 C518.234495,154.494335 517.441503,155.04033 516.7785,155.751 C516.115497,156.46167 515.597669,157.328328 515.225,158.351 C514.852331,159.373672 514.666,160.521994 514.666,161.796 C514.666,163.096006 514.854498,164.257328 515.2315,165.28 C515.608502,166.302672 516.12633,167.167163 516.785,167.8735 C517.44367,168.579837 518.221496,169.121498 519.1185,169.4985 C520.015504,169.875502 520.983995,170.064 522.024,170.064 C522.68267,170.064 523.269831,170.020667 523.7855,169.934 C524.301169,169.847333 524.775664,169.717334 525.209,169.544 C525.642335,169.370666 526.045331,169.158335 526.418,168.907 C526.790669,168.655665 527.158998,168.361002 527.523,168.023 C527.566334,167.988333 527.609666,167.960167 527.653,167.9385 C527.696334,167.916833 527.739666,167.906 527.783,167.906 L527.783,167.906 Z M538.82,170.051 C539.704004,170.051 540.49483,169.897168 541.1925,169.5895 C541.89017,169.281832 542.481664,168.855003 542.967,168.309 C543.452336,167.762997 543.822832,167.119504 544.0785,166.3785 C544.334168,165.637496 544.462,164.838004 544.462,163.98 L544.462,152.605 L545.788,152.605 L545.788,163.98 C545.788,164.994005 545.627668,165.940829 545.307,166.8205 C544.986332,167.700171 544.524836,168.467163 543.9225,169.1215 C543.320164,169.775837 542.587838,170.289331 541.7255,170.662 C540.863162,171.034669 539.894672,171.221 538.82,171.221 C537.745328,171.221 536.776838,171.034669 535.9145,170.662 C535.052162,170.289331 534.319836,169.775837 533.7175,169.1215 C533.115164,168.467163 532.653668,167.700171 532.333,166.8205 C532.012332,165.940829 531.852,164.994005 531.852,163.98 L531.852,152.605 L533.191,152.605 L533.191,163.967 C533.191,164.825004 533.318832,165.624496 533.5745,166.3655 C533.830168,167.106504 534.198498,167.749997 534.6795,168.296 C535.160502,168.842003 535.74983,169.270998 536.4475,169.583 C537.14517,169.895002 537.935996,170.051 538.82,170.051 L538.82,170.051 Z M561.037,169.869 L561.037,171 L550.988,171 L550.988,152.605 L552.327,152.605 L552.327,169.869 L561.037,169.869 Z M574.063,164.318 L570.319,155.023 C570.188999,154.719665 570.063334,154.355669 569.942,153.931 C569.89,154.139001 569.833667,154.336166 569.773,154.5225 C569.712333,154.708834 569.647334,154.879999 569.578,155.036 L565.834,164.318 L574.063,164.318 Z M578.132,171 L577.105,171 C576.983666,171 576.884,170.9675 576.806,170.9025 C576.728,170.8375 576.667334,170.753001 576.624,170.649 L574.466,165.306 L565.431,165.306 L563.273,170.649 C563.238333,170.744334 563.177667,170.826666 563.091,170.896 C563.004333,170.965334 562.900334,171 562.779,171 L561.765,171 L569.292,152.605 L570.605,152.605 L578.132,171 Z M585.711,161.692 C586.525671,161.692 587.25583,161.594501 587.9015,161.3995 C588.54717,161.204499 589.093164,160.925002 589.5395,160.561 C589.985836,160.196998 590.325999,159.759336 590.56,159.248 C590.794001,158.736664 590.911,158.160337 590.911,157.519 C590.911,156.210327 590.484171,155.23967 589.6305,154.607 C588.776829,153.97433 587.531008,153.658 585.893,153.658 L582.526,153.658 L582.526,161.692 L585.711,161.692 Z M593.875,171 L592.731,171 C592.583666,171 592.460167,170.976167 592.3605,170.9285 C592.260833,170.880833 592.167667,170.792001 592.081,170.662 L586.179,163.2 C586.109666,163.104666 586.038167,163.022334 585.9645,162.953 C585.890833,162.883666 585.8085,162.8295 585.7175,162.7905 C585.6265,162.7515 585.518167,162.723333 585.3925,162.706 C585.266833,162.688667 585.113001,162.68 584.931,162.68 L582.526,162.68 L582.526,171 L581.187,171 L581.187,152.605 L585.893,152.605 C588.007677,152.605 589.591495,153.014496 590.6445,153.8335 C591.697505,154.652504 592.224,155.854992 592.224,157.441 C592.224,158.143004 592.102668,158.78433 591.86,159.365 C591.617332,159.94567 591.268502,160.454831 590.8135,160.8925 C590.358498,161.330169 589.80817,161.687665 589.1625,161.965 C588.51683,162.242335 587.791004,162.428666 586.985,162.524 C587.193001,162.654001 587.379333,162.827332 587.544,163.044 L593.875,171 Z M608.552,161.692 C609.366671,161.692 610.09683,161.594501 610.7425,161.3995 C611.38817,161.204499 611.934164,160.925002 612.3805,160.561 C612.826836,160.196998 613.166999,159.759336 613.401,159.248 C613.635001,158.736664 613.752,158.160337 613.752,157.519 C613.752,156.210327 613.325171,155.23967 612.4715,154.607 C611.617829,153.97433 610.372008,153.658 608.734,153.658 L605.367,153.658 L605.367,161.692 L608.552,161.692 Z M616.716,171 L615.572,171 C615.424666,171 615.301167,170.976167 615.2015,170.9285 C615.101833,170.880833 615.008667,170.792001 614.922,170.662 L609.02,163.2 C608.950666,163.104666 608.879167,163.022334 608.8055,162.953 C608.731833,162.883666 608.6495,162.8295 608.5585,162.7905 C608.4675,162.7515 608.359167,162.723333 608.2335,162.706 C608.107833,162.688667 607.954001,162.68 607.772,162.68 L605.367,162.68 L605.367,171 L604.028,171 L604.028,152.605 L608.734,152.605 C610.848677,152.605 612.432495,153.014496 613.4855,153.8335 C614.538505,154.652504 615.065,155.854992 615.065,157.441 C615.065,158.143004 614.943668,158.78433 614.701,159.365 C614.458332,159.94567 614.109502,160.454831 613.6545,160.8925 C613.199498,161.330169 612.64917,161.687665 612.0035,161.965 C611.35783,162.242335 610.632004,162.428666 609.826,162.524 C610.034001,162.654001 610.220333,162.827332 610.385,163.044 L616.716,171 Z M630.86,169.895 L630.834,171 L619.81,171 L619.81,152.605 L630.834,152.605 L630.834,153.71 L621.149,153.71 L621.149,161.146 L629.209,161.146 L629.209,162.225 L621.149,162.225 L621.149,169.895 L630.86,169.895 Z M649.164,162.654 L649.164,169.193 C648.245329,169.843003 647.266005,170.341332 646.226,170.688 C645.185995,171.034668 644.016007,171.208 642.716,171.208 C641.259993,171.208 639.951339,170.984836 638.79,170.5385 C637.628661,170.092164 636.638504,169.459504 635.8195,168.6405 C635.000496,167.821496 634.372169,166.831339 633.9345,165.67 C633.496831,164.508661 633.278,163.21734 633.278,161.796 C633.278,160.37466 633.492498,159.085506 633.9215,157.9285 C634.350502,156.771494 634.965829,155.783504 635.7675,154.9645 C636.569171,154.145496 637.537661,153.512836 638.673,153.0665 C639.808339,152.620164 641.08666,152.397 642.508,152.397 C643.210004,152.397 643.85783,152.444666 644.4515,152.54 C645.04517,152.635334 645.597664,152.776166 646.109,152.9625 C646.620336,153.148834 647.096998,153.378499 647.539,153.6515 C647.981002,153.924501 648.405665,154.238665 648.813,154.594 L648.449,155.166 C648.327666,155.374001 648.145668,155.421667 647.903,155.309 C647.772999,155.257 647.586668,155.135668 647.344,154.945 C647.101332,154.754332 646.767669,154.555001 646.343,154.347 C645.918331,154.138999 645.391836,153.952667 644.7635,153.788 C644.135164,153.623333 643.370338,153.541 642.469,153.541 C641.272994,153.541 640.191838,153.731665 639.2255,154.113 C638.259162,154.494335 637.435837,155.04033 636.7555,155.751 C636.075163,156.46167 635.550835,157.328328 635.1825,158.351 C634.814165,159.373672 634.63,160.521994 634.63,161.796 C634.63,163.08734 634.814165,164.248662 635.1825,165.28 C635.550835,166.311338 636.08383,167.186663 636.7815,167.906 C637.47917,168.625337 638.326328,169.175665 639.323,169.557 C640.319672,169.938335 641.441994,170.129 642.69,170.129 C643.236003,170.129 643.740831,170.094334 644.2045,170.025 C644.668169,169.955666 645.110165,169.858167 645.5305,169.7325 C645.950835,169.606833 646.358165,169.450834 646.7525,169.2645 C647.146835,169.078166 647.547665,168.868001 647.955,168.634 L647.955,163.681 L644.432,163.681 C644.336666,163.681 644.2565,163.650667 644.1915,163.59 C644.1265,163.529333 644.094,163.46 644.094,163.382 L644.094,162.654 L649.164,162.654 Z M660.318,170.051 C661.202004,170.051 661.99283,169.897168 662.6905,169.5895 C663.38817,169.281832 663.979664,168.855003 664.465,168.309 C664.950336,167.762997 665.320832,167.119504 665.5765,166.3785 C665.832168,165.637496 665.96,164.838004 665.96,163.98 L665.96,152.605 L667.286,152.605 L667.286,163.98 C667.286,164.994005 667.125668,165.940829 666.805,166.8205 C666.484332,167.700171 666.022836,168.467163 665.4205,169.1215 C664.818164,169.775837 664.085838,170.289331 663.2235,170.662 C662.361162,171.034669 661.392672,171.221 660.318,171.221 C659.243328,171.221 658.274838,171.034669 657.4125,170.662 C656.550162,170.289331 655.817836,169.775837 655.2155,169.1215 C654.613164,168.467163 654.151668,167.700171 653.831,166.8205 C653.510332,165.940829 653.35,164.994005 653.35,163.98 L653.35,152.605 L654.689,152.605 L654.689,163.967 C654.689,164.825004 654.816832,165.624496 655.0725,166.3655 C655.328168,167.106504 655.696498,167.749997 656.1775,168.296 C656.658502,168.842003 657.24783,169.270998 657.9455,169.583 C658.64317,169.895002 659.433996,170.051 660.318,170.051 L660.318,170.051 Z M682.535,169.869 L682.535,171 L672.486,171 L672.486,152.605 L673.825,152.605 L673.825,169.869 L682.535,169.869 Z M695.561,164.318 L691.817,155.023 C691.686999,154.719665 691.561334,154.355669 691.44,153.931 C691.388,154.139001 691.331667,154.336166 691.271,154.5225 C691.210333,154.708834 691.145334,154.879999 691.076,155.036 L687.332,164.318 L695.561,164.318 Z M699.63,171 L698.603,171 C698.481666,171 698.382,170.9675 698.304,170.9025 C698.226,170.8375 698.165334,170.753001 698.122,170.649 L695.964,165.306 L686.929,165.306 L684.771,170.649 C684.736333,170.744334 684.675667,170.826666 684.589,170.896 C684.502333,170.965334 684.398334,171 684.277,171 L683.263,171 L690.79,152.605 L692.103,152.605 L699.63,171 Z M712.825,153.736 L706.364,153.736 L706.364,171 L705.025,171 L705.025,153.736 L698.525,153.736 L698.525,152.605 L712.825,152.605 L712.825,153.736 Z M731.181,161.796 C731.181,163.21734 730.968669,164.506494 730.544,165.6635 C730.119331,166.820506 729.521337,167.808496 728.75,168.6275 C727.978663,169.446504 727.053505,170.079164 725.9745,170.5255 C724.895495,170.971836 723.706007,171.195 722.406,171.195 C721.105994,171.195 719.918672,170.971836 718.844,170.5255 C717.769328,170.079164 716.846337,169.446504 716.075,168.6275 C715.303663,167.808496 714.705669,166.820506 714.281,165.6635 C713.856331,164.506494 713.644,163.21734 713.644,161.796 C713.644,160.383326 713.856331,159.098506 714.281,157.9415 C714.705669,156.784494 715.303663,155.796504 716.075,154.9775 C716.846337,154.158496 717.769328,153.523669 718.844,153.073 C719.918672,152.622331 721.105994,152.397 722.406,152.397 C723.706007,152.397 724.895495,152.620164 725.9745,153.0665 C727.053505,153.512836 727.978663,154.147663 728.75,154.971 C729.521337,155.794337 730.119331,156.784494 730.544,157.9415 C730.968669,159.098506 731.181,160.383326 731.181,161.796 L731.181,161.796 Z M729.803,161.796 C729.803,160.513327 729.625335,159.360672 729.27,158.338 C728.914665,157.315328 728.412003,156.44867 727.762,155.738 C727.111997,155.02733 726.332005,154.483502 725.422,154.1065 C724.511995,153.729498 723.506672,153.541 722.406,153.541 C721.313995,153.541 720.313005,153.729498 719.403,154.1065 C718.492995,154.483502 717.710837,155.02733 717.0565,155.738 C716.402163,156.44867 715.895168,157.315328 715.5355,158.338 C715.175832,159.360672 714.996,160.513327 714.996,161.796 C714.996,163.08734 715.175832,164.242162 715.5355,165.2605 C715.895168,166.278838 716.402163,167.14333 717.0565,167.854 C717.710837,168.56467 718.492995,169.106331 719.403,169.479 C720.313005,169.851669 721.313995,170.038 722.406,170.038 C723.506672,170.038 724.511995,169.851669 725.422,169.479 C726.332005,169.106331 727.111997,168.56467 727.762,167.854 C728.412003,167.14333 728.914665,166.278838 729.27,165.2605 C729.625335,164.242162 729.803,163.08734 729.803,161.796 L729.803,161.796 Z M739.943,161.692 C740.757671,161.692 741.48783,161.594501 742.1335,161.3995 C742.77917,161.204499 743.325164,160.925002 743.7715,160.561 C744.217836,160.196998 744.557999,159.759336 744.792,159.248 C745.026001,158.736664 745.143,158.160337 745.143,157.519 C745.143,156.210327 744.716171,155.23967 743.8625,154.607 C743.008829,153.97433 741.763008,153.658 740.125,153.658 L736.758,153.658 L736.758,161.692 L739.943,161.692 Z M748.107,171 L746.963,171 C746.815666,171 746.692167,170.976167 746.5925,170.9285 C746.492833,170.880833 746.399667,170.792001 746.313,170.662 L740.411,163.2 C740.341666,163.104666 740.270167,163.022334 740.1965,162.953 C740.122833,162.883666 740.0405,162.8295 739.9495,162.7905 C739.8585,162.7515 739.750167,162.723333 739.6245,162.706 C739.498833,162.688667 739.345001,162.68 739.163,162.68 L736.758,162.68 L736.758,171 L735.419,171 L735.419,152.605 L740.125,152.605 C742.239677,152.605 743.823495,153.014496 744.8765,153.8335 C745.929505,154.652504 746.456,155.854992 746.456,157.441 C746.456,158.143004 746.334668,158.78433 746.092,159.365 C745.849332,159.94567 745.500502,160.454831 745.0455,160.8925 C744.590498,161.330169 744.04017,161.687665 743.3945,161.965 C742.74883,162.242335 742.023004,162.428666 741.217,162.524 C741.425001,162.654001 741.611333,162.827332 741.776,163.044 L748.107,171 Z M756.349,163.421 L756.349,171 L755.023,171 L755.023,163.421 L748.211,152.605 L749.381,152.605 C749.502334,152.605 749.602,152.633166 749.68,152.6895 C749.758,152.745834 749.823,152.825999 749.875,152.93 L755.14,161.38 C755.252667,161.579334 755.356666,161.772166 755.452,161.9585 C755.547334,162.144834 755.629666,162.328999 755.699,162.511 C755.768334,162.328999 755.846333,162.144834 755.933,161.9585 C756.019667,161.772166 756.119333,161.579334 756.232,161.38 L761.497,152.93 C761.540334,152.834666 761.603166,152.756667 761.6855,152.696 C761.767834,152.635333 761.869666,152.605 761.991,152.605 L763.161,152.605 L756.349,163.421 Z M787.718,161.796 C787.718,163.21734 787.505669,164.495661 787.081,165.631 C786.656331,166.766339 786.058337,167.732663 785.287,168.53 C784.515663,169.327337 783.590505,169.938331 782.5115,170.363 C781.432495,170.787669 780.243007,171 778.943,171 L772.222,171 L772.222,152.605 L778.943,152.605 C780.243007,152.605 781.432495,152.817331 782.5115,153.242 C783.590505,153.666669 784.515663,154.277663 785.287,155.075 C786.058337,155.872337 786.656331,156.838661 787.081,157.974 C787.505669,159.109339 787.718,160.383326 787.718,161.796 L787.718,161.796 Z M786.34,161.796 C786.34,160.513327 786.162335,159.369338 785.807,158.364 C785.451665,157.358662 784.949003,156.509337 784.299,155.816 C783.648997,155.122663 782.869005,154.594002 781.959,154.23 C781.048995,153.865998 780.043672,153.684 778.943,153.684 L773.561,153.684 L773.561,169.921 L778.943,169.921 C780.043672,169.921 781.048995,169.739002 781.959,169.375 C782.869005,169.010998 783.648997,168.482337 784.299,167.789 C784.949003,167.095663 785.451665,166.246338 785.807,165.241 C786.162335,164.235662 786.34,163.08734 786.34,161.796 L786.34,161.796 Z M793.321,171 L791.982,171 L791.982,152.605 L793.321,152.605 L793.321,171 Z M807.686,154.841 C807.608,154.988334 807.495334,155.062 807.348,155.062 C807.235333,155.062 807.090168,154.981834 806.9125,154.8215 C806.734832,154.661166 806.494335,154.483501 806.191,154.2885 C805.887665,154.093499 805.508502,153.913667 805.0535,153.749 C804.598498,153.584333 804.037337,153.502 803.37,153.502 C802.702663,153.502 802.115503,153.597332 801.6085,153.788 C801.101497,153.978668 800.676835,154.238665 800.3345,154.568 C799.992165,154.897335 799.732168,155.278664 799.5545,155.712 C799.376832,156.145335 799.288,156.600331 799.288,157.077 C799.288,157.701003 799.420165,158.216665 799.6845,158.624 C799.948835,159.031335 800.297665,159.377999 800.731,159.664 C801.164336,159.950001 801.656164,160.190499 802.2065,160.3855 C802.756836,160.580501 803.32233,160.773332 803.903,160.964 C804.48367,161.154668 805.049164,161.364832 805.5995,161.5945 C806.149836,161.824168 806.641665,162.112332 807.075,162.459 C807.508336,162.805668 807.857165,163.232497 808.1215,163.7395 C808.385835,164.246503 808.518,164.876996 808.518,165.631 C808.518,166.402337 808.385835,167.128163 808.1215,167.8085 C807.857165,168.488837 807.473669,169.080331 806.971,169.583 C806.468331,170.085669 805.853004,170.482165 805.125,170.7725 C804.396996,171.062835 803.565005,171.208 802.629,171.208 C801.415661,171.208 800.371338,170.993502 799.496,170.5645 C798.620662,170.135498 797.85367,169.548337 797.195,168.803 L797.559,168.231 C797.663001,168.100999 797.784333,168.036 797.923,168.036 C798.001,168.036 798.100666,168.087999 798.222,168.192 C798.343334,168.296001 798.490666,168.423833 798.664,168.5755 C798.837334,168.727167 799.045332,168.891832 799.288,169.0695 C799.530668,169.247168 799.812332,169.411833 800.133,169.5635 C800.453668,169.715167 800.821998,169.842999 801.238,169.947 C801.654002,170.051001 802.126331,170.103 802.655,170.103 C803.383004,170.103 804.032997,169.992501 804.605,169.7715 C805.177003,169.550499 805.660165,169.249335 806.0545,168.868 C806.448835,168.486665 806.749999,168.033836 806.958,167.5095 C807.166001,166.985164 807.27,166.424003 807.27,165.826 C807.27,165.175997 807.137835,164.640835 806.8735,164.2205 C806.609165,163.800165 806.260336,163.449168 805.827,163.1675 C805.393665,162.885832 804.901836,162.649668 804.3515,162.459 C803.801164,162.268332 803.23567,162.082001 802.655,161.9 C802.07433,161.717999 801.508836,161.514334 800.9585,161.289 C800.408164,161.063666 799.916336,160.775502 799.483,160.4245 C799.049665,160.073498 798.700835,159.635836 798.4365,159.1115 C798.172165,158.587164 798.04,157.930671 798.04,157.142 C798.04,156.526664 798.156999,155.933003 798.391,155.361 C798.625001,154.788997 798.967331,154.284169 799.418,153.8465 C799.868669,153.408831 800.425497,153.057835 801.0885,152.7935 C801.751503,152.529165 802.507662,152.397 803.357,152.397 C804.310338,152.397 805.166163,152.548665 805.9245,152.852 C806.682837,153.155335 807.373997,153.618997 807.998,154.243 L807.686,154.841 Z M829.006,161.796 C829.006,163.21734 828.793669,164.506494 828.369,165.6635 C827.944331,166.820506 827.346337,167.808496 826.575,168.6275 C825.803663,169.446504 824.878505,170.079164 823.7995,170.5255 C822.720495,170.971836 821.531007,171.195 820.231,171.195 C818.930994,171.195 817.743672,170.971836 816.669,170.5255 C815.594328,170.079164 814.671337,169.446504 813.9,168.6275 C813.128663,167.808496 812.530669,166.820506 812.106,165.6635 C811.681331,164.506494 811.469,163.21734 811.469,161.796 C811.469,160.383326 811.681331,159.098506 812.106,157.9415 C812.530669,156.784494 813.128663,155.796504 813.9,154.9775 C814.671337,154.158496 815.594328,153.523669 816.669,153.073 C817.743672,152.622331 818.930994,152.397 820.231,152.397 C821.531007,152.397 822.720495,152.620164 823.7995,153.0665 C824.878505,153.512836 825.803663,154.147663 826.575,154.971 C827.346337,155.794337 827.944331,156.784494 828.369,157.9415 C828.793669,159.098506 829.006,160.383326 829.006,161.796 L829.006,161.796 Z M827.628,161.796 C827.628,160.513327 827.450335,159.360672 827.095,158.338 C826.739665,157.315328 826.237003,156.44867 825.587,155.738 C824.936997,155.02733 824.157005,154.483502 823.247,154.1065 C822.336995,153.729498 821.331672,153.541 820.231,153.541 C819.138995,153.541 818.138005,153.729498 817.228,154.1065 C816.317995,154.483502 815.535837,155.02733 814.8815,155.738 C814.227163,156.44867 813.720168,157.315328 813.3605,158.338 C813.000832,159.360672 812.821,160.513327 812.821,161.796 C812.821,163.08734 813.000832,164.242162 813.3605,165.2605 C813.720168,166.278838 814.227163,167.14333 814.8815,167.854 C815.535837,168.56467 816.317995,169.106331 817.228,169.479 C818.138005,169.851669 819.138995,170.038 820.231,170.038 C821.331672,170.038 822.336995,169.851669 823.247,169.479 C824.157005,169.106331 824.936997,168.56467 825.587,167.854 C826.237003,167.14333 826.739665,166.278838 827.095,165.2605 C827.450335,164.242162 827.628,163.08734 827.628,161.796 L827.628,161.796 Z M837.768,161.692 C838.582671,161.692 839.31283,161.594501 839.9585,161.3995 C840.60417,161.204499 841.150164,160.925002 841.5965,160.561 C842.042836,160.196998 842.382999,159.759336 842.617,159.248 C842.851001,158.736664 842.968,158.160337 842.968,157.519 C842.968,156.210327 842.541171,155.23967 841.6875,154.607 C840.833829,153.97433 839.588008,153.658 837.95,153.658 L834.583,153.658 L834.583,161.692 L837.768,161.692 Z M845.932,171 L844.788,171 C844.640666,171 844.517167,170.976167 844.4175,170.9285 C844.317833,170.880833 844.224667,170.792001 844.138,170.662 L838.236,163.2 C838.166666,163.104666 838.095167,163.022334 838.0215,162.953 C837.947833,162.883666 837.8655,162.8295 837.7745,162.7905 C837.6835,162.7515 837.575167,162.723333 837.4495,162.706 C837.323833,162.688667 837.170001,162.68 836.988,162.68 L834.583,162.68 L834.583,171 L833.244,171 L833.244,152.605 L837.95,152.605 C840.064677,152.605 841.648495,153.014496 842.7015,153.8335 C843.754505,154.652504 844.281,155.854992 844.281,157.441 C844.281,158.143004 844.159668,158.78433 843.917,159.365 C843.674332,159.94567 843.325502,160.454831 842.8705,160.8925 C842.415498,161.330169 841.86517,161.687665 841.2195,161.965 C840.57383,162.242335 839.848004,162.428666 839.042,162.524 C839.250001,162.654001 839.436333,162.827332 839.601,163.044 L845.932,171 Z M864.522,161.796 C864.522,163.21734 864.309669,164.495661 863.885,165.631 C863.460331,166.766339 862.862337,167.732663 862.091,168.53 C861.319663,169.327337 860.394505,169.938331 859.3155,170.363 C858.236495,170.787669 857.047007,171 855.747,171 L849.026,171 L849.026,152.605 L855.747,152.605 C857.047007,152.605 858.236495,152.817331 859.3155,153.242 C860.394505,153.666669 861.319663,154.277663 862.091,155.075 C862.862337,155.872337 863.460331,156.838661 863.885,157.974 C864.309669,159.109339 864.522,160.383326 864.522,161.796 L864.522,161.796 Z M863.144,161.796 C863.144,160.513327 862.966335,159.369338 862.611,158.364 C862.255665,157.358662 861.753003,156.509337 861.103,155.816 C860.452997,155.122663 859.673005,154.594002 858.763,154.23 C857.852995,153.865998 856.847672,153.684 855.747,153.684 L850.365,153.684 L850.365,169.921 L855.747,169.921 C856.847672,169.921 857.852995,169.739002 858.763,169.375 C859.673005,169.010998 860.452997,168.482337 861.103,167.789 C861.753003,167.095663 862.255665,166.246338 862.611,165.241 C862.966335,164.235662 863.144,163.08734 863.144,161.796 L863.144,161.796 Z M879.836,169.895 L879.81,171 L868.786,171 L868.786,152.605 L879.81,152.605 L879.81,153.71 L870.125,153.71 L870.125,161.146 L878.185,161.146 L878.185,162.225 L870.125,162.225 L870.125,169.895 L879.836,169.895 Z M888.39,161.692 C889.204671,161.692 889.93483,161.594501 890.5805,161.3995 C891.22617,161.204499 891.772164,160.925002 892.2185,160.561 C892.664836,160.196998 893.004999,159.759336 893.239,159.248 C893.473001,158.736664 893.59,158.160337 893.59,157.519 C893.59,156.210327 893.163171,155.23967 892.3095,154.607 C891.455829,153.97433 890.210008,153.658 888.572,153.658 L885.205,153.658 L885.205,161.692 L888.39,161.692 Z M896.554,171 L895.41,171 C895.262666,171 895.139167,170.976167 895.0395,170.9285 C894.939833,170.880833 894.846667,170.792001 894.76,170.662 L888.858,163.2 C888.788666,163.104666 888.717167,163.022334 888.6435,162.953 C888.569833,162.883666 888.4875,162.8295 888.3965,162.7905 C888.3055,162.7515 888.197167,162.723333 888.0715,162.706 C887.945833,162.688667 887.792001,162.68 887.61,162.68 L885.205,162.68 L885.205,171 L883.866,171 L883.866,152.605 L888.572,152.605 C890.686677,152.605 892.270495,153.014496 893.3235,153.8335 C894.376505,154.652504 894.903,155.854992 894.903,157.441 C894.903,158.143004 894.781668,158.78433 894.539,159.365 C894.296332,159.94567 893.947502,160.454831 893.4925,160.8925 C893.037498,161.330169 892.48717,161.687665 891.8415,161.965 C891.19583,162.242335 890.470004,162.428666 889.664,162.524 C889.872001,162.654001 890.058333,162.827332 890.223,163.044 L896.554,171 Z M908.579,154.841 C908.501,154.988334 908.388334,155.062 908.241,155.062 C908.128333,155.062 907.983168,154.981834 907.8055,154.8215 C907.627832,154.661166 907.387335,154.483501 907.084,154.2885 C906.780665,154.093499 906.401502,153.913667 905.9465,153.749 C905.491498,153.584333 904.930337,153.502 904.263,153.502 C903.595663,153.502 903.008503,153.597332 902.5015,153.788 C901.994497,153.978668 901.569835,154.238665 901.2275,154.568 C900.885165,154.897335 900.625168,155.278664 900.4475,155.712 C900.269832,156.145335 900.181,156.600331 900.181,157.077 C900.181,157.701003 900.313165,158.216665 900.5775,158.624 C900.841835,159.031335 901.190665,159.377999 901.624,159.664 C902.057336,159.950001 902.549164,160.190499 903.0995,160.3855 C903.649836,160.580501 904.21533,160.773332 904.796,160.964 C905.37667,161.154668 905.942164,161.364832 906.4925,161.5945 C907.042836,161.824168 907.534665,162.112332 907.968,162.459 C908.401336,162.805668 908.750165,163.232497 909.0145,163.7395 C909.278835,164.246503 909.411,164.876996 909.411,165.631 C909.411,166.402337 909.278835,167.128163 909.0145,167.8085 C908.750165,168.488837 908.366669,169.080331 907.864,169.583 C907.361331,170.085669 906.746004,170.482165 906.018,170.7725 C905.289996,171.062835 904.458005,171.208 903.522,171.208 C902.308661,171.208 901.264338,170.993502 900.389,170.5645 C899.513662,170.135498 898.74667,169.548337 898.088,168.803 L898.452,168.231 C898.556001,168.100999 898.677333,168.036 898.816,168.036 C898.894,168.036 898.993666,168.087999 899.115,168.192 C899.236334,168.296001 899.383666,168.423833 899.557,168.5755 C899.730334,168.727167 899.938332,168.891832 900.181,169.0695 C900.423668,169.247168 900.705332,169.411833 901.026,169.5635 C901.346668,169.715167 901.714998,169.842999 902.131,169.947 C902.547002,170.051001 903.019331,170.103 903.548,170.103 C904.276004,170.103 904.925997,169.992501 905.498,169.7715 C906.070003,169.550499 906.553165,169.249335 906.9475,168.868 C907.341835,168.486665 907.642999,168.033836 907.851,167.5095 C908.059001,166.985164 908.163,166.424003 908.163,165.826 C908.163,165.175997 908.030835,164.640835 907.7665,164.2205 C907.502165,163.800165 907.153336,163.449168 906.72,163.1675 C906.286665,162.885832 905.794836,162.649668 905.2445,162.459 C904.694164,162.268332 904.12867,162.082001 903.548,161.9 C902.96733,161.717999 902.401836,161.514334 901.8515,161.289 C901.301164,161.063666 900.809336,160.775502 900.376,160.4245 C899.942665,160.073498 899.593835,159.635836 899.3295,159.1115 C899.065165,158.587164 898.933,157.930671 898.933,157.142 C898.933,156.526664 899.049999,155.933003 899.284,155.361 C899.518001,154.788997 899.860331,154.284169 900.311,153.8465 C900.761669,153.408831 901.318497,153.057835 901.9815,152.7935 C902.644503,152.529165 903.400662,152.397 904.25,152.397 C905.203338,152.397 906.059163,152.548665 906.8175,152.852 C907.575837,153.155335 908.266997,153.618997 908.891,154.243 L908.579,154.841 Z" id="DIAGNOSTIC-SYSTEM-OF" fill="#FFFFFF" sketch:type="MSShapeGroup"></path>
            </g>
        </g>
    </g>
</svg>
