<?xml version="1.0" encoding="utf-8"?>
<!-- Generator: Adobe Illustrator 17.0.0, SVG Export Plug-In . SVG Version: 6.00 Build 0)  -->
<!DOCTYPE svg PUBLIC "-//W3C//DTD SVG 1.1//EN" "http://www.w3.org/Graphics/SVG/1.1/DTD/svg11.dtd">
<svg version="1.1" id="Слой_1" xmlns="http://www.w3.org/2000/svg" xmlns:xlink="http://www.w3.org/1999/xlink" x="0px" y="0px"
	 width="269.644px" height="280.373px" viewBox="0 0 269.644 280.373" enable-background="new 0 0 269.644 280.373"
	 xml:space="preserve">
<rect x="3.058" y="96.692" fill="#5DB7C0" width="35.412" height="39.302"/>
<polygon fill="#F4E09D" points="32.88,174.052 7.25,172.655 3.058,135.994 38.47,135.994 "/>
<g>
	<path fill="#FFFFFF" d="M0,84.078L12.924,0h15.37l12.925,84.078H28.993l-2.329-17.158H14.555l-2.329,17.158H0z M21.308,27.339
		l-0.349-2.173H20.26l-0.349,2.173l-3.61,26.539h8.617L21.308,27.339z"/>
	<path fill="#FFFFFF" d="M52.975,84.078L42.612,21.505h11.411l3.842,36.262l0.466,4.004h0.931l0.466-4.004l3.842-36.262h11.411
		L64.619,84.078H52.975z"/>
	<path fill="#FFFFFF" d="M102.923,47.472h-9.781v36.605H80.567V0h12.575v34.775h9.781V0h12.575v84.078h-12.575V47.472z"/>
	<path fill="#FFFFFF" d="M153.566,69.664c0,2.288,0.117,5.033,3.261,5.033c2.678,0,3.377-1.258,3.377-5.033V60.97h11.76v6.063
		c0,6.978-1.281,11.439-3.843,14.185c-2.561,2.745-6.287,3.774-11.294,3.774c-4.192,0-8.035-1.144-10.713-4.004
		c-2.678-2.86-4.308-7.55-4.308-14.528v-27.34c0-6.978,1.63-11.668,4.308-14.528c2.678-2.86,6.521-4.004,10.713-4.004
		c5.007,0,8.733,1.03,11.294,3.774c2.562,2.746,3.843,7.207,3.843,14.185v4.919h-11.76v-7.55c0-3.775-0.699-5.033-3.377-5.033
		c-3.144,0-3.261,2.746-3.261,5.033V69.664z"/>
	<path fill="#FFFFFF" d="M179.178,84.078V0h11.761v84.078H179.178z"/>
	<path fill="#FFFFFF" d="M218.416,21.505h11.76v62.572h-11.76v-5.262c-0.233,0.114-0.699,0.572-1.281,1.144
		c-1.397,1.373-3.027,2.974-5.123,4.118c-1.048,0.572-2.096,0.915-3.144,0.915c-3.144,0-5.356-1.83-6.753-4.232
		c-1.397-2.288-2.096-5.377-2.096-8.007V21.505h11.76v49.532c0,2.402,1.397,2.746,2.795,2.746c1.281,0,1.979-0.686,2.795-1.487
		c0.349-0.343,0.699-0.915,1.048-1.487V21.505z"/>
	<path fill="#FFFFFF" d="M239.486,0h11.761v25.624c1.979-1.831,3.726-3.203,6.055-4.233c1.048-0.572,2.212-0.8,3.26-0.8
		c3.26,0,5.473,1.83,6.986,4.118c1.397,2.402,2.096,5.491,2.096,8.122v39.923c0,2.631-0.699,5.72-2.096,8.007
		c-1.513,2.402-3.726,4.232-6.986,4.232c-2.212,0-4.541-1.258-6.287-2.516c-1.048-0.801-1.98-1.601-3.027-2.517v4.118h-11.761V0z
		 M251.247,70.351c0,2.174,1.746,3.775,3.493,3.775c1.747,0,3.144-1.601,3.144-3.775V35.233c0-2.174-1.397-3.775-3.144-3.775
		c-1.747,0-3.493,1.945-3.493,3.775V70.351z"/>
</g>
<g>
	<path fill="#FFFFFF" d="M40.097,96.692v54.334c0,18.166-6.496,27.25-19.488,27.25c-6.495,0-11.45-2.348-14.863-7.047
		c-3.413-4.697-5.12-11.431-5.12-20.203V96.692h5.45v54.995c0,6.973,1.257,12.285,3.771,15.937
		c2.513,3.652,6.101,5.477,10.762,5.477c4.625,0,8.129-1.825,10.515-5.477c2.385-3.652,3.578-9.037,3.578-16.158V96.692H40.097z"/>
	<path fill="#FFFFFF" d="M61.567,147.613l3.358-6.055l14.753-24.112h5.67l-13.762,21.965l14.973,37.764h-5.505l-12.992-32.92
		l-6.606,8.698v24.222h-5.23V91.517h5.23v46.077l-0.385,10.019H61.567z"/>
	<path fill="#FFFFFF" d="M111.938,116.29c1.872,0,3.614,0.257,5.229,0.77l-1.266,5.23c-1.322-0.551-2.679-0.826-4.074-0.826
		c-2.019,0-3.9,1.037-5.643,3.111c-1.743,2.074-3.11,4.964-4.101,8.67c-0.991,3.708-1.486,7.799-1.486,12.276v31.654h-5.23v-59.729
		h4.294l0.551,10.46h0.385C103.386,120.162,107.167,116.29,111.938,116.29z"/>
	<path fill="#FFFFFF" d="M149.261,177.175l-0.66-8.368h-0.22c-2.863,6.313-7.193,9.469-12.992,9.469c-3.89,0-7.019-1.55-9.386-4.652
		c-2.367-3.101-3.551-7.257-3.551-12.469c0-5.688,1.706-10.193,5.12-13.514c3.413-3.321,8.203-5.128,14.368-5.423l6.441-0.33v-4.954
		c0-5.578-0.697-9.642-2.092-12.193c-1.395-2.55-3.708-3.826-6.936-3.826c-3.413,0-6.9,1.12-10.46,3.358l-2.257-4.129
		c4.147-2.569,8.496-3.854,13.047-3.854c4.917,0,8.458,1.551,10.625,4.651c2.165,3.102,3.248,8.285,3.248,15.552v40.682H149.261z
		 M136.545,173.816c3.744,0,6.652-1.844,8.725-5.532c2.074-3.689,3.111-8.909,3.111-15.662v-6.221l-6.221,0.33
		c-4.808,0.257-8.377,1.588-10.707,3.991c-2.331,2.404-3.495,5.918-3.495,10.542c0,4.331,0.77,7.505,2.312,9.524
		C131.81,172.808,133.902,173.816,136.545,173.816z"/>
	<path fill="#FFFFFF" d="M168.529,100.876c0-1.652,0.339-2.936,1.019-3.854c0.679-0.917,1.55-1.376,2.615-1.376
		c0.991,0,1.779,0.459,2.367,1.376c0.587,0.918,0.881,2.202,0.881,3.854c0,1.578-0.294,2.835-0.881,3.77
		c-0.587,0.936-1.376,1.404-2.367,1.404c-1.065,0-1.936-0.468-2.615-1.404C168.868,103.711,168.529,102.454,168.529,100.876z
		 M174.529,177.175h-5.23v-59.729h5.23V177.175z"/>
	<path fill="#FFFFFF" d="M217.469,177.175v-41.177c0-9.909-2.937-14.863-8.808-14.863c-4.478,0-7.753,1.854-9.826,5.56
		c-2.074,3.707-3.11,9.597-3.11,17.671v32.81h-5.23v-59.729h4.404l0.44,8.312h0.495c1.247-3.009,3.046-5.34,5.395-6.992
		c2.348-1.651,4.863-2.477,7.542-2.477c4.624,0,8.092,1.551,10.404,4.651c2.312,3.102,3.468,8.084,3.468,14.946v41.287H217.469z"/>
	<path fill="#FFFFFF" d="M255.342,178.276c-6.313,0-11.167-2.688-14.56-8.065c-3.395-5.377-5.092-12.872-5.092-22.488
		c0-10.202,1.513-17.992,4.541-23.369c3.027-5.376,7.385-8.065,13.074-8.065c4.955,0,8.863,2.358,11.726,7.073
		c2.862,4.717,4.294,11.075,4.294,19.075v4.844H241.03c0.073,8.698,1.302,15.213,3.689,19.543c2.385,4.331,6,6.495,10.844,6.495
		c3.744,0,7.688-1.229,11.836-3.689v5.065C263.581,177.083,259.562,178.276,255.342,178.276z M252.976,121.024
		c-7.193,0-11.139,7.176-11.836,21.524h22.956c0-6.568-1-11.798-3-15.689C259.094,122.969,256.388,121.024,252.976,121.024z"/>
</g>
<g>
	<path fill="#FFFFFF" d="M14.562,246.464v-1.589H3.023v-22.614H1.335v24.203H14.562z"/>
	<path fill="#FFFFFF" d="M36.643,246.464h1.904l-9.535-24.302h-1.076l-9.734,24.302h1.871l3.377-8.542h9.834L36.643,246.464z
		 M27.455,227.708c0.353-0.861,0.678-1.821,0.977-2.881c0.386,1.214,0.717,2.163,0.993,2.848l3.294,8.724h-8.658L27.455,227.708z"/>
	<path fill="#FFFFFF" d="M62.466,222.261h-1.639v15.793c0,1.788,0.049,3.675,0.149,5.662h-0.099l-14.319-21.454h-1.688v24.203h1.622
		V230.77c0-1.302-0.066-3.234-0.199-5.794h0.132l14.336,21.488h1.705V222.261z"/>
	<path fill="#FFFFFF" d="M87.568,225.291c-2.014-2.02-4.952-3.03-8.815-3.03h-6.539v24.203h5.794c4.128,0,7.256-1.04,9.386-3.121
		c2.13-2.08,3.195-5.151,3.195-9.212C90.59,230.257,89.582,227.311,87.568,225.291z M77.909,244.974h-4.006v-21.223h4.453
		c3.41,0,5.995,0.875,7.756,2.624c1.76,1.749,2.64,4.357,2.64,7.822C88.752,241.382,85.137,244.974,77.909,244.974L77.909,244.974z"
		/>
	<path fill="#FFFFFF" d="M100.735,246.464v-24.203h-1.688v24.203H100.735z"/>
	<path fill="#FFFFFF" d="M128.081,222.261h-1.639v15.793c0,1.788,0.049,3.675,0.149,5.662h-0.099l-14.319-21.454h-1.688v24.203
		h1.622V230.77c0-1.302-0.066-3.234-0.199-5.794h0.133l14.336,21.488h1.705V222.261z"/>
	<path fill="#FFFFFF" d="M147.348,235.852h7.201v8.509c-1.556,0.629-3.449,0.943-5.678,0.943c-3.443,0-6.054-0.919-7.83-2.756
		c-1.777-1.838-2.665-4.577-2.665-8.219c0-3.344,0.935-6.001,2.806-7.971c1.871-1.97,4.4-2.955,7.59-2.955
		c2.252,0,4.425,0.486,6.522,1.457l0.679-1.523c-2.097-0.971-4.464-1.457-7.102-1.457c-2.439,0-4.6,0.519-6.481,1.556
		c-1.882,1.038-3.327,2.508-4.337,4.412c-1.01,1.904-1.515,4.086-1.515,6.547c0,3.951,1.018,7.005,3.054,9.163
		c2.036,2.157,4.963,3.236,8.782,3.236c2.925,0,5.556-0.496,7.896-1.49v-11.042h-8.923V235.852z"/>
	<path fill="#FFFFFF" d="M186.402,222.261h-5.926v24.203h1.689v-9.999h3.741c2.914,0,5.165-0.623,6.754-1.871
		c1.589-1.247,2.384-3.04,2.384-5.38C195.043,224.579,192.163,222.261,186.402,222.261L186.402,222.261z M182.164,223.785h4.006
		c2.406,0,4.183,0.45,5.33,1.349c1.148,0.9,1.722,2.282,1.722,4.147c0,2.02-0.607,3.479-1.821,4.378
		c-1.214,0.9-3.184,1.349-5.91,1.349h-3.327V223.785z"/>
	<path fill="#FFFFFF" d="M218.217,246.464h1.904l-9.535-24.302h-1.076l-9.734,24.302h1.871l3.377-8.542h9.833L218.217,246.464z
		 M209.03,227.708c0.353-0.861,0.679-1.821,0.977-2.881c0.386,1.214,0.717,2.163,0.993,2.848l3.295,8.724h-8.658L209.03,227.708z"/>
	<path fill="#FFFFFF" d="M235.961,235.852h7.201v8.509c-1.556,0.629-3.449,0.943-5.678,0.943c-3.443,0-6.054-0.919-7.83-2.756
		c-1.777-1.838-2.666-4.577-2.666-8.219c0-3.344,0.935-6.001,2.806-7.971c1.871-1.97,4.401-2.955,7.59-2.955
		c2.252,0,4.425,0.486,6.522,1.457l0.679-1.523c-2.097-0.971-4.464-1.457-7.102-1.457c-2.439,0-4.599,0.519-6.481,1.556
		c-1.882,1.038-3.328,2.508-4.337,4.412c-1.01,1.904-1.515,4.086-1.515,6.547c0,3.951,1.018,7.005,3.054,9.163
		c2.036,2.157,4.963,3.236,8.782,3.236c2.924,0,5.556-0.496,7.896-1.49v-11.042h-8.923V235.852z"/>
	<path fill="#FFFFFF" d="M267.082,244.908h-11.538v-10.38h10.893v-1.556h-10.893v-9.155h11.538v-1.556h-13.227v24.203h13.227
		V244.908z"/>
	<path fill="#FFFFFF" d="M9.157,273.251c0.931-1.131,1.397-2.722,1.397-4.777c0-2.115-0.443-3.726-1.328-4.834
		c-0.885-1.107-2.171-1.661-3.857-1.661c-1.885,0-3.257,0.674-4.116,2.023H1.184l-0.219-1.782H0v18.152h1.138v-4.759
		c0-0.675-0.015-1.295-0.046-1.862l-0.035-0.966h0.08c0.881,1.441,2.284,2.161,4.208,2.161
		C6.955,274.946,8.225,274.381,9.157,273.251z M2.121,272.682c-0.655-0.835-0.983-2.23-0.983-4.185v-0.368
		c0-1.809,0.341-3.113,1.023-3.914c0.682-0.801,1.751-1.202,3.207-1.202c2.651,0,3.977,1.836,3.977,5.507
		c0,1.709-0.35,3.039-1.052,3.989c-0.701,0.95-1.692,1.425-2.972,1.425C3.844,273.935,2.776,273.517,2.121,272.682z"/>
	<path fill="#FFFFFF" d="M37.687,262.536c-0.582,0.372-1.131,1.017-1.644,1.937h-0.08l-0.115-2.253h-0.966v12.496h1.138v-6.898
		c0-1.379,0.341-2.521,1.023-3.426c0.682-0.904,1.555-1.357,2.621-1.357c0.56,0,1.1,0.065,1.621,0.195l0.219-1.092
		c-0.605-0.108-1.172-0.161-1.701-0.161C38.975,261.979,38.269,262.165,37.687,262.536z"/>
	<path fill="#FFFFFF" d="M73.782,263.709c-0.977-1.154-2.324-1.73-4.041-1.73c-1.724,0-3.081,0.569-4.07,1.707
		c-0.988,1.138-1.483,2.727-1.483,4.765c0,1.295,0.222,2.437,0.667,3.426c0.445,0.989,1.085,1.747,1.92,2.276
		c0.835,0.529,1.801,0.793,2.897,0.793c1.74,0,3.104-0.573,4.093-1.718c0.989-1.146,1.483-2.738,1.483-4.777
		C75.247,266.443,74.759,264.863,73.782,263.709z M66.505,264.433c0.747-0.946,1.811-1.42,3.19-1.42s2.451,0.476,3.213,1.426
		c0.762,0.95,1.144,2.288,1.144,4.012c0,1.717-0.378,3.056-1.132,4.018c-0.755,0.962-1.822,1.443-3.202,1.443
		c-1.38,0-2.447-0.481-3.202-1.443c-0.755-0.962-1.132-2.301-1.132-4.018C65.384,266.719,65.757,265.38,66.505,264.433z"/>
	<path fill="#FFFFFF" d="M101.289,273.245c-0.337-0.46-0.506-1.169-0.506-2.127v-7.91h3.667v-0.988h-3.667v-3.023h-0.586
		l-0.575,2.828l-1.851,0.517v0.667h1.851v8.07c0,1.264,0.263,2.192,0.788,2.782c0.525,0.59,1.339,0.885,2.443,0.885
		c0.72,0,1.357-0.092,1.909-0.276v-0.919c-0.537,0.122-1.165,0.184-1.885,0.184S101.626,273.705,101.289,273.245z"/>
	<path fill="#FFFFFF" d="M137.2,263.709c-0.977-1.154-2.324-1.73-4.041-1.73c-1.724,0-3.081,0.569-4.07,1.707
		c-0.988,1.138-1.483,2.727-1.483,4.765c0,1.295,0.222,2.437,0.667,3.426c0.444,0.989,1.084,1.747,1.92,2.276
		c0.835,0.529,1.801,0.793,2.897,0.793c1.74,0,3.104-0.573,4.093-1.718c0.989-1.146,1.483-2.738,1.483-4.777
		C138.665,266.443,138.177,264.863,137.2,263.709z M129.923,264.433c0.747-0.946,1.811-1.42,3.19-1.42
		c1.38,0,2.451,0.476,3.213,1.426c0.763,0.95,1.144,2.288,1.144,4.012c0,1.717-0.377,3.056-1.132,4.018
		c-0.755,0.962-1.822,1.443-3.202,1.443c-1.38,0-2.447-0.481-3.202-1.443c-0.755-0.962-1.132-2.301-1.132-4.018
		C128.802,266.719,129.176,265.38,129.923,264.433z"/>
	<path fill="#FFFFFF" d="M164.707,273.245c-0.337-0.46-0.506-1.169-0.506-2.127v-7.91h3.667v-0.988h-3.667v-3.023h-0.586
		l-0.575,2.828l-1.851,0.517v0.667h1.851v8.07c0,1.264,0.263,2.192,0.788,2.782c0.525,0.59,1.339,0.885,2.443,0.885
		c0.72,0,1.357-0.092,1.909-0.276v-0.919c-0.537,0.122-1.165,0.184-1.885,0.184S165.044,273.705,164.707,273.245z"/>
	<path fill="#FFFFFF" d="M194.439,274.717c-0.092,0.253-0.297,0.799-0.615,1.638c-0.318,0.839-0.598,1.452-0.839,1.84
		c-0.241,0.387-0.512,0.673-0.811,0.856c-0.299,0.184-0.644,0.276-1.034,0.276c-0.514,0-0.993-0.062-1.437-0.184v0.988
		c0.536,0.161,1.023,0.242,1.46,0.242c0.582,0,1.079-0.104,1.489-0.31c0.41-0.207,0.768-0.518,1.075-0.931
		c0.306-0.414,0.686-1.211,1.138-2.391l5.598-14.52h-1.172l-2.644,6.944c-0.728,1.962-1.253,3.437-1.575,4.426h-0.069
		c-0.215-0.751-0.724-2.203-1.529-4.357l-2.644-7.013h-1.173L194.439,274.717z"/>
	<path fill="#FFFFFF" d="M232.579,273.251c0.931-1.131,1.397-2.722,1.397-4.777c0-2.115-0.443-3.726-1.328-4.834
		c-0.885-1.107-2.171-1.661-3.857-1.661c-1.885,0-3.257,0.674-4.115,2.023h-0.069l-0.219-1.782h-0.966v18.152h1.138v-4.759
		c0-0.675-0.016-1.295-0.046-1.862l-0.035-0.966h0.08c0.881,1.441,2.284,2.161,4.207,2.161
		C230.378,274.946,231.648,274.381,232.579,273.251z M225.544,272.682c-0.655-0.835-0.983-2.23-0.983-4.185v-0.368
		c0-1.809,0.341-3.113,1.023-3.914c0.682-0.801,1.751-1.202,3.207-1.202c2.652,0,3.978,1.836,3.978,5.507
		c0,1.709-0.351,3.039-1.052,3.989c-0.701,0.95-1.692,1.425-2.972,1.425C227.266,273.935,226.199,273.517,225.544,272.682z"/>
	<path fill="#FFFFFF" d="M265.329,274.78c0.598-0.111,1.249-0.32,1.954-0.627v-1.035c-0.828,0.33-1.512,0.544-2.052,0.644
		c-0.54,0.1-1.167,0.15-1.88,0.15c-1.464,0-2.589-0.452-3.374-1.357s-1.186-2.215-1.201-3.932h9.001v-0.92
		c0-1.763-0.425-3.157-1.276-4.185c-0.851-1.027-2.012-1.54-3.483-1.54c-1.663,0-2.985,0.6-3.966,1.799
		c-0.981,1.199-1.471,2.795-1.471,4.788c0,2.016,0.507,3.583,1.523,4.702c1.016,1.119,2.432,1.678,4.248,1.678
		C264.072,274.946,264.731,274.891,265.329,274.78z M265.628,264.215c0.629,0.816,0.943,1.949,0.943,3.397h-7.726
		c0.122-1.495,0.548-2.638,1.276-3.432c0.728-0.793,1.694-1.19,2.897-1.19C264.129,262.991,264.999,263.399,265.628,264.215z"/>
</g>
</svg>
