<?xml version="1.0" encoding="utf-8"?>
<!-- Generator: Adobe Illustrator 17.0.0, SVG Export Plug-In . SVG Version: 6.00 Build 0)  -->
<?xml-stylesheet type="text/css" href="../css/style.css" ?>
<svg class="logo-img-svg" version="1.2" baseProfile="tiny"
	 xmlns="http://www.w3.org/2000/svg" xmlns:xlink="http://www.w3.org/1999/xlink" x="0px" y="0px" width="111.867px"
	 height="59.309px" viewBox="0 0 111.867 59.309" xml:space="preserve">
<path fill="#FFFFFF" d="M75.252,1.195l-8.49,25.699l9.299,31.219H60.768l-5.994-24.398v24.398H39.973V1.195h14.801v22.113
	l6.592-22.113H75.252z"/>
<path fill="#FFFFFF" d="M111.867,25.98H97.066v-9.893c0-2.876-0.158-4.671-0.475-5.385s-1.014-1.07-2.092-1.07
	c-1.219,0-1.992,0.434-2.32,1.301c-0.329,0.867-0.492,2.742-0.492,5.625v26.438c0,2.766,0.164,4.57,0.492,5.414
	c0.328,0.844,1.066,1.266,2.215,1.266c1.102,0,1.822-0.422,2.162-1.269c0.339-0.846,0.51-2.831,0.51-5.956v-7.154h14.801v2.218
	c0,5.891-0.417,10.069-1.248,12.534c-0.832,2.465-2.672,4.624-5.52,6.479c-2.848,1.854-6.358,2.781-10.529,2.781
	c-4.336,0-7.91-0.786-10.723-2.355s-4.676-3.744-5.59-6.521s-1.371-6.955-1.371-12.533V21.27c0-4.101,0.141-7.177,0.422-9.229
	c0.281-2.051,1.119-4.025,2.514-5.924c1.394-1.898,3.328-3.393,5.801-4.482C88.096,0.545,90.937,0,94.148,0
	c4.359,0,7.957,0.843,10.793,2.528c2.835,1.686,4.699,3.787,5.59,6.302c0.891,2.516,1.336,6.431,1.336,11.744V25.98z"/>
<path fill="#FFFFFF" d="M19.23,1.195v0.442c0.88,0.472,1.519,1.25,2.034,2.21c1.285,2.394,2.127,4.935,2.828,7.547
	c0.412,1.535,1.029,3.014,1.504,4.533c0.201,0.643,0.333,1.322,0.387,1.994c0.056,0.696-0.398,0.989-1.073,0.815
	c-1.146-0.295-1.556-1.256-1.933-2.197c-0.485-1.21-0.872-2.459-1.318-3.685c-0.085-0.234-0.245-0.44-0.399-0.709
	c-0.872,0.628-1.288,1.433-1.34,2.377c-0.064,1.179,0.002,2.364-0.022,3.545c-0.035,1.728-0.091,3.455-0.155,5.182
	c-0.036,0.978-0.051,1.962-0.188,2.928c-0.055,0.391-0.324,0.885-0.648,1.076c-0.516,0.304-1.194-0.171-1.222-0.843
	c-0.035-0.845,0.076-1.695,0.083-2.543c0.004-0.547-0.055-1.096-0.106-1.642c-0.156-1.652-0.319-3.304-0.49-4.955
	c-0.012-0.117-0.102-0.226-0.257-0.551c-0.107,0.409-0.196,0.623-0.215,0.843c-0.17,2.025-0.283,4.057-0.506,6.076
	c-0.125,1.137-0.411,2.258-0.655,3.38c-0.059,0.269-0.182,0.585-0.383,0.746c-0.283,0.227-0.691,0.485-0.999,0.436
	c-0.244-0.038-0.569-0.506-0.593-0.804c-0.055-0.702,0.054-1.416,0.088-2.125c0.109-2.224,0.207-4.449,0.324-6.673
	c0.04-0.757,0.123-1.512,0.187-2.268c-0.076-0.016-0.151-0.033-0.227-0.049c-0.152,0.607-0.29,1.217-0.458,1.819
	c-0.309,1.104-0.69,2.192-0.938,3.309c-0.193,0.867-0.216,1.771-0.343,2.654c-0.059,0.408-0.11,0.851-0.308,1.195
	c-0.152,0.265-0.557,0.582-0.799,0.546c-0.295-0.045-0.728-0.41-0.765-0.683c-0.106-0.764-0.095-1.557-0.027-2.329
	c0.108-1.228,0.27-2.453,0.463-3.671c0.25-1.577,0.566-3.143,0.822-4.719c0.039-0.241-0.096-0.511-0.15-0.767
	c-0.089-0.009-0.177-0.019-0.266-0.028c-0.521,0.798-1.107,1.562-1.546,2.403c-0.639,1.224-1.157,2.509-1.756,3.755
	C7.63,20.25,7.37,20.96,6.691,20.645c-0.57-0.265-0.718-0.925-0.468-1.58c0.583-1.534,1.011-3.149,1.772-4.588
	c1.456-2.751,2.076-5.726,2.807-8.697c0.384-1.56,1.051-3.092,2.428-4.108c0.293-0.216,0.604-0.363,0.923-0.477H0v56.918h13.038
	c-0.492-0.444-0.895-1.007-1.241-1.652c-1.285-2.394-2.127-4.935-2.828-7.547c-0.412-1.535-1.029-3.014-1.504-4.533
	c-0.201-0.643-0.333-1.322-0.387-1.994c-0.056-0.696,0.398-0.989,1.073-0.815c1.146,0.294,1.556,1.256,1.933,2.197
	c0.485,1.21,0.872,2.459,1.318,3.685c0.085,0.234,0.245,0.44,0.399,0.709c0.872-0.628,1.288-1.433,1.34-2.377
	c0.064-1.179-0.002-2.364,0.022-3.545c0.035-1.728,0.091-3.455,0.155-5.182c0.036-0.978,0.051-1.962,0.188-2.928
	c0.055-0.391,0.324-0.885,0.648-1.076c0.516-0.304,1.195,0.171,1.222,0.843c0.035,0.845-0.076,1.695-0.083,2.543
	c-0.004,0.547,0.055,1.096,0.106,1.642c0.156,1.652,0.319,3.304,0.49,4.955c0.012,0.117,0.102,0.226,0.257,0.551
	c0.107-0.409,0.196-0.623,0.215-0.843c0.17-2.025,0.283-4.056,0.506-6.076c0.125-1.137,0.411-2.258,0.655-3.38
	c0.059-0.269,0.182-0.585,0.383-0.746c0.283-0.227,0.691-0.485,0.999-0.436c0.244,0.038,0.569,0.506,0.593,0.804
	c0.055,0.702-0.054,1.416-0.088,2.125c-0.109,2.224-0.207,4.449-0.324,6.673c-0.04,0.757-0.123,1.512-0.187,2.268
	c0.076,0.017,0.151,0.033,0.227,0.05c0.152-0.607,0.29-1.217,0.459-1.819c0.309-1.104,0.69-2.192,0.938-3.309
	c0.193-0.867,0.216-1.771,0.343-2.654c0.059-0.408,0.11-0.851,0.308-1.195c0.152-0.265,0.557-0.583,0.799-0.546
	c0.295,0.045,0.728,0.41,0.766,0.683c0.106,0.764,0.095,1.557,0.027,2.329c-0.108,1.228-0.27,2.453-0.463,3.67
	c-0.25,1.577-0.566,3.143-0.822,4.719c-0.039,0.241,0.096,0.511,0.15,0.767c0.089,0.009,0.177,0.019,0.266,0.028
	c0.521-0.798,1.107-1.562,1.546-2.403c0.639-1.224,1.157-2.509,1.756-3.755c0.234-0.486,0.493-1.196,1.173-0.881
	c0.57,0.265,0.718,0.925,0.468,1.58c-0.583,1.534-1.011,3.149-1.772,4.588c-1.456,2.751-2.076,5.726-2.807,8.697
	c-0.323,1.313-0.853,2.602-1.831,3.584h13.602V1.195H19.23z"/>
	<a xmlns="http://www.w3.org/2000/svg" id="anchor" xlink:href="../index.html" xmlns:xlink="http://www.w3.org/1999/xlink" target="_top">
    <rect x="0" y="0" width="100%" height="100%" fill-opacity="0"/>
  </a>
</svg>
