<?xml version="1.0" encoding="utf-8"?>
<!-- Generator: Adobe Illustrator 17.0.0, SVG Export Plug-In . SVG Version: 6.00 Build 0)  -->
<!DOCTYPE svg PUBLIC "-//W3C//DTD SVG 1.1//EN" "http://www.w3.org/Graphics/SVG/1.1/DTD/svg11.dtd">
<svg version="1.1" id="Слой_1" xmlns:sketch="http://www.bohemiancoding.com/sketch/ns"
	 xmlns="http://www.w3.org/2000/svg" xmlns:xlink="http://www.w3.org/1999/xlink" x="0px" y="0px" width="246px" height="118px"
	 viewBox="0 0 246 118" enable-background="new 0 0 246 118" xml:space="preserve">
<title>works 2</title>
<desc>Created with Sketch.</desc>
<g id="Page-1" sketch:type="MSPage">
	<g id="parasol-logo" sketch:type="MSLayerGroup">
		<g>
			<g id="color">
				<g sketch:type="MSShapeGroup">
					<path id="path-2" fill="#FFFFFF" d="M188.635,26.377c0-2.189,1.128-5.538,2.02-7.803c10.68-25.511,43.813-24.19,53.648,0.58
						c0.74,1.988,1.795,5.25,1.795,7.238c0,5.212-7.538,6.939-8.978-0.341c-0.52-2.583-1.387-4.841-2.695-7.11
						c-7.72-12.882-26.628-14.476-34.792,1.223c-1.07,2.174-1.83,4.497-2.2,6.894c-0.477,2.596-2.747,4.12-5.207,3.683
						C190.143,30.346,188.628,28.488,188.635,26.377L188.635,26.377L188.635,26.377z"/>
				</g>
				<g>
					<path id="path-2_1_" fill="#FFFFFF" d="M188.635,26.377c0-2.189,1.128-5.538,2.02-7.803c10.68-25.511,43.813-24.19,53.648,0.58
						c0.74,1.988,1.795,5.25,1.795,7.238c0,5.212-7.538,6.939-8.978-0.341c-0.52-2.583-1.387-4.841-2.695-7.11
						c-7.72-12.882-26.628-14.476-34.792,1.223c-1.07,2.174-1.83,4.497-2.2,6.894c-0.477,2.596-2.747,4.12-5.207,3.683
						C190.143,30.346,188.628,28.488,188.635,26.377L188.635,26.377L188.635,26.377z"/>
				</g>
			</g>
			<path id="Shape" sketch:type="MSShapeGroup" fill="#FFFFFF" d="M17.448,48.071H8.85V29.969h8.597
				c4.972,0,9.015,4.057,9.015,9.051C26.462,44.011,22.42,48.071,17.448,48.071L17.448,48.071L17.448,48.071z M17.448,21.077H4.425
				C1.982,21.077,0,23.07,0,25.526v44.792c0,2.453,1.982,4.444,4.425,4.444s4.425-1.991,4.425-4.444V56.959h8.597
				c9.85,0,17.867-8.049,17.867-17.939C35.315,29.126,27.3,21.077,17.448,21.077L17.448,21.077L17.448,21.077z M59.975,63.426
				c-0.56,0.947-2.403,3.161-7.305,3.161c-6.485,0-7.235-2.852-7.292-3.869l0.015-0.088l-0.03-0.392
				c-0.002-0.01,0.038-1.012,0.708-1.742c0.82-0.891,2.55-1.378,4.877-1.378c4.385,0,7.26,0.309,9.03,0.608v3.701H59.975
				L59.975,63.426z M70.997,66.595c-1.327-0.781-1.95-2.207-2.173-2.855V47.386c0-6.372-4.68-12.797-15.135-12.797
				c-8.107,0-12.563,4.007-13.045,4.464c-1.775,1.687-1.855,4.499-0.175,6.284c1.677,1.783,4.48,1.863,6.257,0.178
				c0.02-0.02,2.427-2.039,6.965-2.039c1.89,0,6.282,0.382,6.282,3.909v3.347c-2.265-0.296-5.212-0.505-9.03-0.505
				c-4.963,0-8.79,1.424-11.375,4.233c-2.987,3.241-3.085,7.125-3.048,8.22c0.007,1.102,0.28,4.969,3.423,8.25
				c2.89,3.013,7.173,4.542,12.725,4.542c4.945,0,8.568-1.471,11.135-3.387c0.762,0.786,1.643,1.544,2.728,2.179
				c0.702,0.412,1.47,0.61,2.228,0.61c1.522-0.003,3.002-0.788,3.825-2.204C73.817,70.554,73.11,67.832,70.997,66.595L70.997,66.595
				L70.997,66.595z M94.145,34.589c-5.692,0-9.51,1.765-12.057,3.846c-0.73-0.726-1.552-1.424-2.56-2.016
				c-2.11-1.235-4.822-0.517-6.052,1.602c-1.232,2.121-0.518,4.841,1.595,6.078c1.32,0.771,1.942,2.197,2.168,2.845v23.372
				c0,2.453,1.98,4.444,4.425,4.444c2.443,0,4.425-1.991,4.425-4.444V47.142c0.518-1.002,2.423-3.668,8.055-3.668
				c2.442,0,4.425-1.988,4.425-4.444C98.57,36.577,96.588,34.589,94.145,34.589L94.145,34.589L94.145,34.589z M122.143,63.426
				c-0.563,0.947-2.405,3.161-7.305,3.161c-6.485,0-7.235-2.852-7.295-3.869l0.015-0.088l-0.03-0.392c0-0.01,0.038-1.012,0.71-1.742
				c0.82-0.891,2.55-1.378,4.875-1.378c4.387,0,7.26,0.309,9.03,0.608V63.426L122.143,63.426L122.143,63.426z M133.167,66.595
				c-1.327-0.781-1.95-2.207-2.173-2.855V47.386c0-6.372-4.68-12.797-15.132-12.797c-8.105,0-12.565,4.007-13.045,4.464
				c-1.777,1.687-1.855,4.499-0.177,6.284c1.68,1.783,4.48,1.863,6.255,0.178c0.023-0.02,2.43-2.039,6.965-2.039
				c1.89,0,6.283,0.382,6.283,3.909v3.347c-2.265-0.296-5.213-0.505-9.03-0.505c-4.963,0-8.79,1.424-11.375,4.233
				c-2.985,3.241-3.085,7.125-3.048,8.22c0.01,1.102,0.28,4.969,3.423,8.25c2.89,3.013,7.173,4.542,12.727,4.542
				c4.945,0,8.568-1.471,11.135-3.387c0.763,0.786,1.643,1.544,2.728,2.179c0.702,0.412,1.47,0.61,2.23,0.61
				c1.52-0.003,3-0.788,3.825-2.204C135.988,70.554,135.277,67.832,133.167,66.595L133.167,66.595L133.167,66.595z M152.305,50.25
				c-6.032-0.567-6.032-2.302-6.032-3.043c0-3.246,4.105-3.731,6.55-3.731c3.543,0,6.11,2.076,6.225,2.172
				c1.835,1.592,4.607,1.401,6.212-0.429c1.615-1.843,1.438-4.65-0.397-6.272c-0.505-0.444-5.13-4.358-12.04-4.358
				c-9.355,0-15.4,4.951-15.4,12.618c0,3.947,1.825,10.741,14.053,11.89c4.332,0.412,7.6,1.873,7.6,3.404
				c0,1.429,0,4.087-7.548,4.087c-3.707,0-6.572-2.686-6.572-2.686c-1.743-1.722-4.545-1.7-6.26,0.053
				c-1.713,1.75-1.69,4.564,0.052,6.284c0.542,0.537,5.512,5.237,12.78,5.237c14.803,0,16.4-9.073,16.4-12.975
				C167.928,55.756,162.09,51.179,152.305,50.25L152.305,50.25L152.305,50.25z M189.645,66.587c-4.18,0-9.738-1.16-9.738-11.195
				c0-9.749,6.1-11.202,9.738-11.202s9.738,1.454,9.738,11.202C199.38,65.427,193.825,66.587,189.645,66.587L189.645,66.587
				L189.645,66.587z M189.645,35.3c-11.12,0-18.59,8.072-18.59,20.09c0,12.576,6.95,20.085,18.59,20.085
				c11.637,0,18.585-7.509,18.585-20.085C208.23,43.374,200.762,35.3,189.645,35.3L189.645,35.3L189.645,35.3z M231.815,68.325
				c-1.077-2.204-3.73-3.108-5.925-2.029c-0.39,0.193-0.81,0.291-1.253,0.291c-1.567,0-2.845-1.283-2.845-2.86V25.526
				c0-2.458-1.982-4.446-4.425-4.446c-2.445,0-4.425,1.991-4.425,4.446v38.202c0,6.477,5.245,11.747,11.695,11.747
				c1.805,0,3.54-0.402,5.155-1.198C231.985,73.193,232.89,70.531,231.815,68.325L231.815,68.325L231.815,68.325z"/>
			<path id="Shape_1_" sketch:type="MSShapeGroup" fill="#FFFFFF" d="M47.132,92.956c0,0.628-0.478,1.17-1.132,1.17
				c-1.162,0-1.553-1.378-4.175-1.378c-1.938,0-3.37,1.228-3.37,3.028c0,4.702,10.082,2.455,10.082,9.643
				c0,3.535-2.565,6.741-7.188,6.741c-2.802,0-5.905-1.077-5.905-2.578c0-0.718,0.358-1.346,1.103-1.346
				c0.895,0,2.147,1.644,4.833,1.644c2.712,0,4.355-1.976,4.355-4.341c0-5.059-10.083-2.609-10.083-9.586
				c0-2.486,2.327-5.478,6.265-5.478C44.54,90.471,47.132,91.578,47.132,92.956L47.132,92.956L47.132,92.956z M57.182,109.876
				c3.22,0,4.355-3.173,4.355-5.87c0-2.694-1.135-5.872-4.355-5.872c-3.22,0-4.355,3.176-4.355,5.872
				C52.827,106.702,53.96,109.876,57.182,109.876L57.182,109.876L57.182,109.876z M57.182,95.861c4.472,0,6.98,3.924,6.98,8.147
				c0,4.223-2.507,8.15-6.98,8.15s-6.98-3.924-6.98-8.15C50.202,99.783,52.71,95.861,57.182,95.861L57.182,95.861L57.182,95.861z
				 M73.405,95.861c2.683,0,4.265,0.926,4.265,2.009c0,0.54-0.447,1.107-1.075,1.107c-1.015,0-1.403-0.839-3.19-0.839
				c-3.25,0-4.535,3.176-4.535,5.872c0,2.694,1.285,5.87,4.535,5.87c1.85,0,2.325-0.896,3.162-0.896c0.595,0,1.013,0.389,1.013,1.11
				c0,0.989-1.463,2.066-4.175,2.066c-4.832,0-7.16-3.924-7.16-8.15C66.247,99.783,68.573,95.861,73.405,95.861L73.405,95.861
				L73.405,95.861z M82.798,110.747c0,0.869-0.505,1.408-1.313,1.408c-0.805,0-1.313-0.54-1.313-1.408v-13.48
				c0-0.869,0.507-1.406,1.313-1.406s1.313,0.54,1.313,1.408V110.747L82.798,110.747z M81.488,90.471c0.892,0,1.61,0.718,1.61,1.617
				c0,0.896-0.718,1.619-1.61,1.619c-0.895,0-1.61-0.721-1.61-1.619C79.875,91.186,80.59,90.471,81.488,90.471L81.488,90.471
				L81.488,90.471z M95.592,104.159h-0.567c-3.342,0-6.77,0-6.77,3.324c0,1.735,1.61,2.395,3.34,2.395
				c2.237,0,3.997-1.434,3.997-4.223V104.159L95.592,104.159L95.592,104.159z M96.875,112.155c-0.805,0-1.313-0.54-1.313-1.408
				v-0.628l-0.058-0.063c-1.165,1.501-2.805,2.099-4.385,2.099c-2.863,0-5.488-1.408-5.488-4.675c0-4.971,5.548-5.36,9.603-5.36
				h0.357v-1.978c0-1.351-1.103-2.009-2.805-2.009c-2.502,0-2.952,1.619-4.085,1.619c-0.805,0-1.192-0.507-1.192-1.077
				c0-1.647,3.103-2.817,5.28-2.817c3.46,0,5.4,1.554,5.4,4.494v10.394C98.188,111.615,97.68,112.155,96.875,112.155L96.875,112.155
				L96.875,112.155z M104.27,110.747c0,0.869-0.507,1.408-1.313,1.408s-1.313-0.54-1.313-1.408V91.874
				c0-0.869,0.507-1.406,1.313-1.406s1.313,0.537,1.313,1.406V110.747L104.27,110.747z M117.808,101.731h3.88
				c2.592,0,4.355-1.948,4.355-4.376c0-2.096-1.195-4.431-4.475-4.431h-3.757v8.807H117.808L117.808,101.731z M117.808,110.747
				c0,0.869-0.507,1.408-1.31,1.408c-0.805,0-1.313-0.54-1.313-1.408V92.088c0-0.808,0.418-1.436,1.4-1.436h5.19
				c4.268,0,6.89,2.993,6.89,6.706s-2.922,6.651-6.8,6.651h-4.057V110.747L117.808,110.747L117.808,110.747z M130.66,97.267
				c0-0.869,0.51-1.406,1.315-1.406c0.805,0,1.313,0.54,1.313,1.408v1.348h0.06c0.595-1.23,2.057-2.757,3.577-2.757
				c0.923,0,1.46,0.598,1.46,1.348c0,0.746-0.537,1.228-1.637,1.439c-1.552,0.269-3.46,1.436-3.46,4.522v7.577
				c0,0.869-0.51,1.408-1.313,1.408c-0.805,0-1.315-0.54-1.315-1.408V97.267L130.66,97.267z M146.35,109.876
				c3.222,0,4.355-3.173,4.355-5.87c0-2.694-1.133-5.872-4.355-5.872c-3.223,0-4.355,3.176-4.355,5.872
				C141.995,106.702,143.128,109.876,146.35,109.876L146.35,109.876L146.35,109.876z M146.35,95.861
				c4.475,0,6.977,3.924,6.977,8.147c0,4.223-2.505,8.15-6.977,8.15c-4.475,0-6.98-3.924-6.98-8.15
				C139.37,99.783,141.875,95.861,146.35,95.861L146.35,95.861L146.35,95.861z M158.725,117.038c0,0.869-0.508,1.406-1.313,1.406
				c-0.805,0-1.313-0.537-1.313-1.406V97.267c0-0.869,0.507-1.406,1.313-1.406c0.805,0,1.313,0.54,1.313,1.408V117.038
				L158.725,117.038z M157.413,90.471c0.895,0,1.61,0.718,1.61,1.617c0,0.896-0.715,1.619-1.61,1.619
				c-0.895,0-1.61-0.721-1.61-1.619C155.803,91.186,156.518,90.471,157.413,90.471L157.413,90.471L157.413,90.471z M172.56,103.049
				c0-2.277-1.313-4.853-4.205-4.913c-3.253-0.06-4.412,2.486-4.503,4.913H172.56L172.56,103.049z M163.852,105.025
				c0,2.724,1.73,4.851,4.683,4.851c3.49,0,4.385-2.154,5.367-2.154c0.48,0,0.955,0.419,0.955,1.17c0,1.288-3.253,3.266-6.352,3.266
				c-5.073,0-7.278-3.924-7.278-8.15c0-4.311,2.685-8.147,7.128-8.147c4.325,0,6.83,3.922,6.83,7.758
				c0,0.926-0.327,1.408-1.462,1.408L163.852,105.025L163.852,105.025z M184.163,95.861c2.685,0,4.265,0.926,4.265,2.009
				c0,0.54-0.448,1.107-1.075,1.107c-1.012,0-1.4-0.839-3.19-0.839c-3.25,0-4.533,3.176-4.533,5.872c0,2.694,1.283,5.87,4.533,5.87
				c1.85,0,2.327-0.896,3.162-0.896c0.598,0,1.015,0.389,1.015,1.11c0,0.989-1.462,2.066-4.175,2.066
				c-4.832,0-7.157-3.924-7.157-8.15C177.005,99.783,179.33,95.861,184.163,95.861L184.163,95.861L184.163,95.861z M191.765,92.595
				c0-0.869,0.505-1.406,1.31-1.406c0.805,0,1.313,0.54,1.313,1.406v3.445h1.073c0.865,0,1.315,0.419,1.315,1.14
				c0,0.716-0.447,1.137-1.315,1.137h-1.073v12.43c0,0.869-0.507,1.408-1.313,1.408c-0.805,0-1.31-0.54-1.31-1.408v-12.43h-1.075
				c-0.865,0-1.313-0.419-1.313-1.137c0-0.721,0.447-1.14,1.313-1.14h1.075V92.595L191.765,92.595z"/>
		</g>
	</g>
</g>
</svg>
