<?xml version="1.0" encoding="utf-8"?>
<!-- Generator: Adobe Illustrator 17.0.0, SVG Export Plug-In . SVG Version: 6.00 Build 0)  -->
<!DOCTYPE svg PUBLIC "-//W3C//DTD SVG 1.1//EN" "http://www.w3.org/Graphics/SVG/1.1/DTD/svg11.dtd">
<svg version="1.1" id="Слой_1" xmlns="http://www.w3.org/2000/svg" xmlns:xlink="http://www.w3.org/1999/xlink" x="0px" y="0px"
	 width="614.408px" height="217.908px" viewBox="0 0 614.408 217.908" enable-background="new 0 0 614.408 217.908"
	 xml:space="preserve">
<path fill="#FFFFFF" d="M222.615,0l-44.522,75.833H92.081L133.57,0H0l123.45,215.831L247.914,0H222.615z M38.453,20.416h58.689
	L68.809,72.861L38.453,20.416z M123.45,169.766l-40.474-70.6h81.963L123.45,169.766z"/>
<a id="anchor" xlink:href="../index.html" >
	<rect x="0" y="0" fill="#0D0F0F" fill-opacity="0" width="247.914" height="215.831"/>
</a>
<g>
	<path fill="#FFFFFF" d="M316.597,44.724L333.9,3.332h-6.454l-10.849,27.15l-10.849-27.15h-6.454L316.597,44.724z"/>
	<path fill="#FFFFFF" d="M376.349,42.276l-18.471-41.17l-19.361,41.17h6.454l4.284-9.458h16.524l4.117,9.458H376.349z
		 M357.655,14.125l5.786,13.13h-11.795L357.655,14.125z"/>
	<path fill="#FFFFFF" d="M385.194,42.276h6.009V26.309h1.001l11.127,15.967h7.233L398.38,25.641
		c2.596-0.593,4.692-1.864,6.287-3.811c1.594-1.947,2.392-4.293,2.392-7.038c0-1.594-0.353-3.245-1.057-4.952
		c-0.705-1.706-1.892-3.116-3.561-4.228c-2.263-1.52-5.694-2.281-10.293-2.281h-6.954V42.276z M393.205,8.895
		c5.23,0,7.845,1.985,7.845,5.953c0,1.187-0.242,2.207-0.723,3.06c-0.482,0.854-1.021,1.484-1.613,1.892
		c-0.594,0.409-1.327,0.723-2.198,0.946c-0.872,0.223-1.54,0.353-2.003,0.389c-0.464,0.037-0.955,0.056-1.474,0.056h-1.836V8.895
		H393.205z"/>
	<path fill="#FFFFFF" d="M433.374,44.724l17.303-41.393h-6.454l-10.849,27.15l-10.849-27.15h-6.454L433.374,44.724z"/>
	<path fill="#FFFFFF" d="M493.125,42.276l-18.471-41.17l-19.361,41.17h6.454l4.284-9.458h16.524l4.117,9.458H493.125z
		 M474.432,14.125l5.786,13.13h-11.795L474.432,14.125z"/>
	<path fill="#FFFFFF" d="M501.971,42.276h6.009V26.309h1.001l11.127,15.967h7.233l-12.184-16.635
		c2.596-0.593,4.692-1.864,6.287-3.811c1.594-1.947,2.392-4.293,2.392-7.038c0-1.594-0.353-3.245-1.057-4.952
		c-0.705-1.706-1.892-3.116-3.561-4.228c-2.263-1.52-5.694-2.281-10.292-2.281h-6.954V42.276z M509.982,8.895
		c5.23,0,7.845,1.985,7.845,5.953c0,1.187-0.242,2.207-0.723,3.06c-0.482,0.854-1.021,1.484-1.613,1.892
		c-0.594,0.409-1.326,0.723-2.198,0.946c-0.872,0.223-1.54,0.353-2.003,0.389c-0.464,0.037-0.955,0.056-1.474,0.056h-1.836V8.895
		H509.982z"/>
	<path fill="#FFFFFF" d="M570.68,42.276l-18.471-41.17l-19.361,41.17h6.454l4.284-9.458h16.524l4.117,9.458H570.68z M551.987,14.125
		l5.786,13.13h-11.795L551.987,14.125z"/>
	<path fill="#FFFFFF" d="M303.523,129.703h9.291c4.487,0,7.845-0.908,10.07-2.726c2.596-2.151,3.894-5.099,3.894-8.846
		c0-2.039-0.566-3.941-1.697-5.703c-1.132-1.761-2.829-2.995-5.091-3.7c2.299-1.78,3.449-4.154,3.449-7.121
		c0-3.82-1.466-6.75-4.395-8.79c-0.928-0.63-1.975-1.113-3.143-1.447s-2.133-0.519-2.893-0.556
		c-0.761-0.037-1.808-0.056-3.143-0.056h-6.342V129.703z M311.534,96.322c4.08,0,6.12,1.818,6.12,5.452
		c0,3.821-2.114,5.73-6.342,5.73h-1.78V96.322H311.534z M313.203,112.4c2.782,0,4.738,0.566,5.87,1.697
		c1.131,1.132,1.697,2.513,1.697,4.145c0,1.595-0.566,2.976-1.697,4.145c-1.132,1.168-3.125,1.753-5.981,1.753h-3.561V112.4H313.203
		z"/>
	<path fill="#FFFFFF" d="M371.675,129.703l-18.471-41.17l-19.361,41.17h6.454l4.284-9.458h16.524l4.117,9.458H371.675z
		 M352.982,101.551l5.786,13.13h-11.795L352.982,101.551z"/>
	<path fill="#FFFFFF" d="M380.521,129.703h6.009v-15.967h1.001l11.127,15.967h7.233l-12.184-16.635
		c2.596-0.593,4.692-1.864,6.287-3.811c1.594-1.947,2.392-4.293,2.392-7.038c0-1.594-0.353-3.245-1.057-4.952
		c-0.705-1.706-1.892-3.116-3.561-4.228c-2.263-1.52-5.694-2.281-10.292-2.281h-6.954V129.703z M388.532,96.322
		c5.23,0,7.845,1.985,7.845,5.953c0,1.187-0.242,2.207-0.723,3.06c-0.482,0.854-1.021,1.484-1.613,1.892
		c-0.594,0.409-1.327,0.723-2.198,0.946c-0.872,0.223-1.539,0.353-2.003,0.389c-0.464,0.037-0.955,0.056-1.474,0.056h-1.836V96.322
		H388.532z"/>
	<path fill="#FFFFFF" d="M435.544,90.758h-23.812v5.564h8.902v33.381h6.009V96.322h8.902V90.758z"/>
	<path fill="#FFFFFF" d="M442.943,110.286c0,5.712,1.919,10.506,5.758,14.382c3.839,3.876,8.67,5.814,14.493,5.814
		c5.822,0,10.654-1.938,14.493-5.814c3.839-3.875,5.758-8.67,5.758-14.382c0-5.749-1.929-10.571-5.786-14.465
		c-3.858-3.894-8.679-5.842-14.465-5.842c-5.786,0-10.608,1.947-14.465,5.842C444.871,99.715,442.943,104.537,442.943,110.286
		L442.943,110.286z M449.174,110.286c0-4.302,1.307-7.835,3.922-10.598c2.615-2.763,5.981-4.145,10.098-4.145
		s7.483,1.382,10.098,4.145c2.615,2.763,3.922,6.296,3.922,10.598c0,4.303-1.307,7.817-3.922,10.543
		c-2.615,2.726-5.981,4.089-10.098,4.089s-7.483-1.363-10.098-4.089C450.482,118.103,449.174,114.589,449.174,110.286z"/>
	<path fill="#FFFFFF" d="M303.523,217.129h6.009v-15.8h2.615c3.968,0,7.14-1.02,9.514-3.06c2.522-2.151,3.783-4.988,3.783-8.512
		c0-4.191-1.613-7.344-4.84-9.458c-2.151-1.409-4.989-2.114-8.512-2.114h-8.568V217.129z M312.091,183.748
		c4.896,0,7.344,1.985,7.344,5.953c0,4.043-2.43,6.064-7.288,6.064h-2.615v-12.017H312.091z"/>
	<path fill="#FFFFFF" d="M333.621,197.713c0,5.712,1.919,10.506,5.758,14.382c3.839,3.876,8.67,5.814,14.493,5.814
		c5.823,0,10.654-1.938,14.493-5.814c3.839-3.875,5.758-8.67,5.758-14.382c0-5.749-1.929-10.571-5.786-14.465
		c-3.858-3.894-8.679-5.842-14.465-5.842s-10.608,1.947-14.465,5.842C335.549,187.142,333.621,191.964,333.621,197.713
		L333.621,197.713z M339.852,197.713c0-4.302,1.307-7.835,3.922-10.598c2.615-2.763,5.981-4.145,10.098-4.145
		s7.483,1.382,10.098,4.145c2.615,2.763,3.922,6.296,3.922,10.598c0,4.303-1.307,7.817-3.922,10.543s-5.981,4.089-10.098,4.089
		s-7.483-1.363-10.098-4.089S339.852,202.016,339.852,197.713z"/>
	<path fill="#FFFFFF" d="M385.417,217.129h6.009v-15.967h1.001l11.127,15.967h7.233l-12.184-16.635
		c2.595-0.593,4.691-1.864,6.287-3.811c1.594-1.947,2.392-4.293,2.392-7.038c0-1.594-0.353-3.245-1.057-4.952
		c-0.705-1.706-1.892-3.116-3.561-4.228c-2.263-1.52-5.694-2.281-10.293-2.281h-6.954V217.129z M393.428,183.748
		c5.23,0,7.845,1.985,7.845,5.953c0,1.187-0.242,2.207-0.723,3.06c-0.483,0.854-1.021,1.484-1.613,1.892
		c-0.594,0.409-1.327,0.723-2.198,0.946c-0.872,0.223-1.54,0.353-2.003,0.389c-0.465,0.037-0.956,0.056-1.474,0.056h-1.836v-12.295
		H393.428z"/>
	<path fill="#FFFFFF" d="M440.439,178.185h-23.812v5.564h8.902v33.381h6.009v-33.381h8.901V178.185z"/>
	<path fill="#FFFFFF" d="M449.619,178.185v38.945h6.009v-18.471h13.019v-5.564h-13.019v-9.347h13.464v-5.564H449.619z"/>
	<path fill="#FFFFFF" d="M477.937,197.713c0,5.712,1.919,10.506,5.758,14.382c3.839,3.876,8.67,5.814,14.493,5.814
		c5.823,0,10.655-1.938,14.493-5.814c3.839-3.875,5.758-8.67,5.758-14.382c0-5.749-1.929-10.571-5.786-14.465
		c-3.858-3.894-8.679-5.842-14.466-5.842c-5.786,0-10.608,1.947-14.465,5.842C479.865,187.142,477.937,191.964,477.937,197.713
		L477.937,197.713z M484.168,197.713c0-4.302,1.308-7.835,3.923-10.598c2.615-2.763,5.981-4.145,10.097-4.145
		c4.117,0,7.483,1.382,10.098,4.145c2.615,2.763,3.922,6.296,3.922,10.598c0,4.303-1.307,7.817-3.922,10.543
		c-2.615,2.726-5.981,4.089-10.098,4.089c-4.117,0-7.483-1.363-10.097-4.089C485.476,205.53,484.168,202.016,484.168,197.713z"/>
	<path fill="#FFFFFF" d="M529.732,217.129h17.358v-5.564h-11.35v-33.381h-6.009V217.129z"/>
	<path fill="#FFFFFF" d="M556.604,217.129h6.009v-38.945h-6.009V217.129z"/>
	<path fill="#FFFFFF" d="M573.906,197.713c0,5.712,1.919,10.506,5.758,14.382c3.839,3.876,8.67,5.814,14.493,5.814
		c5.823,0,10.654-1.938,14.493-5.814c3.839-3.875,5.758-8.67,5.758-14.382c0-5.749-1.929-10.571-5.786-14.465
		c-3.858-3.894-8.679-5.842-14.465-5.842s-10.608,1.947-14.465,5.842C575.834,187.142,573.906,191.964,573.906,197.713
		L573.906,197.713z M580.137,197.713c0-4.302,1.307-7.835,3.922-10.598c2.615-2.763,5.981-4.145,10.098-4.145
		s7.483,1.382,10.098,4.145c2.615,2.763,3.922,6.296,3.922,10.598c0,4.303-1.307,7.817-3.922,10.543s-5.981,4.089-10.098,4.089
		s-7.483-1.363-10.098-4.089S580.137,202.016,580.137,197.713z"/>
</g>
</svg>
